<svg xmlns="http://www.w3.org/2000/svg" width="256" height="251" viewBox="0 0 256 251" fill="none"><rect x="0.742188" y="0.634766" width="254.36" height="250" rx="16" fill="white"></rect><path d="M25.0811 39.7422C24.1025 39.7422 23.2529 39.5898 22.5322 39.2852C21.8174 38.9746 21.2578 38.5322 20.8535 37.958C20.4492 37.3838 20.2236 36.7012 20.1768 35.9102H22.1631C22.2041 36.3848 22.3564 36.7803 22.6201 37.0967C22.8896 37.4072 23.2383 37.6387 23.666 37.791C24.0938 37.9434 24.5625 38.0195 25.0723 38.0195C25.6289 38.0195 26.127 37.9316 26.5664 37.7559C27.0059 37.5801 27.3486 37.334 27.5947 37.0176C27.8467 36.6953 27.9727 36.3203 27.9727 35.8926C27.9727 35.5059 27.8613 35.1895 27.6387 34.9434C27.4219 34.6973 27.126 34.4951 26.751 34.3369C26.376 34.1729 25.9541 34.0293 25.4854 33.9062L23.9473 33.4844C22.8926 33.2031 22.0605 32.7842 21.4512 32.2275C20.8418 31.665 20.5371 30.9297 20.5371 30.0215C20.5371 29.2656 20.7393 28.6064 21.1436 28.0439C21.5537 27.4814 22.1074 27.0449 22.8047 26.7344C23.5078 26.418 24.2959 26.2598 25.1689 26.2598C26.0596 26.2598 26.8418 26.418 27.5156 26.7344C28.1953 27.0449 28.7314 27.4727 29.124 28.0176C29.5225 28.5566 29.7305 29.1748 29.748 29.8721H27.832C27.7617 29.2686 27.4805 28.7998 26.9883 28.4658C26.502 28.1318 25.8809 27.9648 25.125 27.9648C24.5977 27.9648 24.1348 28.0498 23.7363 28.2197C23.3438 28.3838 23.0391 28.6123 22.8223 28.9053C22.6113 29.1982 22.5059 29.5352 22.5059 29.916C22.5059 30.3262 22.6318 30.6602 22.8838 30.918C23.1416 31.1758 23.4521 31.3809 23.8154 31.5332C24.1846 31.6797 24.5391 31.7998 24.8789 31.8936L26.1533 32.2363C26.5693 32.3418 26.9971 32.4824 27.4365 32.6582C27.876 32.834 28.2832 33.0654 28.6582 33.3525C29.0391 33.6338 29.3438 33.9854 29.5723 34.4072C29.8066 34.8232 29.9238 35.3271 29.9238 35.9189C29.9238 36.6514 29.7334 37.3076 29.3525 37.8877C28.9717 38.4619 28.4209 38.916 27.7002 39.25C26.9795 39.5781 26.1064 39.7422 25.0811 39.7422ZM34.2305 39.7422C33.6094 39.7422 33.0469 39.6279 32.543 39.3994C32.0391 39.165 31.6406 38.8252 31.3477 38.3799C31.0547 37.9346 30.9082 37.3926 30.9082 36.7539C30.9082 36.1973 31.0137 35.7432 31.2246 35.3916C31.4414 35.0342 31.7314 34.75 32.0947 34.5391C32.458 34.3281 32.8623 34.1699 33.3076 34.0645C33.7529 33.959 34.21 33.877 34.6787 33.8184C35.2705 33.7539 35.748 33.6982 36.1113 33.6514C36.4746 33.6045 36.7383 33.5312 36.9023 33.4316C37.0723 33.3262 37.1572 33.1592 37.1572 32.9307V32.8867C37.1572 32.3301 36.999 31.8994 36.6826 31.5947C36.3721 31.29 35.9092 31.1377 35.2939 31.1377C34.6553 31.1377 34.1484 31.2783 33.7734 31.5596C33.4043 31.835 33.1494 32.1484 33.0088 32.5L31.207 32.0869C31.4238 31.4893 31.7373 31.0088 32.1475 30.6455C32.5635 30.2764 33.0381 30.0068 33.5713 29.8369C34.1104 29.667 34.6729 29.582 35.2588 29.582C35.6514 29.582 36.0674 29.6289 36.5068 29.7227C36.9463 29.8105 37.3594 29.9775 37.7461 30.2236C38.1387 30.4639 38.458 30.8096 38.7041 31.2607C38.9502 31.7119 39.0732 32.2949 39.0732 33.0098V39.5312H37.2012V38.1865H37.1309C37.0137 38.4268 36.8291 38.667 36.5771 38.9072C36.3311 39.1475 36.0146 39.3467 35.6279 39.5049C35.2412 39.6631 34.7754 39.7422 34.2305 39.7422ZM34.6436 38.2129C35.1768 38.2129 35.6309 38.1104 36.0059 37.9053C36.3809 37.6943 36.668 37.4189 36.8672 37.0791C37.0664 36.7393 37.166 36.3789 37.166 35.998V34.7236C37.0957 34.7881 36.9639 34.8496 36.7705 34.9082C36.5771 34.9668 36.3574 35.0166 36.1113 35.0576C35.8652 35.0986 35.625 35.1367 35.3906 35.1719C35.1562 35.2012 34.96 35.2246 34.8018 35.2422C34.4326 35.2949 34.0957 35.377 33.791 35.4883C33.4863 35.5938 33.2402 35.752 33.0527 35.9629C32.8711 36.168 32.7803 36.4404 32.7803 36.7803C32.7803 37.2549 32.9561 37.6123 33.3076 37.8525C33.6592 38.0928 34.1045 38.2129 34.6436 38.2129ZM42.8086 26.4355V39.5312H40.9102V26.4355H42.8086ZM48.8643 39.7334C47.9033 39.7334 47.0713 39.5254 46.3682 39.1094C45.665 38.6934 45.123 38.1074 44.7422 37.3516C44.3672 36.5898 44.1797 35.7021 44.1797 34.6885C44.1797 33.6807 44.3643 32.793 44.7334 32.0254C45.1084 31.2578 45.6328 30.6602 46.3066 30.2324C46.9863 29.7988 47.7832 29.582 48.6973 29.582C49.2539 29.582 49.793 29.6729 50.3145 29.8545C50.8359 30.0361 51.3047 30.3232 51.7207 30.7158C52.1367 31.1084 52.4648 31.6182 52.7051 32.2451C52.9512 32.8721 53.0742 33.6279 53.0742 34.5127V35.1982H45.2607V33.7656H52.0898L51.2021 34.2402C51.2021 33.6367 51.1084 33.1035 50.9209 32.6406C50.7334 32.1777 50.4521 31.8174 50.0771 31.5596C49.708 31.2959 49.248 31.1641 48.6973 31.1641C48.1465 31.1641 47.6748 31.2959 47.2822 31.5596C46.8955 31.8232 46.5996 32.1719 46.3945 32.6055C46.1895 33.0391 46.0869 33.5137 46.0869 34.0293V35.0049C46.0869 35.6787 46.2041 36.25 46.4385 36.7188C46.6729 37.1875 46.998 37.5449 47.4141 37.791C47.8359 38.0371 48.3252 38.1602 48.8818 38.1602C49.2451 38.1602 49.5732 38.1074 49.8662 38.002C50.165 37.8965 50.4229 37.7383 50.6396 37.5273C50.8564 37.3164 51.0205 37.0557 51.1318 36.7451L52.9424 37.0879C52.7959 37.6152 52.5381 38.0781 52.1689 38.4766C51.7998 38.875 51.334 39.1855 50.7715 39.4082C50.2148 39.625 49.5791 39.7334 48.8643 39.7334ZM61.7578 32.1133L60.0264 32.4121C59.915 32.084 59.707 31.7822 59.4023 31.5068C59.1035 31.2314 58.6553 31.0938 58.0576 31.0938C57.5186 31.0938 57.0674 31.2168 56.7041 31.4629C56.3467 31.7031 56.168 32.0107 56.168 32.3857C56.168 32.7139 56.2881 32.9805 56.5283 33.1855C56.7744 33.3906 57.1641 33.5547 57.6973 33.6777L59.2705 34.0293C60.167 34.2344 60.8379 34.5566 61.2832 34.9961C61.7285 35.4355 61.9512 35.998 61.9512 36.6836C61.9512 37.2754 61.7812 37.8027 61.4414 38.2656C61.1016 38.7227 60.6299 39.083 60.0264 39.3467C59.4229 39.6045 58.7256 39.7334 57.9346 39.7334C56.833 39.7334 55.9365 39.4961 55.2451 39.0215C54.5537 38.5469 54.1289 37.8789 53.9707 37.0176L55.8076 36.7363C55.9248 37.2168 56.1621 37.5801 56.5195 37.8262C56.8828 38.0723 57.3516 38.1953 57.9258 38.1953C58.5469 38.1953 59.0449 38.0635 59.4199 37.7998C59.8008 37.5361 59.9912 37.2168 59.9912 36.8418C59.9912 36.2207 59.5283 35.8018 58.6025 35.585L56.9414 35.2158C56.0215 35.0049 55.3418 34.6738 54.9023 34.2227C54.4688 33.7656 54.252 33.1914 54.252 32.5C54.252 31.9199 54.4131 31.4102 54.7354 30.9707C55.0635 30.5312 55.5117 30.1914 56.0801 29.9512C56.6543 29.7051 57.3076 29.582 58.04 29.582C59.1064 29.582 59.9414 29.8135 60.5449 30.2764C61.1543 30.7393 61.5586 31.3516 61.7578 32.1133ZM71.8652 29.7051V31.2432H66.5039V29.7051H71.8652ZM67.9365 27.3672H69.8438V36.6484C69.8438 37.0996 69.9375 37.4307 70.125 37.6416C70.3125 37.8467 70.6143 37.9492 71.0303 37.9492C71.1299 37.9492 71.2354 37.9434 71.3467 37.9316C71.4639 37.9199 71.5811 37.9023 71.6982 37.8789L72.0586 39.4609C71.8652 39.5254 71.6543 39.5752 71.4258 39.6104C71.1973 39.6455 70.9688 39.6631 70.7402 39.6631C69.8906 39.6631 69.2109 39.4258 68.7012 38.9512C68.1914 38.4707 67.9365 37.832 67.9365 37.0352V27.3672ZM77.2529 39.7334C76.333 39.7334 75.5273 39.5225 74.8359 39.1006C74.1504 38.6787 73.6172 38.0869 73.2363 37.3252C72.8613 36.5635 72.6738 35.6787 72.6738 34.6709C72.6738 33.6514 72.8613 32.7607 73.2363 31.999C73.6172 31.2314 74.1504 30.6367 74.8359 30.2148C75.5273 29.793 76.333 29.582 77.2529 29.582C78.1787 29.582 78.9844 29.793 79.6699 30.2148C80.3555 30.6367 80.8887 31.2314 81.2695 31.999C81.6504 32.7607 81.8408 33.6514 81.8408 34.6709C81.8408 35.6787 81.6504 36.5635 81.2695 37.3252C80.8887 38.0869 80.3555 38.6787 79.6699 39.1006C78.9844 39.5225 78.1787 39.7334 77.2529 39.7334ZM77.2529 38.125C77.8564 38.125 78.3545 37.9668 78.7471 37.6504C79.1396 37.334 79.4297 36.915 79.6172 36.3936C79.8105 35.8662 79.9072 35.292 79.9072 34.6709C79.9072 34.0381 79.8105 33.458 79.6172 32.9307C79.4297 32.4033 79.1396 31.9814 78.7471 31.665C78.3545 31.3486 77.8564 31.1904 77.2529 31.1904C76.6553 31.1904 76.1602 31.3486 75.7676 31.665C75.3809 31.9814 75.0908 32.4033 74.8975 32.9307C74.7041 33.458 74.6074 34.0381 74.6074 34.6709C74.6074 35.292 74.7041 35.8662 74.8975 36.3936C75.0908 36.915 75.3809 37.334 75.7676 37.6504C76.1602 37.9668 76.6553 38.125 77.2529 38.125ZM87.791 29.7051V31.2432H82.4297V29.7051H87.791ZM83.8623 27.3672H85.7695V36.6484C85.7695 37.0996 85.8633 37.4307 86.0508 37.6416C86.2383 37.8467 86.54 37.9492 86.9561 37.9492C87.0557 37.9492 87.1611 37.9434 87.2725 37.9316C87.3896 37.9199 87.5068 37.9023 87.624 37.8789L87.9844 39.4609C87.791 39.5254 87.5801 39.5752 87.3516 39.6104C87.123 39.6455 86.8945 39.6631 86.666 39.6631C85.8164 39.6631 85.1367 39.4258 84.627 38.9512C84.1172 38.4707 83.8623 37.832 83.8623 37.0352V27.3672ZM92.0098 39.7422C91.3887 39.7422 90.8262 39.6279 90.3223 39.3994C89.8184 39.165 89.4199 38.8252 89.127 38.3799C88.834 37.9346 88.6875 37.3926 88.6875 36.7539C88.6875 36.1973 88.793 35.7432 89.0039 35.3916C89.2207 35.0342 89.5107 34.75 89.874 34.5391C90.2373 34.3281 90.6416 34.1699 91.0869 34.0645C91.5322 33.959 91.9893 33.877 92.458 33.8184C93.0498 33.7539 93.5273 33.6982 93.8906 33.6514C94.2539 33.6045 94.5176 33.5312 94.6816 33.4316C94.8516 33.3262 94.9365 33.1592 94.9365 32.9307V32.8867C94.9365 32.3301 94.7783 31.8994 94.4619 31.5947C94.1514 31.29 93.6885 31.1377 93.0732 31.1377C92.4346 31.1377 91.9277 31.2783 91.5527 31.5596C91.1836 31.835 90.9287 32.1484 90.7881 32.5L88.9863 32.0869C89.2031 31.4893 89.5166 31.0088 89.9268 30.6455C90.3428 30.2764 90.8174 30.0068 91.3506 29.8369C91.8896 29.667 92.4521 29.582 93.0381 29.582C93.4307 29.582 93.8467 29.6289 94.2861 29.7227C94.7256 29.8105 95.1387 29.9775 95.5254 30.2236C95.918 30.4639 96.2373 30.8096 96.4834 31.2607C96.7295 31.7119 96.8525 32.2949 96.8525 33.0098V39.5312H94.9805V38.1865H94.9102C94.793 38.4268 94.6084 38.667 94.3564 38.9072C94.1104 39.1475 93.7939 39.3467 93.4072 39.5049C93.0205 39.6631 92.5547 39.7422 92.0098 39.7422ZM92.4229 38.2129C92.9561 38.2129 93.4102 38.1104 93.7852 37.9053C94.1602 37.6943 94.4473 37.4189 94.6465 37.0791C94.8457 36.7393 94.9453 36.3789 94.9453 35.998V34.7236C94.875 34.7881 94.7432 34.8496 94.5498 34.9082C94.3564 34.9668 94.1367 35.0166 93.8906 35.0576C93.6445 35.0986 93.4043 35.1367 93.1699 35.1719C92.9355 35.2012 92.7393 35.2246 92.5811 35.2422C92.2119 35.2949 91.875 35.377 91.5703 35.4883C91.2656 35.5938 91.0195 35.752 90.832 35.9629C90.6504 36.168 90.5596 36.4404 90.5596 36.7803C90.5596 37.2549 90.7354 37.6123 91.0869 37.8525C91.4385 38.0928 91.8838 38.2129 92.4229 38.2129ZM100.588 26.4355V39.5312H98.6895V26.4355H100.588Z" fill="black"></path><path d="M22.8652 68.5234V55.7949H23.6719V68.5234H22.8652ZM23.2617 67.4297C22.5326 67.4297 21.9014 67.3135 21.3682 67.0811C20.835 66.8441 20.4157 66.516 20.1104 66.0967C19.8096 65.6729 19.6387 65.1829 19.5977 64.627H20.8691C20.9056 65.0098 21.0355 65.3265 21.2588 65.5771C21.4867 65.8278 21.776 66.0146 22.127 66.1377C22.4779 66.2607 22.8561 66.3223 23.2617 66.3223C23.7311 66.3223 24.1527 66.2448 24.5264 66.0898C24.9046 65.9349 25.2031 65.7184 25.4219 65.4404C25.6406 65.1624 25.75 64.8366 25.75 64.4629C25.75 64.1257 25.6543 63.8522 25.4629 63.6426C25.2715 63.4329 25.0208 63.262 24.7109 63.1299C24.4056 62.9977 24.0729 62.8815 23.7129 62.7812L22.4688 62.4258C21.6712 62.1979 21.04 61.8721 20.5752 61.4482C20.1149 61.0199 19.8848 60.4616 19.8848 59.7734C19.8848 59.2038 20.0374 58.707 20.3428 58.2832C20.6527 57.8548 21.0697 57.5221 21.5938 57.2852C22.1224 57.0482 22.7103 56.9297 23.3574 56.9297C24.0137 56.9297 24.597 57.0482 25.1074 57.2852C25.6178 57.5176 26.0234 57.8366 26.3242 58.2422C26.625 58.6432 26.7845 59.099 26.8027 59.6094H25.5996C25.5404 59.1081 25.2988 58.7184 24.875 58.4404C24.4557 58.1624 23.9362 58.0234 23.3164 58.0234C22.8698 58.0234 22.4779 58.0964 22.1406 58.2422C21.8034 58.388 21.5413 58.5885 21.3545 58.8438C21.1676 59.099 21.0742 59.3906 21.0742 59.7188C21.0742 60.0788 21.1859 60.3704 21.4092 60.5938C21.6325 60.8125 21.8968 60.9834 22.2021 61.1064C22.512 61.2295 22.7923 61.3275 23.043 61.4004L24.0684 61.6875C24.3327 61.7604 24.6266 61.8584 24.9502 61.9814C25.2783 62.1045 25.5928 62.2708 25.8936 62.4805C26.1989 62.6901 26.4495 62.959 26.6455 63.2871C26.8415 63.6107 26.9395 64.0117 26.9395 64.4902C26.9395 65.0371 26.7959 65.5339 26.5088 65.9805C26.2217 66.4225 25.8047 66.7757 25.2578 67.04C24.7109 67.2998 24.0456 67.4297 23.2617 67.4297ZM31.3145 67.3887C30.7311 67.3887 30.2048 67.2747 29.7354 67.0469C29.2705 66.8145 28.8968 66.4954 28.6143 66.0898C28.3317 65.6842 28.179 65.224 28.1562 64.709H29.3457C29.3913 65.1647 29.5986 65.543 29.9678 65.8438C30.3415 66.1445 30.7904 66.2949 31.3145 66.2949C31.7337 66.2949 32.1051 66.1969 32.4287 66.001C32.7523 65.805 33.0075 65.5361 33.1943 65.1943C33.3812 64.8525 33.4746 64.4629 33.4746 64.0254C33.4746 63.5833 33.3766 63.1868 33.1807 62.8359C32.9893 62.485 32.7249 62.2093 32.3877 62.0088C32.0505 61.8037 31.6654 61.7012 31.2324 61.7012C30.918 61.7012 30.5967 61.7513 30.2686 61.8516C29.945 61.9473 29.6784 62.0703 29.4688 62.2207L28.3066 62.084L28.9219 57.0664H34.2129V58.1602H29.9609L29.6055 61.168H29.6602C29.8698 60.9993 30.1318 60.8626 30.4463 60.7578C30.7607 60.6484 31.0911 60.5938 31.4375 60.5938C32.0618 60.5938 32.6178 60.7419 33.1055 61.0381C33.5931 61.3343 33.9759 61.7399 34.2539 62.2549C34.5365 62.7653 34.6777 63.3509 34.6777 64.0117C34.6777 64.6589 34.5319 65.2376 34.2402 65.748C33.9486 66.2585 33.5498 66.6595 33.0439 66.9512C32.5381 67.2428 31.9616 67.3887 31.3145 67.3887ZM35.9082 67.252V66.3633L39.2715 62.6719C39.6634 62.2435 39.9847 61.8698 40.2354 61.5508C40.4906 61.2318 40.6797 60.931 40.8027 60.6484C40.9303 60.3659 40.9941 60.0697 40.9941 59.7598C40.9941 59.3997 40.9076 59.0898 40.7344 58.8301C40.5658 58.5658 40.3356 58.363 40.0439 58.2217C39.7523 58.0804 39.4219 58.0098 39.0527 58.0098C38.6608 58.0098 38.319 58.0895 38.0273 58.249C37.7402 58.4085 37.5169 58.6341 37.3574 58.9258C37.2025 59.2129 37.125 59.5501 37.125 59.9375H35.9492C35.9492 59.3405 36.0859 58.8164 36.3594 58.3652C36.6374 57.9141 37.0133 57.5632 37.4873 57.3125C37.9658 57.0573 38.5013 56.9297 39.0938 56.9297C39.6908 56.9297 40.2194 57.0573 40.6797 57.3125C41.14 57.5632 41.5 57.9027 41.7598 58.3311C42.0241 58.7549 42.1562 59.2311 42.1562 59.7598C42.1562 60.1335 42.0879 60.498 41.9512 60.8535C41.819 61.2044 41.5866 61.5986 41.2539 62.0361C40.9258 62.4736 40.4701 63.0046 39.8867 63.6289L37.6035 66.0762V66.1582H42.334V67.252H35.9082ZM47.1738 67.3887C46.513 67.3887 45.9274 67.277 45.417 67.0537C44.9066 66.8304 44.501 66.5182 44.2002 66.1172C43.8994 65.7116 43.7376 65.2422 43.7148 64.709H44.959C44.9863 65.0371 45.098 65.3197 45.2939 65.5566C45.4945 65.7936 45.7542 65.9759 46.0732 66.1035C46.3968 66.2311 46.7546 66.2949 47.1465 66.2949C47.584 66.2949 47.9714 66.2197 48.3086 66.0693C48.6504 65.9144 48.917 65.7025 49.1084 65.4336C49.3044 65.1602 49.4023 64.8457 49.4023 64.4902C49.4023 64.112 49.3089 63.7793 49.1221 63.4922C48.9352 63.2051 48.6618 62.9818 48.3018 62.8223C47.9463 62.6582 47.5111 62.5762 46.9961 62.5762H46.1758V61.4824H46.9961C47.3971 61.4824 47.7503 61.4095 48.0557 61.2637C48.361 61.1178 48.6003 60.9128 48.7734 60.6484C48.9466 60.3841 49.0332 60.0742 49.0332 59.7188C49.0332 59.3724 48.958 59.0716 48.8076 58.8164C48.6572 58.5612 48.443 58.363 48.165 58.2217C47.8916 58.0804 47.5658 58.0098 47.1875 58.0098C46.8366 58.0098 46.5062 58.0736 46.1963 58.2012C45.8864 58.3288 45.6335 58.5111 45.4375 58.748C45.2415 58.985 45.1367 59.2721 45.123 59.6094H43.9336C43.9518 59.0762 44.1113 58.609 44.4121 58.208C44.7129 57.807 45.1071 57.4948 45.5947 57.2715C46.0869 57.0436 46.627 56.9297 47.2148 56.9297C47.8438 56.9297 48.3838 57.0573 48.835 57.3125C49.2861 57.5632 49.6325 57.8958 49.874 58.3105C50.1156 58.7253 50.2363 59.1719 50.2363 59.6504C50.2363 60.2292 50.0859 60.7191 49.7852 61.1201C49.4889 61.5212 49.0833 61.8014 48.5684 61.9609V62.043C49.2064 62.1478 49.7054 62.4212 50.0654 62.8633C50.4255 63.3008 50.6055 63.8431 50.6055 64.4902C50.6055 65.0417 50.4551 65.5361 50.1543 65.9736C49.8581 66.4111 49.4502 66.7575 48.9307 67.0127C48.4157 67.2633 47.8301 67.3887 47.1738 67.3887ZM55.3086 67.3887C54.5612 67.3887 53.9232 67.1836 53.3945 66.7734C52.8659 66.3633 52.4626 65.7708 52.1846 64.9961C51.9066 64.2168 51.7676 63.2734 51.7676 62.166C51.7676 61.0632 51.9066 60.1221 52.1846 59.3428C52.4671 58.5589 52.8727 57.9619 53.4014 57.5518C53.93 57.137 54.5658 56.9297 55.3086 56.9297C56.0514 56.9297 56.6872 57.137 57.2158 57.5518C57.7445 57.9619 58.1478 58.5589 58.4258 59.3428C58.7083 60.1221 58.8496 61.0632 58.8496 62.166C58.8496 63.2734 58.7106 64.2168 58.4326 64.9961C58.1546 65.7708 57.7513 66.3633 57.2227 66.7734C56.6986 67.1836 56.0605 67.3887 55.3086 67.3887ZM55.3086 66.3086C55.8145 66.3086 56.2428 66.1468 56.5938 65.8232C56.9447 65.4951 57.2113 65.0212 57.3936 64.4014C57.5804 63.7816 57.6738 63.0365 57.6738 62.166C57.6738 61.291 57.5804 60.5436 57.3936 59.9238C57.2113 59.304 56.9447 58.8301 56.5938 58.502C56.2428 58.1738 55.8145 58.0098 55.3086 58.0098C54.5521 58.0098 53.9688 58.3743 53.5586 59.1035C53.1484 59.8327 52.9434 60.8535 52.9434 62.166C52.9434 63.0365 53.0345 63.7816 53.2168 64.4014C53.4036 65.0212 53.6725 65.4951 54.0234 65.8232C54.3789 66.1468 54.8073 66.3086 55.3086 66.3086Z" fill="black"></path><path d="M214.473 36.1641V35.4023L217.355 32.2383C217.691 31.8711 217.967 31.5508 218.182 31.2773C218.4 31.0039 218.562 30.7461 218.668 30.5039C218.777 30.2617 218.832 30.0078 218.832 29.7422C218.832 29.4336 218.758 29.168 218.609 28.9453C218.465 28.7188 218.268 28.5449 218.018 28.4238C217.768 28.3027 217.484 28.2422 217.168 28.2422C216.832 28.2422 216.539 28.3105 216.289 28.4473C216.043 28.584 215.852 28.7773 215.715 29.0273C215.582 29.2734 215.516 29.5625 215.516 29.8945H214.508C214.508 29.3828 214.625 28.9336 214.859 28.5469C215.098 28.1602 215.42 27.8594 215.826 27.6445C216.236 27.4258 216.695 27.3164 217.203 27.3164C217.715 27.3164 218.168 27.4258 218.562 27.6445C218.957 27.8594 219.266 28.1504 219.488 28.5176C219.715 28.8809 219.828 29.2891 219.828 29.7422C219.828 30.0625 219.77 30.375 219.652 30.6797C219.539 30.9805 219.34 31.3184 219.055 31.6934C218.773 32.0684 218.383 32.5234 217.883 33.0586L215.926 35.1562V35.2266H219.98V36.1641H214.473ZM224.023 36.2812C223.383 36.2812 222.836 36.1055 222.383 35.7539C221.93 35.4023 221.584 34.8945 221.346 34.2305C221.107 33.5625 220.988 32.7539 220.988 31.8047C220.988 30.8594 221.107 30.0527 221.346 29.3848C221.588 28.7129 221.936 28.2012 222.389 27.8496C222.842 27.4941 223.387 27.3164 224.023 27.3164C224.66 27.3164 225.205 27.4941 225.658 27.8496C226.111 28.2012 226.457 28.7129 226.695 29.3848C226.938 30.0527 227.059 30.8594 227.059 31.8047C227.059 32.7539 226.939 33.5625 226.701 34.2305C226.463 34.8945 226.117 35.4023 225.664 35.7539C225.215 36.1055 224.668 36.2812 224.023 36.2812ZM224.023 35.3555C224.457 35.3555 224.824 35.2168 225.125 34.9395C225.426 34.6582 225.654 34.252 225.811 33.7207C225.971 33.1895 226.051 32.5508 226.051 31.8047C226.051 31.0547 225.971 30.4141 225.811 29.8828C225.654 29.3516 225.426 28.9453 225.125 28.6641C224.824 28.3828 224.457 28.2422 224.023 28.2422C223.375 28.2422 222.875 28.5547 222.523 29.1797C222.172 29.8047 221.996 30.6797 221.996 31.8047C221.996 32.5508 222.074 33.1895 222.23 33.7207C222.391 34.252 222.621 34.6582 222.922 34.9395C223.227 35.2168 223.594 35.3555 224.023 35.3555ZM232.566 34.5234V34.0664C232.566 33.7461 232.631 33.4531 232.76 33.1875C232.893 32.9219 233.086 32.709 233.34 32.5488C233.594 32.3887 233.902 32.3086 234.266 32.3086C234.637 32.3086 234.947 32.3887 235.197 32.5488C235.447 32.709 235.635 32.9219 235.76 33.1875C235.889 33.4531 235.953 33.7461 235.953 34.0664V34.5234C235.953 34.8438 235.889 35.1367 235.76 35.4023C235.631 35.668 235.441 35.8809 235.191 36.041C234.941 36.2012 234.633 36.2812 234.266 36.2812C233.898 36.2812 233.588 36.2012 233.334 36.041C233.08 35.8809 232.889 35.668 232.76 35.4023C232.631 35.1367 232.566 34.8438 232.566 34.5234ZM233.434 34.0664V34.5234C233.434 34.7891 233.496 35.0273 233.621 35.2383C233.746 35.4453 233.961 35.5508 234.266 35.5547C234.566 35.5508 234.777 35.4453 234.898 35.2383C235.023 35.0273 235.086 34.7891 235.086 34.5234V34.0664C235.086 33.8008 235.025 33.5645 234.904 33.3574C234.787 33.1504 234.574 33.0469 234.266 33.0469C233.969 33.0469 233.756 33.1504 233.627 33.3574C233.498 33.5645 233.434 33.8008 233.434 34.0664ZM228.219 29.5312V29.0742C228.219 28.7539 228.285 28.4609 228.418 28.1953C228.551 27.9297 228.742 27.7168 228.992 27.5566C229.246 27.3965 229.555 27.3164 229.918 27.3164C230.289 27.3164 230.6 27.3965 230.85 27.5566C231.104 27.7168 231.293 27.9297 231.418 28.1953C231.547 28.4609 231.609 28.7539 231.605 29.0742V29.5312C231.609 29.8477 231.545 30.1406 231.412 30.4102C231.283 30.6758 231.094 30.8887 230.844 31.0488C230.594 31.209 230.285 31.2891 229.918 31.2891C229.551 31.2891 229.24 31.209 228.986 31.0488C228.732 30.8887 228.541 30.6758 228.412 30.4102C228.283 30.1406 228.219 29.8477 228.219 29.5312ZM229.086 29.0742V29.5312C229.086 29.7969 229.148 30.0352 229.273 30.2461C229.398 30.4531 229.613 30.5547 229.918 30.5508C230.219 30.5547 230.43 30.4531 230.551 30.2461C230.676 30.0352 230.738 29.7969 230.738 29.5312V29.0742C230.738 28.8086 230.678 28.5723 230.557 28.3652C230.439 28.1543 230.227 28.0508 229.918 28.0547C229.621 28.0508 229.408 28.1543 229.279 28.3652C229.15 28.5723 229.086 28.8086 229.086 29.0742ZM228.547 36.1641L234.547 27.4336H235.52L229.52 36.1641H228.547Z" fill="#1A1A1C" fill-opacity="0.6"></path><path d="M223.125 213.57L223.125 190.246C223.125 186.991 225.764 184.352 229.019 184.352C232.274 184.352 234.913 186.991 234.913 190.246L234.913 213.57L223.125 213.57Z" fill="url(#paint0_linear_603_29059)"></path><path d="M189.695 213.57L189.695 108.273C189.695 105.017 192.334 102.378 195.589 102.378C198.845 102.378 201.484 105.017 201.484 108.273L201.484 213.57L189.695 213.57Z" fill="url(#paint1_linear_603_29059)"></path><path d="M156.266 213.57L156.266 135.056C156.266 131.801 158.905 129.162 162.16 129.162C165.415 129.162 168.054 131.801 168.054 135.056L168.054 213.57L156.266 213.57Z" fill="url(#paint2_linear_603_29059)"></path><path d="M122.836 213.57L122.836 156.158C122.836 152.903 125.475 150.264 128.73 150.264C131.985 150.264 134.624 152.903 134.624 156.158L134.624 213.57L122.836 213.57Z" fill="url(#paint3_linear_603_29059)"></path><path d="M89.4062 213.57L89.4062 118.824C89.4062 115.568 92.0451 112.93 95.3004 112.93C98.5556 112.93 101.195 115.568 101.195 118.824L101.195 213.57L89.4062 213.57Z" fill="url(#paint4_linear_603_29059)"></path><path d="M55.9766 213.57L55.9766 168.332C55.9766 165.077 58.6155 162.438 61.8707 162.438C65.126 162.438 67.7649 165.077 67.7649 168.332L67.7649 213.57L55.9766 213.57Z" fill="url(#paint5_linear_603_29059)"></path><path d="M22.5469 213.57L22.5469 147.23C22.5469 143.975 25.1858 141.336 28.441 141.336C31.6963 141.336 34.3352 143.975 34.3352 147.23L34.3352 213.57L22.5469 213.57Z" fill="url(#paint6_linear_603_29059)"></path><path d="M27.6973 230.623C27.0723 230.623 26.5312 230.523 26.0742 230.324C25.6172 230.121 25.2578 229.84 24.9961 229.48C24.7383 229.117 24.5918 228.697 24.5566 228.221H25.6465C25.6777 228.549 25.7891 228.82 25.9805 229.035C26.1758 229.25 26.4238 229.41 26.7246 229.516C27.0254 229.621 27.3496 229.674 27.6973 229.674C28.0996 229.674 28.4609 229.607 28.7812 229.475C29.1055 229.342 29.3613 229.156 29.5488 228.918C29.7363 228.68 29.8301 228.4 29.8301 228.08C29.8301 227.791 29.748 227.557 29.584 227.377C29.4199 227.197 29.2051 227.051 28.9395 226.938C28.6777 226.824 28.3926 226.725 28.084 226.639L27.0176 226.334C26.334 226.139 25.793 225.859 25.3945 225.496C25 225.129 24.8027 224.65 24.8027 224.061C24.8027 223.572 24.9336 223.146 25.1953 222.783C25.4609 222.416 25.8184 222.131 26.2676 221.928C26.7207 221.725 27.2246 221.623 27.7793 221.623C28.3418 221.623 28.8418 221.725 29.2793 221.928C29.7168 222.127 30.0645 222.4 30.3223 222.748C30.5801 223.092 30.7168 223.482 30.7324 223.92H29.7012C29.6504 223.49 29.4434 223.156 29.0801 222.918C28.7207 222.68 28.2754 222.561 27.7441 222.561C27.3613 222.561 27.0254 222.623 26.7363 222.748C26.4473 222.873 26.2227 223.045 26.0625 223.264C25.9023 223.482 25.8223 223.732 25.8223 224.014C25.8223 224.322 25.918 224.572 26.1094 224.764C26.3008 224.951 26.5273 225.098 26.7891 225.203C27.0547 225.309 27.2949 225.393 27.5098 225.455L28.3887 225.701C28.6152 225.764 28.8672 225.848 29.1445 225.953C29.4258 226.059 29.6953 226.201 29.9531 226.381C30.2148 226.561 30.4297 226.791 30.5977 227.072C30.7656 227.35 30.8496 227.693 30.8496 228.104C30.8496 228.572 30.7266 228.998 30.4805 229.381C30.2344 229.76 29.877 230.062 29.4082 230.289C28.9395 230.512 28.3691 230.623 27.6973 230.623Z" fill="#1A1A1C" fill-opacity="0.6"></path><path d="M57.5996 221.738H58.8652L61.8301 228.98H61.9355L64.9004 221.738H66.207V230.469H65.1699V223.836H65.0879L62.3398 230.469H61.3906L58.6777 223.836H58.5957V230.469H57.5996V221.738Z" fill="#1A1A1C" fill-opacity="0.6"></path><path d="M91.0137 222.678V221.74H97.5645V222.678H94.8223V230.471H93.7676V222.678H91.0137Z" fill="#1A1A1C" fill-opacity="0.6"></path><path d="M124.98 230.469L122.602 221.738H123.668L125.496 228.852H125.578L127.441 221.738H128.637L130.488 228.852H130.582L132.398 221.738H133.477L131.086 230.469H129.996L128.074 223.52H128.004L126.082 230.469H124.98Z" fill="#1A1A1C" fill-opacity="0.6"></path><path d="M157.873 222.678V221.74H164.424V222.678H161.682V230.471H160.627V222.678H157.873Z" fill="#1A1A1C" fill-opacity="0.6"></path><path d="M192.885 230.469V221.738H198.123V222.676H193.939V225.723H197.725V226.66H193.939V230.469H192.885Z" fill="#1A1A1C" fill-opacity="0.6"></path><path d="M228.283 230.621C227.658 230.621 227.117 230.521 226.66 230.322C226.203 230.119 225.844 229.838 225.582 229.479C225.324 229.115 225.178 228.695 225.143 228.219H226.232C226.264 228.547 226.375 228.818 226.566 229.033C226.762 229.248 227.01 229.408 227.311 229.514C227.611 229.619 227.936 229.672 228.283 229.672C228.686 229.672 229.047 229.605 229.367 229.473C229.691 229.34 229.947 229.154 230.135 228.916C230.322 228.678 230.416 228.398 230.416 228.078C230.416 227.789 230.334 227.555 230.17 227.375C230.006 227.195 229.791 227.049 229.525 226.936C229.264 226.822 228.979 226.723 228.67 226.637L227.604 226.332C226.92 226.137 226.379 225.857 225.98 225.494C225.586 225.127 225.389 224.648 225.389 224.059C225.389 223.57 225.52 223.145 225.781 222.781C226.047 222.414 226.404 222.129 226.854 221.926C227.307 221.723 227.811 221.621 228.365 221.621C228.928 221.621 229.428 221.723 229.865 221.926C230.303 222.125 230.65 222.398 230.908 222.746C231.166 223.09 231.303 223.48 231.318 223.918H230.287C230.236 223.488 230.029 223.154 229.666 222.916C229.307 222.678 228.861 222.559 228.33 222.559C227.947 222.559 227.611 222.621 227.322 222.746C227.033 222.871 226.809 223.043 226.648 223.262C226.488 223.48 226.408 223.73 226.408 224.012C226.408 224.32 226.504 224.57 226.695 224.762C226.887 224.949 227.113 225.096 227.375 225.201C227.641 225.307 227.881 225.391 228.096 225.453L228.975 225.699C229.201 225.762 229.453 225.846 229.73 225.951C230.012 226.057 230.281 226.199 230.539 226.379C230.801 226.559 231.016 226.789 231.184 227.07C231.352 227.348 231.436 227.691 231.436 228.102C231.436 228.57 231.312 228.996 231.066 229.379C230.82 229.758 230.463 230.061 229.994 230.287C229.525 230.51 228.955 230.621 228.283 230.621Z" fill="#1A1A1C" fill-opacity="0.6"></path><defs><linearGradient id="paint0_linear_603_29059" x1="229.019" y1="185.975" x2="229.019" y2="213.57" gradientUnits="userSpaceOnUse"><stop stop-color="#864FFE"></stop><stop offset="1" stop-color="#864FFE" stop-opacity="0.28"></stop></linearGradient><linearGradient id="paint1_linear_603_29059" x1="195.589" y1="108.556" x2="195.589" y2="213.57" gradientUnits="userSpaceOnUse"><stop stop-color="#864FFE"></stop><stop offset="1" stop-color="#864FFE" stop-opacity="0.28"></stop></linearGradient><linearGradient id="paint2_linear_603_29059" x1="162.16" y1="133.851" x2="162.16" y2="213.57" gradientUnits="userSpaceOnUse"><stop stop-color="#864FFE"></stop><stop offset="1" stop-color="#864FFE" stop-opacity="0.28"></stop></linearGradient><linearGradient id="paint3_linear_603_29059" x1="128.73" y1="153.781" x2="128.73" y2="213.57" gradientUnits="userSpaceOnUse"><stop stop-color="#864FFE"></stop><stop offset="1" stop-color="#864FFE" stop-opacity="0.28"></stop></linearGradient><linearGradient id="paint4_linear_603_29059" x1="95.3002" y1="118.521" x2="95.3003" y2="213.57" gradientUnits="userSpaceOnUse"><stop stop-color="#864FFE"></stop><stop offset="1" stop-color="#864FFE" stop-opacity="0.28"></stop></linearGradient><linearGradient id="paint5_linear_603_29059" x1="61.8705" y1="165.279" x2="61.8706" y2="213.57" gradientUnits="userSpaceOnUse"><stop stop-color="#864FFE"></stop><stop offset="1" stop-color="#864FFE" stop-opacity="0.28"></stop></linearGradient><linearGradient id="paint6_linear_603_29059" x1="28.4409" y1="145.349" x2="28.4409" y2="213.57" gradientUnits="userSpaceOnUse"><stop stop-color="#864FFE"></stop><stop offset="1" stop-color="#864FFE" stop-opacity="0.28"></stop></linearGradient></defs></svg>