<svg xmlns="http://www.w3.org/2000/svg" width="270" height="125" viewBox="0 0 270 125" fill="none"><mask id="mask0_603_29085" style="mask-type:alpha" maskUnits="userSpaceOnUse" x="0" y="0" width="270" height="125"><rect y="0.0546875" width="270" height="124" rx="16" fill="white"></rect></mask><g mask="url(#mask0_603_29085)"><rect y="0.0546875" width="270" height="124" rx="16" fill="#FCFCFD"></rect><path d="M245.611 90.4776C250.999 96.6776 249.581 75.3172 256.955 88.8445C261.619 96.8711 283.898 122.483 283.898 131.765V211.217C283.898 220.054 276.735 227.217 267.898 227.217H-44.1247C-52.9612 227.217 -60.1246 220.054 -60.1246 211.217V98.3627C-60.1246 89.5261 -50.6678 84.2596 -45.8623 76.844C-42.659 71.9008 -42.9456 64.9941 -32.0469 62.0718C-14.1793 57.2809 -34.3158 53.8824 -25.2402 53.8824C4.53922 52.4734 0.285034 122.099 21.556 109.981C42.827 97.8626 36.0203 70.2278 45.6632 65.1551C55.306 60.0824 58.1422 90.4776 69.2031 90.4776C78.0518 90.4776 81.7766 81.0837 82.5329 76.3867C84.8018 68.7776 92.4594 67.6503 95.5791 76.3867C98.6989 85.1231 100.117 87.0958 111.745 88.5049C123.373 89.914 122.239 104.005 131.598 105.132C140.957 106.259 144.077 88.7867 151.167 85.9685C158.258 83.1504 153.72 90.4776 160.243 89.3504C166.766 88.2231 168.184 73.5685 175.274 71.5958C182.365 69.6231 186.335 95.2685 202.501 107.95C218.667 120.632 222.922 75.8231 227.459 69.9049C231.997 63.9867 240.222 84.2776 245.611 90.4776Z" fill="url(#paint0_linear_603_29085)"></path><path d="M245.611 90.4776C250.999 96.6776 249.581 75.3172 256.955 88.8445C261.619 96.8711 283.898 122.483 283.898 131.765V211.217C283.898 220.054 276.735 227.217 267.898 227.217H-44.1247C-52.9612 227.217 -60.1246 220.054 -60.1246 211.217V98.3627C-60.1246 89.5261 -50.6678 84.2596 -45.8623 76.844C-42.659 71.9008 -42.9456 64.9941 -32.0469 62.0718C-14.1793 57.2809 -34.3158 53.8824 -25.2402 53.8824C4.53922 52.4734 0.285034 122.099 21.556 109.981C42.827 97.8626 36.0203 70.2278 45.6632 65.1551C55.306 60.0824 58.1422 90.4776 69.2031 90.4776C78.0518 90.4776 81.7766 81.0837 82.5329 76.3867C84.8018 68.7776 92.4594 67.6503 95.5791 76.3867C98.6989 85.1231 100.117 87.0958 111.745 88.5049C123.373 89.914 122.239 104.005 131.598 105.132C140.957 106.259 144.077 88.7867 151.167 85.9685C158.258 83.1504 153.72 90.4776 160.243 89.3504C166.766 88.2231 168.184 73.5685 175.274 71.5958C182.365 69.6231 186.335 95.2685 202.501 107.95C218.667 120.632 222.922 75.8231 227.459 69.9049C231.997 63.9867 240.222 84.2776 245.611 90.4776Z" stroke="#864FFE" stroke-width="1.13636"></path><path d="M148.977 50.6218C148.977 43.24 154.961 37.2559 162.342 37.2559H190.518C197.9 37.2559 203.884 43.24 203.884 50.6218C203.884 58.0035 197.9 63.9877 190.518 63.9877H182.258C181.126 63.9877 180.055 64.5004 179.344 65.3822C177.847 67.2416 175.014 67.2416 173.516 65.3822C172.806 64.5004 171.735 63.9877 170.602 63.9877H162.342C154.961 63.9877 148.977 58.0035 148.977 50.6218Z" fill="#1A1A1C"></path><path d="M158.514 56.3066V45.3965H159.205V56.3066H158.514ZM158.853 55.3691C158.228 55.3691 157.687 55.2695 157.23 55.0703C156.773 54.8672 156.414 54.5859 156.152 54.2266C155.894 53.8633 155.748 53.4434 155.713 52.9668H156.803C156.834 53.2949 156.945 53.5664 157.137 53.7812C157.332 53.9961 157.58 54.1562 157.881 54.2617C158.182 54.3672 158.506 54.4199 158.853 54.4199C159.256 54.4199 159.617 54.3535 159.937 54.2207C160.262 54.0879 160.517 53.9023 160.705 53.6641C160.892 53.4258 160.986 53.1465 160.986 52.8262C160.986 52.5371 160.904 52.3027 160.74 52.123C160.576 51.9434 160.361 51.7969 160.096 51.6836C159.834 51.5703 159.549 51.4707 159.24 51.3848L158.174 51.0801C157.49 50.8848 156.949 50.6055 156.551 50.2422C156.156 49.875 155.959 49.3965 155.959 48.8066C155.959 48.3184 156.09 47.8926 156.351 47.5293C156.617 47.1621 156.974 46.877 157.424 46.6738C157.877 46.4707 158.381 46.3691 158.935 46.3691C159.498 46.3691 159.998 46.4707 160.435 46.6738C160.873 46.873 161.221 47.1465 161.478 47.4941C161.736 47.8379 161.873 48.2285 161.889 48.666H160.857C160.807 48.2363 160.599 47.9023 160.236 47.6641C159.877 47.4258 159.432 47.3066 158.9 47.3066C158.517 47.3066 158.182 47.3691 157.892 47.4941C157.603 47.6191 157.379 47.791 157.219 48.0098C157.058 48.2285 156.978 48.4785 156.978 48.7598C156.978 49.0684 157.074 49.3184 157.265 49.5098C157.457 49.6973 157.683 49.8438 157.945 49.9492C158.211 50.0547 158.451 50.1387 158.666 50.2012L159.545 50.4473C159.771 50.5098 160.023 50.5938 160.301 50.6992C160.582 50.8047 160.851 50.9473 161.109 51.127C161.371 51.3066 161.586 51.5371 161.754 51.8184C161.922 52.0957 162.006 52.4395 162.006 52.8496C162.006 53.3184 161.883 53.7441 161.637 54.127C161.39 54.5059 161.033 54.8086 160.564 55.0352C160.096 55.2578 159.525 55.3691 158.853 55.3691ZM165.896 46.4863V55.2168H164.865V47.5996H164.807L162.685 49.0176V47.9395L164.865 46.4863H165.896ZM170.139 55.334C169.498 55.334 168.951 55.1582 168.498 54.8066C168.045 54.4551 167.699 53.9473 167.461 53.2832C167.223 52.6152 167.103 51.8066 167.103 50.8574C167.103 49.9121 167.223 49.1055 167.461 48.4375C167.703 47.7656 168.051 47.2539 168.504 46.9023C168.957 46.5469 169.502 46.3691 170.139 46.3691C170.775 46.3691 171.32 46.5469 171.773 46.9023C172.226 47.2539 172.572 47.7656 172.81 48.4375C173.053 49.1055 173.174 49.9121 173.174 50.8574C173.174 51.8066 173.055 52.6152 172.816 53.2832C172.578 53.9473 172.232 54.4551 171.779 54.8066C171.33 55.1582 170.783 55.334 170.139 55.334ZM170.139 54.4082C170.572 54.4082 170.939 54.2695 171.24 53.9922C171.541 53.7109 171.769 53.3047 171.926 52.7734C172.086 52.2422 172.166 51.6035 172.166 50.8574C172.166 50.1074 172.086 49.4668 171.926 48.9355C171.769 48.4043 171.541 47.998 171.24 47.7168C170.939 47.4355 170.572 47.2949 170.139 47.2949C169.49 47.2949 168.99 47.6074 168.639 48.2324C168.287 48.8574 168.111 49.7324 168.111 50.8574C168.111 51.6035 168.189 52.2422 168.346 52.7734C168.506 53.3047 168.736 53.7109 169.037 53.9922C169.342 54.2695 169.709 54.4082 170.139 54.4082ZM177.006 55.334C176.42 55.334 175.904 55.2305 175.459 55.0234C175.014 54.8125 174.666 54.5234 174.416 54.1562C174.166 53.7891 174.041 53.3691 174.041 52.8965C174.041 52.5293 174.113 52.1895 174.258 51.877C174.406 51.5605 174.607 51.2969 174.861 51.0859C175.119 50.875 175.408 50.7402 175.728 50.6816V50.6348C175.31 50.5254 174.976 50.2891 174.726 49.9258C174.48 49.5625 174.357 49.1504 174.357 48.6895C174.357 48.2441 174.471 47.8477 174.697 47.5C174.924 47.1484 175.236 46.873 175.635 46.6738C176.037 46.4707 176.494 46.3691 177.006 46.3691C177.51 46.3691 177.961 46.4707 178.359 46.6738C178.758 46.873 179.07 47.1484 179.297 47.5C179.527 47.8477 179.642 48.2441 179.642 48.6895C179.642 49.1504 179.517 49.5625 179.267 49.9258C179.017 50.2891 178.689 50.5254 178.283 50.6348V50.6816C178.596 50.7402 178.879 50.875 179.133 51.0859C179.39 51.2969 179.594 51.5605 179.742 51.877C179.894 52.1895 179.971 52.5293 179.971 52.8965C179.971 53.3691 179.844 53.7891 179.59 54.1562C179.34 54.5234 178.992 54.8125 178.547 55.0234C178.101 55.2305 177.588 55.334 177.006 55.334ZM177.006 54.3965C177.4 54.3965 177.74 54.334 178.025 54.209C178.314 54.0801 178.537 53.9004 178.693 53.6699C178.849 53.4355 178.928 53.1621 178.928 52.8496C178.928 52.5215 178.844 52.2305 178.676 51.9766C178.508 51.7227 178.279 51.5234 177.99 51.3789C177.701 51.2344 177.373 51.1621 177.006 51.1621C176.631 51.1621 176.297 51.2344 176.004 51.3789C175.715 51.5234 175.486 51.7227 175.318 51.9766C175.154 52.2305 175.072 52.5215 175.072 52.8496C175.072 53.1621 175.15 53.4355 175.307 53.6699C175.463 53.9004 175.685 54.0801 175.974 54.209C176.264 54.334 176.607 54.3965 177.006 54.3965ZM177.006 50.2598C177.318 50.2598 177.596 50.1973 177.838 50.0723C178.08 49.9473 178.271 49.7734 178.412 49.5508C178.553 49.3242 178.623 49.0605 178.623 48.7598C178.623 48.4629 178.555 48.2051 178.418 47.9863C178.281 47.7676 178.092 47.5977 177.849 47.4766C177.607 47.3555 177.326 47.2949 177.006 47.2949C176.678 47.2949 176.39 47.3555 176.144 47.4766C175.902 47.5977 175.713 47.7676 175.576 47.9863C175.443 48.2051 175.377 48.4629 175.377 48.7598C175.377 49.0605 175.445 49.3242 175.582 49.5508C175.723 49.7734 175.914 49.9473 176.156 50.0723C176.402 50.1973 176.685 50.2598 177.006 50.2598ZM181.558 55.2871C181.348 55.2871 181.166 55.2129 181.014 55.0645C180.865 54.9121 180.791 54.7305 180.791 54.5195C180.791 54.3086 180.865 54.1289 181.014 53.9805C181.166 53.8281 181.348 53.752 181.558 53.752C181.769 53.752 181.949 53.8281 182.098 53.9805C182.25 54.1289 182.326 54.3086 182.326 54.5195C182.326 54.7305 182.25 54.9121 182.098 55.0645C181.949 55.2129 181.769 55.2871 181.558 55.2871ZM186.146 55.334C185.506 55.334 184.959 55.1582 184.506 54.8066C184.053 54.4551 183.707 53.9473 183.469 53.2832C183.23 52.6152 183.111 51.8066 183.111 50.8574C183.111 49.9121 183.23 49.1055 183.469 48.4375C183.711 47.7656 184.058 47.2539 184.512 46.9023C184.965 46.5469 185.51 46.3691 186.146 46.3691C186.783 46.3691 187.328 46.5469 187.781 46.9023C188.234 47.2539 188.58 47.7656 188.818 48.4375C189.06 49.1055 189.182 49.9121 189.182 50.8574C189.182 51.8066 189.062 52.6152 188.824 53.2832C188.586 53.9473 188.24 54.4551 187.787 54.8066C187.338 55.1582 186.791 55.334 186.146 55.334ZM186.146 54.4082C186.58 54.4082 186.947 54.2695 187.248 53.9922C187.549 53.7109 187.777 53.3047 187.933 52.7734C188.094 52.2422 188.174 51.6035 188.174 50.8574C188.174 50.1074 188.094 49.4668 187.933 48.9355C187.777 48.4043 187.549 47.998 187.248 47.7168C186.947 47.4355 186.58 47.2949 186.146 47.2949C185.498 47.2949 184.998 47.6074 184.646 48.2324C184.295 48.8574 184.119 49.7324 184.119 50.8574C184.119 51.6035 184.197 52.2422 184.353 52.7734C184.514 53.3047 184.744 53.7109 185.045 53.9922C185.349 54.2695 185.717 54.4082 186.146 54.4082ZM193.084 55.334C192.443 55.334 191.896 55.1582 191.443 54.8066C190.99 54.4551 190.644 53.9473 190.406 53.2832C190.168 52.6152 190.049 51.8066 190.049 50.8574C190.049 49.9121 190.168 49.1055 190.406 48.4375C190.648 47.7656 190.996 47.2539 191.449 46.9023C191.902 46.5469 192.447 46.3691 193.084 46.3691C193.721 46.3691 194.265 46.5469 194.719 46.9023C195.172 47.2539 195.517 47.7656 195.756 48.4375C195.998 49.1055 196.119 49.9121 196.119 50.8574C196.119 51.8066 196 52.6152 195.762 53.2832C195.523 53.9473 195.178 54.4551 194.724 54.8066C194.275 55.1582 193.728 55.334 193.084 55.334ZM193.084 54.4082C193.517 54.4082 193.885 54.2695 194.185 53.9922C194.486 53.7109 194.715 53.3047 194.871 52.7734C195.031 52.2422 195.111 51.6035 195.111 50.8574C195.111 50.1074 195.031 49.4668 194.871 48.9355C194.715 48.4043 194.486 47.998 194.185 47.7168C193.885 47.4355 193.517 47.2949 193.084 47.2949C192.435 47.2949 191.935 47.6074 191.584 48.2324C191.232 48.8574 191.057 49.7324 191.057 50.8574C191.057 51.6035 191.135 52.2422 191.291 52.7734C191.451 53.3047 191.682 53.7109 191.982 53.9922C192.287 54.2695 192.654 54.4082 193.084 54.4082Z" fill="#FCFCFD"></path></g><defs><linearGradient id="paint0_linear_603_29085" x1="111.403" y1="37.2153" x2="111.403" y2="192.645" gradientUnits="userSpaceOnUse"><stop stop-color="#E9E3FF"></stop><stop offset="0.72165" stop-color="#E9E3FF" stop-opacity="0"></stop></linearGradient></defs></svg>