<svg width="165" height="43" viewBox="0 0 165 43" fill="none" xmlns="http://www.w3.org/2000/svg">
<path d="M59.3065 34.8082V22.7489H54.2567V20.9053H67.8942V22.7489H62.8444V34.8082H59.3039H59.3065Z" fill="white"/>
<path d="M71.5609 34.8082C70.2419 34.8082 69.6968 34.308 69.6968 33.079V22.6345C69.6968 21.4054 70.2419 20.9053 71.5609 20.9053H82.3701V22.7489H73.8647C73.4456 22.7489 73.2373 22.9404 73.2373 23.3262V26.5718H81.9304V28.301H73.2373V32.3899C73.2373 32.773 73.4456 32.9672 73.8647 32.9672H82.3701V34.8108H71.5609V34.8082Z" fill="white"/>
<path d="M97.5393 34.6542C88.4888 35.8833 84.1101 33.8854 84.1101 27.8757C84.1101 24.8615 85.1797 22.8077 87.3369 21.7516C89.4941 20.6954 92.8881 20.4454 97.5187 21.004V22.8663C89.6844 22.0203 87.5889 23.4223 87.5889 27.8783C87.5889 32.3344 89.9364 33.7151 97.5393 32.7946V34.6569V34.6542Z" fill="white"/>
<path d="M99.7374 34.8091V20.9088H103.298V26.4583H111.218V20.9088H114.779V34.8091H111.218V28.3391H103.298V34.8091H99.7374Z" fill="white"/>
<path d="M117.921 34.8091V20.9088H119.996C121.022 20.9088 121.819 21.2547 122.405 21.9277L130.723 31.4331V20.9115H132.924V34.8117H130.893C129.867 34.8117 129.07 34.4659 128.504 33.7928L120.125 24.1544V34.8117H117.924L117.921 34.8091Z" fill="white"/>
<path d="M134.302 34.8091L140.818 27.6474L134.868 20.9088H138.995L143.479 26.0353L147.837 20.9088H150.707L144.862 27.5144L151.336 34.8117H147.145L142.242 29.2064L137.257 34.8117H134.302V34.8091Z" fill="white"/>
<path d="M156.258 34.8082V22.7489H151.208V20.9053H164.845V22.7489H159.796V34.8082H156.255H156.258Z" fill="white"/>
<path d="M55.892 10.0667C55.7737 10.0055 55.6554 9.91505 55.568 9.79267C55.5089 9.6703 55.4806 9.51866 55.4806 9.39628C55.6863 9.33509 55.892 9.36702 56.0977 9.42555C56.3034 9.48407 56.4808 9.63837 56.5991 9.79001C56.5399 9.91239 56.4217 10.0028 56.2751 10.064C56.1568 10.1252 56.0103 10.1252 55.8637 10.064H55.892V10.0667ZM56.216 9.15153C55.9203 9.02916 55.5989 9.02916 55.3032 9.15153C55.3906 8.90678 55.5397 8.72588 55.7454 8.63277C55.9511 8.53965 56.1877 8.51039 56.3934 8.6035C56.5991 8.69395 56.7765 8.84825 56.8639 9.06108C56.9513 9.27391 56.9822 9.51866 56.8922 9.73148C56.7148 9.48673 56.4808 9.27391 56.1851 9.15153H56.2134H56.216ZM57.157 8.9387C57.0696 8.75514 56.9513 8.63277 56.8048 8.51305C56.6582 8.39333 56.4808 8.32949 56.3034 8.30022C56.126 8.27096 55.9511 8.30022 55.7737 8.32949C55.5963 8.39067 55.4497 8.48113 55.3032 8.63543C55.3906 8.4226 55.568 8.27096 55.7737 8.17785C55.9794 8.08474 56.1851 8.05547 56.4217 8.0874C56.6273 8.14858 56.833 8.27096 56.9822 8.4226C57.1287 8.60616 57.1879 8.81899 57.2187 9.06108C57.2187 9.03182 57.2187 8.99989 57.1904 8.97063L57.1621 8.94136L57.157 8.9387Z" fill="white"/>
<path fill-rule="evenodd" clip-rule="evenodd" d="M70.3501 16.8296C70.0852 16.8296 69.733 16.7685 69.4964 16.4333C69.2008 16.0369 69.1725 15.3372 69.4373 14.454L70.2318 11.8043C69.7021 12.3842 69.0233 12.6875 68.6711 12.6263C67.9049 12.5039 68.0232 11.6819 68.4345 11.3174C68.288 11.1658 68.1106 11.0434 67.9332 11.0434C67.3727 11.0434 66.843 11.8362 66.285 12.6582C66.2568 12.7194 66.1976 12.7806 66.1668 12.8418L66.1076 12.9934L64.9892 16.803H63.4568L65.3106 10.5273C64.4569 10.9237 63.7499 11.4717 63.2202 11.9905V12.3257C63.1919 12.5705 63.1328 12.8445 63.1019 13.0866C62.6006 15.5553 60.865 16.803 59.42 16.803C59.1552 16.803 58.8904 16.7419 58.6538 16.6514C58.1242 16.4386 57.7693 16.1034 57.5636 15.6165C57.3862 15.159 57.3579 14.6109 57.4454 14.0017V13.9113C56.386 14.8557 55.9129 15.8906 55.5607 16.8057H54L55.031 11.2296C54.7662 11.6872 54.3831 11.9905 54 12.2645V12.1741C54.6171 11.5648 55.0002 10.9237 55.2084 10.256L56.5917 10.9264L55.8564 15.0392C56.4169 14.4008 56.9157 14.0044 57.5354 13.5468C57.8876 12.3896 58.713 11.3228 59.744 10.7428C60.2737 10.4369 60.8933 10.256 61.423 10.256C61.9526 10.256 62.778 10.4076 63.1019 11.3839C63.8681 10.8652 64.5444 10.5912 65.3697 10.256L66.6939 10.8652L66.1925 12.6024C66.5165 12.0224 66.9587 11.352 67.9306 10.4688C68.1363 10.3464 68.342 10.2852 68.5194 10.2852C68.9308 10.2852 69.2548 10.6497 69.4913 11.3813C69.8435 11.4425 70.2267 11.3813 70.5815 10.5885L71.2885 8L72.6127 8.54803L72.0239 10.8333H73.0549L72.7901 11.352H71.9056L70.728 15.4037C70.6098 15.8001 70.6406 16.0422 70.7563 16.2258C70.8154 16.3162 70.9337 16.4093 71.1394 16.4093C71.6999 16.4093 72.5818 15.6777 73.0524 14.8557C73.0524 14.7945 73.0524 14.704 73.0806 14.6429C73.2272 13.8208 73.5512 12.6316 74.2891 11.6872C74.9653 10.804 75.8498 10.3464 76.9091 10.3172H80.0305L79.9431 10.6231C79.6474 11.6287 79.4134 12.4215 79.2077 13.1823V13.3047H79.1795C78.9738 14.0363 78.7681 14.7067 78.5624 15.4676C78.475 15.832 78.475 16.0768 78.5907 16.2284C78.6498 16.3189 78.7681 16.412 78.9738 16.412C79.5626 16.412 80.5628 15.5899 80.9459 14.7679H81.0924C80.4162 16.0768 79.1203 16.8403 78.2358 16.8403C77.3514 16.8403 77.647 16.7498 77.4696 16.5663C77.2639 16.3534 77.174 16.0475 77.174 15.6511V15.1643L76.8783 15.5607C76.2895 16.3827 75.4358 16.8696 74.6105 16.8696C74.1091 16.8696 73.6977 16.686 73.402 16.3508C73.1655 16.0449 73.0498 15.6511 73.0498 15.1616C72.7541 15.5873 72.4327 15.9544 72.0188 16.2284C71.4582 16.6248 70.8694 16.8669 70.3706 16.8669L70.3424 16.8376L70.3501 16.8296ZM77.2382 10.5539C76.3846 10.5539 75.3253 11.8335 74.8522 13.4484C74.4999 14.6375 74.4999 15.55 74.8239 15.9783C74.9422 16.1619 75.1196 16.2524 75.3536 16.2524C75.8241 16.2524 76.472 15.7655 77.2382 14.8211L78.1793 11.3174V11.2562C77.8836 10.6763 77.5031 10.5566 77.2382 10.5566V10.5539ZM59.8674 11.2855C60.1631 10.921 60.4562 10.7375 60.7519 10.7375C61.369 10.7375 61.7521 11.4691 61.8421 12.1687C61.9012 12.5039 61.8704 12.8391 61.8421 13.1744C61.8421 13.1744 61.8421 13.2036 61.8138 13.3579V13.4191V13.4803C61.4898 14.7892 60.8419 16.2231 59.9291 16.2231C59.0164 16.2231 59.6334 16.1938 59.5177 16.1007C59.222 15.9172 59.0472 15.6139 58.9572 15.1563C58.7207 13.9059 59.3995 11.9878 59.9574 11.2562L59.87 11.2855H59.8674Z" fill="white"/>
<path d="M38.551 6.07481C35.9328 4.2643 29.3846 0.260141 20.1739 0.0119042C9.89657 -0.263315 2.55824 4.30748 0 6.07481C0.0182545 10.7859 0.62587 28.1247 12.9842 38.6613C15.1408 40.4987 17.3992 41.9126 19.6419 43C22.2314 41.8236 24.9905 40.1507 27.5983 37.7466C39.4272 26.8457 38.7544 9.57171 38.551 6.07481Z" fill="url(#paint0_linear_1559_8742)"/>
<path d="M19.3152 6.32104L8.52161 12.7968V25.7483L19.3152 32.3616L30.1089 25.7483V12.7968L19.3152 6.32104Z" fill="white"/>
<path d="M19.1851 29.524L10.8089 24.3919V14.3411L19.1851 19.4191V29.524Z" fill="#1D74BA"/>
<path d="M19.3157 29.761L10.6787 24.4698V14.106L19.3157 19.3432V29.761ZM10.9395 24.316L19.0549 29.2889V19.497L10.9395 14.5781V24.316Z" fill="#1D74BA"/>
<path d="M10.9373 14.1069L19.3161 9.08008L27.6923 14.1069L19.3161 19.1876L10.9373 14.1069Z" fill="#69BD47"/>
<path d="M19.3157 19.3433L10.6787 14.106L19.3157 8.92273L27.9501 14.106L19.3157 19.3433ZM11.1951 14.106L19.3157 19.0303L27.4338 14.106L19.3157 9.23572L11.1951 14.106Z" fill="#69BD47"/>
<path d="M27.8225 24.3918L19.4462 29.5238V19.419L27.8225 14.3409V24.3918Z" fill="#01A69E"/>
<path d="M19.316 29.7608V19.343L27.953 14.1057V24.4696L19.316 29.7608ZM19.5768 19.4968V29.2886L27.6923 24.3158V14.5779L19.5768 19.4968Z" fill="#01A69E"/>
<defs>
<linearGradient id="paint0_linear_1559_8742" x1="19.3159" y1="43" x2="19.3159" y2="-0.00158656" gradientUnits="userSpaceOnUse">
<stop stop-color="#08AFEF"/>
<stop offset="1" stop-color="#2671A8"/>
</linearGradient>
</defs>
</svg>
