<svg width="259" height="50" viewBox="0 0 259 50" fill="none" xmlns="http://www.w3.org/2000/svg">
<g clip-path="url(#clip0_824_111565)">
<path d="M54.7456 30.5841V16.8294H49.0703V14.7266H64.397V16.8294H58.7218V30.5841H54.7427H54.7456Z" fill="#1D74BA"/>
<path d="M68.5169 30.5841C67.0345 30.5841 66.4219 30.0136 66.4219 28.6117V16.6989C66.4219 15.297 67.0345 14.7266 68.5169 14.7266H80.665V16.8294H71.106C70.635 16.8294 70.4009 17.0478 70.4009 17.4878V21.1897H80.1709V23.1621H70.4009V27.8258C70.4009 28.2628 70.635 28.4843 71.106 28.4843H80.665V30.5871H68.5169V30.5841Z" fill="#1D74BA"/>
<path d="M97.7177 30.4073C87.5461 31.8092 82.625 29.5304 82.625 22.6758C82.625 19.2379 83.8271 16.8954 86.2515 15.6907C88.6759 14.4861 92.4903 14.2009 97.6946 14.8381V16.9621C88.8898 15.9972 86.5347 17.5963 86.5347 22.6788C86.5347 27.7614 89.173 29.3362 97.7177 28.2863V30.4103V30.4073Z" fill="#1D74BA"/>
<path d="M100.188 30.581V14.7266H104.19V21.0562H113.09V14.7266H117.092V30.581H113.09V23.2015H104.19V30.581H100.188Z" fill="#1D74BA"/>
<path d="M120.625 30.581V14.7266H122.957C124.11 14.7266 125.006 15.121 125.665 15.8887L135.013 26.7304V14.7296H137.486V30.5841H135.203C134.05 30.5841 133.155 30.1896 132.519 29.4219L123.101 18.4285V30.5841H120.628L120.625 30.581Z" fill="#1D74BA"/>
<path d="M139.031 30.581L146.354 22.4126L139.667 14.7266H144.305L149.344 20.5738L154.242 14.7266H157.467L150.899 22.2609L158.175 30.5841H153.465L147.955 24.1907L142.351 30.5841H139.031V30.581Z" fill="#1D74BA"/>
<path d="M163.707 30.5841V16.8294H158.031V14.7266H173.358V16.8294H167.683V30.5841H163.704H163.707Z" fill="#1D74BA"/>
<path d="M50.9117 2.3655C50.7788 2.29571 50.6459 2.19254 50.5476 2.05296C50.4812 1.91338 50.4494 1.74043 50.4494 1.60085C50.6806 1.53105 50.9117 1.56747 51.1429 1.63422C51.3741 1.70098 51.5735 1.87697 51.7064 2.04993C51.6399 2.18951 51.507 2.29268 51.3423 2.36247C51.2094 2.43226 51.0447 2.43226 50.8799 2.36247H50.9117V2.3655ZM51.2758 1.32168C50.9435 1.1821 50.5823 1.1821 50.25 1.32168C50.3482 1.04252 50.5158 0.836189 50.747 0.729987C50.9782 0.623784 51.244 0.590406 51.4752 0.696609C51.7064 0.799777 51.9058 0.975769 52.004 1.21852C52.1023 1.46126 52.1369 1.74043 52.0358 1.98317C51.8364 1.70401 51.5735 1.46126 51.2412 1.32168H51.2729H51.2758ZM52.3334 1.07894C52.2352 0.869567 52.1023 0.729987 51.9376 0.593441C51.7728 0.456895 51.5735 0.384071 51.3741 0.350693C51.1747 0.317315 50.9782 0.350693 50.7788 0.384071C50.5794 0.453861 50.4147 0.557029 50.25 0.733021C50.3482 0.490273 50.5476 0.317315 50.7788 0.211113C51.01 0.10491 51.2412 0.0715326 51.507 0.107945C51.7382 0.177735 51.9693 0.317315 52.1369 0.490273C52.3017 0.699643 52.3681 0.942391 52.4028 1.21852C52.4028 1.18514 52.4028 1.14873 52.371 1.11535L52.3392 1.08197L52.3334 1.07894Z" fill="#1D74BA"/>
<path fill-rule="evenodd" clip-rule="evenodd" d="M67.1565 10.0788C66.8589 10.0788 66.463 10.009 66.1972 9.6267C65.8649 9.17458 65.8331 8.37655 66.1307 7.36914L67.0236 4.34693C66.4284 5.00842 65.6655 5.35433 65.2696 5.28454C64.4085 5.14496 64.5414 4.20735 65.0038 3.79165C64.839 3.61869 64.6397 3.47911 64.4403 3.47911C63.8103 3.47911 63.2151 4.38334 62.588 5.32096C62.5562 5.39075 62.4898 5.46054 62.4551 5.53033L62.3886 5.70329L61.1316 10.0485H59.4094L61.4928 2.89044C60.5335 3.34256 59.7388 3.96764 59.1435 4.55934V4.94166C59.1118 5.22082 59.0453 5.53336 59.0106 5.80949C58.4471 8.62536 56.4966 10.0485 54.8726 10.0485C54.575 10.0485 54.2774 9.97868 54.0115 9.87551C53.4163 9.63277 53.0175 9.25044 52.7863 8.69515C52.5869 8.17324 52.5551 7.54817 52.6534 6.8533V6.75014C51.4628 7.82733 50.9311 9.00769 50.5353 10.0515H48.7812L49.94 3.69151C49.6424 4.21342 49.2118 4.55934 48.7812 4.87187V4.76871C49.4748 4.07384 49.9053 3.34256 50.1394 2.58094L51.694 3.3456L50.8676 8.0367C51.4975 7.30846 52.0581 6.85634 52.7545 6.33443C53.1504 5.01449 54.078 3.79771 55.2367 3.13623C55.832 2.78728 56.5284 2.58094 57.1237 2.58094C57.7189 2.58094 58.6465 2.7539 59.0106 3.8675C59.8717 3.27581 60.6317 2.96327 61.5593 2.58094L63.0475 3.27581L62.484 5.25724C62.8481 4.59575 63.3451 3.83109 64.4374 2.82369C64.6686 2.68411 64.8997 2.61432 65.0991 2.61432C65.5615 2.61432 65.9256 3.03002 66.1914 3.86447C66.5873 3.93426 67.0178 3.86447 67.4166 2.96023L68.2113 0.0078125L69.6994 0.632888L69.0377 3.23939H70.1965L69.8988 3.83109H68.9048L67.5813 8.4524C67.4484 8.90452 67.4831 9.18065 67.6131 9.39002C67.6796 9.49319 67.8125 9.59939 68.0437 9.59939C68.6736 9.59939 69.6648 8.76494 70.1936 7.82733C70.1936 7.75754 70.1936 7.65437 70.2254 7.58458C70.3901 6.64697 70.7542 5.29061 71.5835 4.21342C72.3435 3.20602 73.3375 2.68411 74.5281 2.65073H78.0361L77.9378 2.99968C77.6055 4.14666 77.3426 5.0509 77.1114 5.91872V6.0583H77.0796C76.8484 6.89275 76.6173 7.65741 76.3861 8.52523C76.2879 8.94094 76.2878 9.2201 76.4179 9.39305C76.4843 9.49622 76.6173 9.60242 76.8484 9.60242C77.5102 9.60242 78.6342 8.66481 79.0648 7.7272H79.2295C78.4695 9.22009 77.0131 10.091 76.0191 10.091C75.0251 10.091 75.3574 9.98779 75.158 9.77842C74.9268 9.53567 74.8257 9.18672 74.8257 8.7346V8.17931L74.4934 8.63143C73.8316 9.56905 72.8723 10.1243 71.9447 10.1243C71.3812 10.1243 70.9189 9.91496 70.5866 9.53263C70.3207 9.18368 70.1907 8.7346 70.1907 8.17628C69.8584 8.66178 69.4972 9.08052 69.0319 9.39305C68.402 9.84517 67.7403 10.1213 67.1797 10.1213L67.1479 10.0879L67.1565 10.0788ZM74.8979 2.92079C73.9386 2.92079 72.748 4.38031 72.2163 6.22216C71.8204 7.57851 71.8204 8.61929 72.1845 9.10782C72.3175 9.31719 72.5169 9.42036 72.7798 9.42036C73.3086 9.42036 74.0368 8.86508 74.8979 7.78788L75.9555 3.79165V3.72186C75.6232 3.06037 75.1956 2.92382 74.8979 2.92382V2.92079ZM55.3754 3.75523C55.7077 3.33953 56.0372 3.13016 56.3695 3.13016C57.063 3.13016 57.4936 3.9646 57.5947 4.76264C57.6612 5.14496 57.6265 5.52729 57.5947 5.90962C57.5947 5.90962 57.5947 5.943 57.5629 6.11899V6.18878V6.25857C57.1988 7.75147 56.4706 9.38698 55.4448 9.38698C54.419 9.38698 55.1125 9.35361 54.9824 9.2474C54.6501 9.03803 54.4536 8.69212 54.3525 8.17021C54.0867 6.74407 54.8495 4.5563 55.4766 3.72186L55.3783 3.75523H55.3754Z" fill="#1D74BA"/>
<path d="M42.7178 8.4761C39.8166 6.44005 32.5606 1.93708 22.3544 1.65792C10.9662 1.34841 2.83475 6.4886 0 8.4761C0.0202276 13.7741 0.693518 33.2728 14.3876 45.1219C16.7773 47.1883 19.2798 48.7783 21.7649 50.0012C24.6343 48.6782 27.6916 46.7969 30.5812 44.0933C43.6887 31.8345 42.9432 12.4086 42.7178 8.4761Z" fill="url(#paint0_linear_824_111565)"/>
<path d="M21.4056 8.75391L9.44531 16.0363V30.6012L21.4056 38.0384L33.3659 30.6012V16.0363L21.4056 8.75391Z" fill="white"/>
<path d="M21.2581 34.8477L11.9766 29.0764V17.7734L21.2581 23.4841V34.8477Z" fill="#1D74BA"/>
<path d="M21.4065 35.1131L11.8359 29.1627V17.5078L21.4065 23.3975V35.1131ZM12.1249 28.9898L21.1175 34.5821V23.5704L12.1249 18.0388V28.9898Z" fill="#1D74BA"/>
<path d="M12.125 17.5085L21.4095 11.8555L30.691 17.5085L21.4095 23.2221L12.125 17.5085Z" fill="#69BD47"/>
<path d="M21.4065 23.3983L11.8359 17.5087L21.4065 11.6797L30.9741 17.5087L21.4065 23.3983ZM12.4081 17.5087L21.4065 23.0464L30.402 17.5087L21.4065 12.0317L12.4081 17.5087Z" fill="#69BD47"/>
<path d="M30.8284 29.0764L21.5469 34.8477V23.4841L30.8284 17.7734V29.0764Z" fill="#01A69E"/>
<path d="M21.4062 35.1131V23.3975L30.9768 17.5078V29.1627L21.4062 35.1131ZM21.6952 23.5704V34.5821L30.6878 28.9898V18.0388L21.6952 23.5704Z" fill="#01A69E"/>
<path d="M214.227 39.1429H215.378L218.086 45.8506H218.179L220.886 39.1429H222.038V47.2237H221.135V41.0842H221.058L218.568 47.2237H217.697L215.207 41.0842H215.129V47.2237H214.227V39.1429Z" fill="#1D74BA"/>
<path d="M225.606 47.3658C225.227 47.3658 224.884 47.2934 224.575 47.1488C224.266 47.0015 224.021 46.7897 223.84 46.5135C223.658 46.2347 223.568 45.898 223.568 45.5034C223.568 45.1562 223.635 44.8747 223.77 44.659C223.905 44.4407 224.085 44.2697 224.311 44.1461C224.536 44.0224 224.785 43.9304 225.057 43.8699C225.332 43.8067 225.608 43.7568 225.886 43.7199C226.249 43.6726 226.543 43.6371 226.769 43.6134C226.997 43.5871 227.163 43.5437 227.267 43.4832C227.373 43.4227 227.426 43.3175 227.426 43.1675V43.136C227.426 42.7467 227.321 42.4442 227.111 42.2285C226.904 42.0128 226.589 41.9049 226.166 41.9049C225.728 41.9049 225.384 42.0022 225.135 42.1969C224.886 42.3916 224.711 42.5994 224.61 42.8203L223.739 42.5047C223.894 42.1364 224.102 41.8497 224.361 41.6445C224.623 41.4367 224.908 41.292 225.217 41.2105C225.528 41.1263 225.834 41.0842 226.135 41.0842C226.327 41.0842 226.547 41.1079 226.796 41.1552C227.048 41.1999 227.29 41.2933 227.524 41.4354C227.76 41.5774 227.955 41.7918 228.111 42.0785C228.267 42.3652 228.344 42.7493 228.344 43.2307V47.2237H227.426V46.403H227.38C227.317 46.5345 227.214 46.6753 227.068 46.8252C226.923 46.9751 226.73 47.1027 226.489 47.2079C226.248 47.3132 225.953 47.3658 225.606 47.3658ZM225.746 46.5293C226.109 46.5293 226.415 46.4569 226.664 46.3123C226.915 46.1676 227.105 45.9808 227.232 45.752C227.362 45.5231 227.426 45.2824 227.426 45.0299V44.1776C227.387 44.225 227.302 44.2684 227.17 44.3078C227.04 44.3447 226.89 44.3776 226.718 44.4065C226.55 44.4328 226.385 44.4565 226.224 44.4775C226.066 44.4959 225.938 44.5117 225.839 44.5249C225.601 44.5564 225.378 44.6077 225.17 44.6787C224.965 44.7471 224.799 44.851 224.672 44.9905C224.548 45.1272 224.486 45.314 224.486 45.5507C224.486 45.8743 224.604 46.1189 224.84 46.2846C225.078 46.4477 225.38 46.5293 225.746 46.5293Z" fill="#1D74BA"/>
<path d="M230.938 39.1429V47.2237H230.02V39.1429H230.938Z" fill="#1D74BA"/>
<path d="M234.378 47.3658C233.999 47.3658 233.655 47.2934 233.347 47.1488C233.038 47.0015 232.793 46.7897 232.612 46.5135C232.43 46.2347 232.339 45.898 232.339 45.5034C232.339 45.1562 232.407 44.8747 232.542 44.659C232.676 44.4407 232.857 44.2697 233.082 44.1461C233.308 44.0224 233.557 43.9304 233.829 43.8699C234.104 43.8067 234.38 43.7568 234.658 43.7199C235.021 43.6726 235.315 43.6371 235.541 43.6134C235.769 43.5871 235.935 43.5437 236.039 43.4832C236.145 43.4227 236.198 43.3175 236.198 43.1675V43.136C236.198 42.7467 236.093 42.4442 235.883 42.2285C235.676 42.0128 235.361 41.9049 234.938 41.9049C234.5 41.9049 234.156 42.0022 233.907 42.1969C233.658 42.3916 233.483 42.5994 233.382 42.8203L232.511 42.5047C232.666 42.1364 232.874 41.8497 233.133 41.6445C233.395 41.4367 233.68 41.292 233.989 41.2105C234.3 41.1263 234.606 41.0842 234.907 41.0842C235.099 41.0842 235.319 41.1079 235.568 41.1552C235.82 41.1999 236.062 41.2933 236.295 41.4354C236.531 41.5774 236.727 41.7918 236.883 42.0785C237.038 42.3652 237.116 42.7493 237.116 43.2307V47.2237H236.198V46.403H236.151C236.089 46.5345 235.986 46.6753 235.84 46.8252C235.695 46.9751 235.502 47.1027 235.261 47.2079C235.02 47.3132 234.725 47.3658 234.378 47.3658ZM234.518 46.5293C234.881 46.5293 235.187 46.4569 235.436 46.3123C235.687 46.1676 235.877 45.9808 236.004 45.752C236.133 45.5231 236.198 45.2824 236.198 45.0299V44.1776C236.159 44.225 236.074 44.2684 235.941 44.3078C235.812 44.3447 235.661 44.3776 235.49 44.4065C235.322 44.4328 235.157 44.4565 234.996 44.4775C234.838 44.4959 234.71 44.5117 234.611 44.5249C234.372 44.5564 234.149 44.6077 233.942 44.6787C233.737 44.7471 233.571 44.851 233.444 44.9905C233.32 45.1272 233.257 45.314 233.257 45.5507C233.257 45.8743 233.375 46.1189 233.611 46.2846C233.85 46.4477 234.152 46.5293 234.518 46.5293Z" fill="#1D74BA"/>
<path d="M239.169 49.4965C239.014 49.4965 238.875 49.4833 238.753 49.457C238.631 49.4333 238.547 49.4096 238.5 49.386L238.733 48.5653C238.956 48.6231 239.154 48.6442 239.325 48.6284C239.496 48.6126 239.648 48.535 239.78 48.3956C239.915 48.2588 240.038 48.0365 240.149 47.7288L240.321 47.2553L238.111 41.1631H239.107L240.756 45.9927H240.818L242.468 41.1631H243.464L240.927 48.1076C240.813 48.4206 240.672 48.6797 240.503 48.8849C240.335 49.0927 240.139 49.2466 239.916 49.3465C239.696 49.4465 239.447 49.4965 239.169 49.4965Z" fill="#1D74BA"/>
<path d="M248.908 42.5204L248.083 42.7572C248.031 42.6178 247.955 42.4823 247.853 42.3508C247.755 42.2166 247.62 42.1061 247.449 42.0193C247.278 41.9325 247.059 41.8891 246.791 41.8891C246.426 41.8891 246.121 41.9746 245.877 42.1456C245.636 42.314 245.516 42.5283 245.516 42.7888C245.516 43.0202 245.599 43.2031 245.764 43.3372C245.93 43.4714 246.19 43.5832 246.542 43.6726L247.429 43.8936C247.964 44.0251 248.362 44.2263 248.624 44.4972C248.886 44.7656 249.016 45.1115 249.016 45.535C249.016 45.8822 248.918 46.1926 248.721 46.4662C248.526 46.7397 248.254 46.9554 247.904 47.1132C247.554 47.2711 247.147 47.35 246.683 47.35C246.073 47.35 245.569 47.2158 245.169 46.9475C244.77 46.6792 244.517 46.2873 244.411 45.7717L245.282 45.5507C245.365 45.8769 245.522 46.1216 245.753 46.2846C245.986 46.4477 246.291 46.5293 246.667 46.5293C247.095 46.5293 247.435 46.4372 247.686 46.2531C247.94 46.0663 248.067 45.8427 248.067 45.5823C248.067 45.3719 247.995 45.1956 247.85 45.0536C247.704 44.9089 247.481 44.8011 247.18 44.73L246.185 44.4933C245.637 44.3618 245.235 44.1579 244.979 43.8817C244.725 43.6029 244.598 43.2543 244.598 42.8361C244.598 42.4941 244.692 42.1916 244.881 41.9286C245.073 41.6655 245.334 41.459 245.663 41.3091C245.995 41.1592 246.371 41.0842 246.791 41.0842C247.383 41.0842 247.847 41.2157 248.184 41.4788C248.524 41.7418 248.765 42.089 248.908 42.5204Z" fill="#1D74BA"/>
<path d="M250.398 47.2237V41.1631H251.316V47.2237H250.398ZM250.865 40.153C250.686 40.153 250.532 40.0912 250.402 39.9676C250.275 39.8439 250.212 39.6953 250.212 39.5217C250.212 39.3481 250.275 39.1995 250.402 39.0758C250.532 38.9522 250.686 38.8904 250.865 38.8904C251.044 38.8904 251.197 38.9522 251.324 39.0758C251.454 39.1995 251.519 39.3481 251.519 39.5217C251.519 39.6953 251.454 39.8439 251.324 39.9676C251.197 40.0912 251.044 40.153 250.865 40.153Z" fill="#1D74BA"/>
<path d="M254.756 47.3658C254.377 47.3658 254.034 47.2934 253.725 47.1488C253.417 47.0015 253.172 46.7897 252.99 46.5135C252.809 46.2347 252.718 45.898 252.718 45.5034C252.718 45.1562 252.785 44.8747 252.92 44.659C253.055 44.4407 253.235 44.2697 253.461 44.1461C253.686 44.0224 253.935 43.9304 254.208 43.8699C254.482 43.8067 254.759 43.7568 255.036 43.7199C255.399 43.6726 255.694 43.6371 255.919 43.6134C256.147 43.5871 256.313 43.5437 256.417 43.4832C256.523 43.4227 256.577 43.3175 256.577 43.1675V43.136C256.577 42.7467 256.472 42.4442 256.261 42.2285C256.054 42.0128 255.739 41.9049 255.316 41.9049C254.878 41.9049 254.534 42.0022 254.285 42.1969C254.036 42.3916 253.861 42.5994 253.76 42.8203L252.889 42.5047C253.045 42.1364 253.252 41.8497 253.511 41.6445C253.773 41.4367 254.058 41.292 254.367 41.2105C254.678 41.1263 254.984 41.0842 255.285 41.0842C255.477 41.0842 255.697 41.1079 255.946 41.1552C256.198 41.1999 256.44 41.2933 256.674 41.4354C256.91 41.5774 257.106 41.7918 257.261 42.0785C257.417 42.3652 257.495 42.7493 257.495 43.2307V47.2237H256.577V46.403H256.53C256.468 46.5345 256.364 46.6753 256.219 46.8252C256.073 46.9751 255.88 47.1027 255.639 47.2079C255.398 47.3132 255.104 47.3658 254.756 47.3658ZM254.896 46.5293C255.259 46.5293 255.565 46.4569 255.814 46.3123C256.066 46.1676 256.255 45.9808 256.382 45.752C256.512 45.5231 256.577 45.2824 256.577 45.0299V44.1776C256.538 44.225 256.452 44.2684 256.32 44.3078C256.19 44.3447 256.04 44.3776 255.869 44.4065C255.7 44.4328 255.535 44.4565 255.375 44.4775C255.216 44.4959 255.088 44.5117 254.989 44.5249C254.751 44.5564 254.528 44.6077 254.32 44.6787C254.116 44.7471 253.95 44.851 253.823 44.9905C253.698 45.1272 253.636 45.314 253.636 45.5507C253.636 45.8743 253.754 46.1189 253.99 46.2846C254.228 46.4477 254.53 46.5293 254.896 46.5293Z" fill="#1D74BA"/>
<path d="M187.837 30.6802C187.028 30.6802 186.299 30.5395 185.652 30.258C185.004 29.9648 184.495 29.5543 184.125 29.0265C183.755 28.4987 183.57 27.883 183.57 27.1793H185.686C185.733 27.7071 185.935 28.141 186.293 28.4811C186.663 28.8213 187.178 28.9913 187.837 28.9913C188.519 28.9913 189.051 28.8271 189.433 28.4987C189.814 28.1586 190.005 27.7247 190.005 27.1969C190.005 26.7864 189.884 26.4521 189.641 26.1941C189.409 25.9361 189.115 25.7367 188.756 25.5959C188.409 25.4552 187.924 25.3027 187.299 25.1385C186.513 24.9274 185.871 24.7163 185.374 24.5052C184.888 24.2824 184.472 23.9422 184.125 23.4848C183.778 23.0274 183.605 22.4176 183.605 21.6552C183.605 20.9515 183.778 20.3358 184.125 19.808C184.472 19.2802 184.958 18.8756 185.582 18.5941C186.207 18.3126 186.929 18.1719 187.75 18.1719C188.918 18.1719 189.872 18.4709 190.612 19.0691C191.364 19.6555 191.78 20.4648 191.861 21.4969H189.675C189.641 21.0512 189.433 20.67 189.051 20.3534C188.669 20.0367 188.166 19.8784 187.542 19.8784C186.976 19.8784 186.513 20.025 186.155 20.3182C185.796 20.6114 185.617 21.0336 185.617 21.5848C185.617 21.9601 185.727 22.2709 185.946 22.5172C186.178 22.7518 186.467 22.9395 186.814 23.0802C187.161 23.2209 187.635 23.3734 188.236 23.5376C189.034 23.7605 189.681 23.9833 190.178 24.2061C190.687 24.429 191.115 24.775 191.462 25.2441C191.82 25.7015 191.999 26.3172 191.999 27.0913C191.999 27.7129 191.832 28.2993 191.496 28.8506C191.173 29.4018 190.693 29.8475 190.057 30.1876C189.433 30.516 188.693 30.6802 187.837 30.6802Z" fill="#1D74BA"/>
<path d="M198.27 18.3302C199.553 18.3302 200.675 18.5824 201.634 19.0867C202.606 19.5793 203.351 20.2947 203.872 21.233C204.404 22.1595 204.669 23.2444 204.669 24.4876C204.669 25.7308 204.404 26.8098 203.872 27.7247C203.351 28.6395 202.606 29.3432 201.634 29.8358C200.675 30.3166 199.553 30.5571 198.27 30.5571H194.332V18.3302H198.27ZM198.27 28.9209C199.68 28.9209 200.761 28.5339 201.513 27.7598C202.264 26.9858 202.64 25.895 202.64 24.4876C202.64 23.0685 202.264 21.9601 201.513 21.1626C200.761 20.3651 199.68 19.9663 198.27 19.9663H196.31V28.9209H198.27Z" fill="#1D74BA"/>
<path d="M216.532 30.5571H214.555L208.606 21.4265V30.5571H206.629V18.3126H208.606L214.555 27.4256V18.3126H216.532V30.5571Z" fill="#1D74BA"/>
<path d="M230.086 24.2765C230.734 24.3938 231.283 24.7398 231.734 25.3145C232.185 25.8892 232.41 26.5401 232.41 27.2672C232.41 27.8889 232.248 28.4518 231.925 28.9561C231.612 29.4487 231.156 29.8416 230.554 30.1348C229.953 30.4163 229.254 30.5571 228.456 30.5571H223.634V18.3302H228.23C229.051 18.3302 229.757 18.4709 230.346 18.7524C230.936 19.0339 231.381 19.4151 231.682 19.8959C231.982 20.3651 232.133 20.8929 232.133 21.4793C232.133 22.183 231.948 22.7694 231.578 23.2385C231.208 23.7077 230.711 24.0537 230.086 24.2765ZM225.611 23.4672H228.057C228.704 23.4672 229.207 23.3206 229.566 23.0274C229.936 22.7225 230.121 22.2885 230.121 21.7256C230.121 21.1743 229.936 20.7463 229.566 20.4413C229.207 20.1247 228.704 19.9663 228.057 19.9663H225.611V23.4672ZM228.282 28.9209C228.953 28.9209 229.479 28.7568 229.861 28.4284C230.242 28.1 230.433 27.6426 230.433 27.0561C230.433 26.458 230.231 25.983 229.826 25.6311C229.421 25.2793 228.884 25.1034 228.213 25.1034H225.611V28.9209H228.282Z" fill="#1D74BA"/>
<path d="M244.185 18.3302V30.5571H242.208V25.2089H236.536V30.5571H234.559V18.3302H236.536V23.5728H242.208V18.3302H244.185Z" fill="#1D74BA"/>
<path d="M250.725 18.3302C252.008 18.3302 253.13 18.5824 254.09 19.0867C255.061 19.5793 255.807 20.2947 256.327 21.233C256.859 22.1595 257.125 23.2444 257.125 24.4876C257.125 25.7308 256.859 26.8098 256.327 27.7247C255.807 28.6395 255.061 29.3432 254.09 29.8358C253.13 30.3166 252.008 30.5571 250.725 30.5571H246.788V18.3302H250.725ZM250.725 28.9209C252.135 28.9209 253.217 28.5339 253.968 27.7598C254.72 26.9858 255.095 25.895 255.095 24.4876C255.095 23.0685 254.72 21.9601 253.968 21.1626C253.217 20.3651 252.135 19.9663 250.725 19.9663H248.765V28.9209H250.725Z" fill="#1D74BA"/>
</g>
<defs>
<linearGradient id="paint0_linear_824_111565" x1="21.4037" y1="50.0012" x2="21.4037" y2="1.64275" gradientUnits="userSpaceOnUse">
<stop stop-color="#08AFEF"/>
<stop offset="1" stop-color="#2671A8"/>
</linearGradient>
<clipPath id="clip0_824_111565">
<rect width="258.333" height="50" fill="white"/>
</clipPath>
</defs>
</svg>
