<svg width="228" height="50" viewBox="0 0 228 50" fill="none" xmlns="http://www.w3.org/2000/svg">
<g clip-path="url(#clip0_824_111599)">
<path d="M54.2486 30.5841V16.8294H48.625V14.7266H63.8122V16.8294H58.1886V30.5841H54.2457H54.2486Z" fill="#1D74BA"/>
<path d="M67.8962 30.5841C66.4273 30.5841 65.8203 30.0136 65.8203 28.6117V16.6989C65.8203 15.297 66.4273 14.7266 67.8962 14.7266H79.9338V16.8294H70.4618C69.9951 16.8294 69.7631 17.0478 69.7631 17.4878V21.1897H79.4441V23.1621H69.7631V27.8258C69.7631 28.2628 69.9951 28.4843 70.4618 28.4843H79.9338V30.5871H67.8962V30.5841Z" fill="#1D74BA"/>
<path d="M96.8303 30.4073C86.7513 31.8092 81.875 29.5304 81.875 22.6758C81.875 19.2379 83.0662 16.8954 85.4685 15.6907C87.8709 14.4861 91.6505 14.2009 96.8074 14.8381V16.9621C88.0827 15.9972 85.7491 17.5963 85.7491 22.6788C85.7491 27.7614 88.3634 29.3362 96.8303 28.2863V30.4103V30.4073Z" fill="#1D74BA"/>
<path d="M99.2734 30.581V14.7266H103.239V21.0562H112.058V14.7266H116.024V30.581H112.058V23.2015H103.239V30.581H99.2734Z" fill="#1D74BA"/>
<path d="M119.523 30.581V14.7266H121.834C122.977 14.7266 123.864 15.121 124.517 15.8887L133.78 26.7304V14.7296H136.231V30.5841H133.969C132.827 30.5841 131.939 30.1896 131.309 29.4219L121.977 18.4285V30.5841H119.526L119.523 30.581Z" fill="#1D74BA"/>
<path d="M137.766 30.581L145.021 22.4126L138.396 14.7266H142.991L147.985 20.5738L152.838 14.7266H156.034L149.525 22.2609L156.735 30.5841H152.068L146.608 24.1907L141.056 30.5841H137.766V30.581Z" fill="#1D74BA"/>
<path d="M162.217 30.5841V16.8294H156.594V14.7266H171.781V16.8294H166.157V30.5841H162.215H162.217Z" fill="#1D74BA"/>
<path d="M50.4448 2.3655C50.3131 2.29571 50.1813 2.19254 50.084 2.05296C50.0181 1.91338 49.9866 1.74043 49.9866 1.60085C50.2157 1.53105 50.4448 1.56747 50.6738 1.63422C50.9029 1.70098 51.1005 1.87697 51.2322 2.04993C51.1663 2.18951 51.0346 2.29268 50.8714 2.36247C50.7397 2.43226 50.5765 2.43226 50.4133 2.36247H50.4448V2.3655ZM50.8056 1.32168C50.4763 1.1821 50.1183 1.1821 49.7891 1.32168C49.8864 1.04252 50.0525 0.836189 50.2816 0.729987C50.5106 0.623784 50.7741 0.590406 51.0031 0.696609C51.2322 0.799777 51.4298 0.975769 51.5271 1.21852C51.6245 1.46126 51.6588 1.74043 51.5586 1.98317C51.361 1.70401 51.1005 1.46126 50.7712 1.32168H50.8027H50.8056ZM51.8535 1.07894C51.7562 0.869567 51.6245 0.729987 51.4613 0.593441C51.298 0.456895 51.1005 0.384071 50.9029 0.350693C50.7053 0.317315 50.5106 0.350693 50.3131 0.384071C50.1155 0.453861 49.9523 0.557029 49.7891 0.733021C49.8864 0.490273 50.084 0.317315 50.3131 0.211113C50.5421 0.10491 50.7712 0.0715326 51.0346 0.107945C51.2637 0.177735 51.4928 0.317315 51.6588 0.490273C51.822 0.699643 51.8879 0.942391 51.9223 1.21852C51.9223 1.18514 51.9223 1.14873 51.8908 1.11535L51.8593 1.08197L51.8535 1.07894Z" fill="#1D74BA"/>
<path fill-rule="evenodd" clip-rule="evenodd" d="M66.544 10.0788C66.249 10.0788 65.8567 10.009 65.5933 9.6267C65.264 9.17458 65.2325 8.37655 65.5275 7.36914L66.4122 4.34693C65.8224 5.00842 65.0665 5.35433 64.6742 5.28454C63.8209 5.14496 63.9526 4.20735 64.4108 3.79165C64.2476 3.61869 64.05 3.47911 63.8524 3.47911C63.2282 3.47911 62.6383 4.38334 62.017 5.32096C61.9855 5.39075 61.9196 5.46054 61.8853 5.53033L61.8194 5.70329L60.5739 10.0485H58.8673L60.9318 2.89044C59.9812 3.34256 59.1937 3.96764 58.6039 4.55934V4.94166C58.5724 5.22082 58.5065 5.53336 58.4722 5.80949C57.9138 8.62536 55.9811 10.0485 54.3719 10.0485C54.0769 10.0485 53.782 9.97868 53.5186 9.87551C52.9287 9.63277 52.5336 9.25044 52.3045 8.69515C52.107 8.17324 52.0755 7.54817 52.1728 6.8533V6.75014C50.9931 7.82733 50.4663 9.00769 50.074 10.0515H48.3359L49.4841 3.69151C49.1892 4.21342 48.7626 4.55934 48.3359 4.87187V4.76871C49.0231 4.07384 49.4498 3.34256 49.6817 2.58094L51.2222 3.3456L50.4033 8.0367C51.0275 7.30846 51.583 6.85634 52.273 6.33443C52.6653 5.01449 53.5844 3.79771 54.7327 3.13623C55.3225 2.78728 56.0126 2.58094 56.6024 2.58094C57.1923 2.58094 58.1114 2.7539 58.4722 3.8675C59.3255 3.27581 60.0785 2.96327 60.9976 2.58094L62.4723 3.27581L61.9139 5.25724C62.2747 4.59575 62.7672 3.83109 63.8495 2.82369C64.0786 2.68411 64.3077 2.61432 64.5052 2.61432C64.9634 2.61432 65.3242 3.03002 65.5876 3.86447C65.9799 3.93426 66.4065 3.86447 66.8017 2.96023L67.5891 0.0078125L69.0637 0.632888L68.408 3.23939H69.5562L69.2613 3.83109H68.2763L66.9649 8.4524C66.8332 8.90452 66.8675 9.18065 66.9964 9.39002C67.0622 9.49319 67.1939 9.59939 67.423 9.59939C68.0472 9.59939 69.0293 8.76494 69.5533 7.82733C69.5533 7.75754 69.5533 7.65437 69.5848 7.58458C69.748 6.64697 70.1088 5.29061 70.9306 4.21342C71.6837 3.20602 72.6687 2.68411 73.8484 2.65073H77.3244L77.2271 2.99968C76.8978 4.14666 76.6372 5.0509 76.4082 5.91872V6.0583H76.3767C76.1476 6.89275 75.9185 7.65741 75.6895 8.52523C75.5921 8.94094 75.5921 9.2201 75.721 9.39305C75.7868 9.49622 75.9185 9.60242 76.1476 9.60242C76.8033 9.60242 77.9172 8.66481 78.3438 7.7272H78.507C77.754 9.22009 76.3108 10.091 75.3258 10.091C74.3408 10.091 74.6701 9.98779 74.4726 9.77842C74.2435 9.53567 74.1433 9.18672 74.1433 8.7346V8.17931L73.814 8.63143C73.1583 9.56905 72.2076 10.1243 71.2885 10.1243C70.7302 10.1243 70.272 9.91496 69.9427 9.53263C69.6793 9.18368 69.5505 8.7346 69.5505 8.17628C69.2212 8.66178 68.8633 9.08052 68.4023 9.39305C67.7781 9.84517 67.1223 10.1213 66.5669 10.1213L66.5354 10.0879L66.544 10.0788ZM74.2149 2.92079C73.2642 2.92079 72.0845 4.38031 71.5577 6.22216C71.1654 7.57851 71.1654 8.61929 71.5262 9.10782C71.6579 9.31719 71.8555 9.42036 72.116 9.42036C72.64 9.42036 73.3616 8.86508 74.2149 7.78788L75.2628 3.79165V3.72186C74.9335 3.06037 74.5098 2.92382 74.2149 2.92382V2.92079ZM54.8701 3.75523C55.1994 3.33953 55.5258 3.13016 55.8551 3.13016C56.5423 3.13016 56.9689 3.9646 57.0691 4.76264C57.135 5.14496 57.1006 5.52729 57.0691 5.90962C57.0691 5.90962 57.0691 5.943 57.0376 6.11899V6.18878V6.25857C56.6769 7.75147 55.9553 9.38698 54.9388 9.38698C53.9223 9.38698 54.6095 9.35361 54.4807 9.2474C54.1514 9.03803 53.9567 8.69212 53.8565 8.17021C53.593 6.74407 54.349 4.5563 54.9703 3.72186L54.873 3.75523H54.8701Z" fill="#1D74BA"/>
<path d="M42.3289 8.4761C39.4541 6.44005 32.2642 1.93708 22.1509 1.65792C10.8664 1.34841 2.80895 6.4886 0 8.4761C0.0200434 13.7741 0.687204 33.2728 14.2566 45.1219C16.6246 47.1883 19.1043 48.7783 21.5667 50.0012C24.4101 48.6782 27.4395 46.7969 30.3028 44.0933C43.291 31.8345 42.5522 12.4086 42.3289 8.4761Z" fill="url(#paint0_linear_824_111599)"/>
<path d="M21.2108 8.75391L9.35938 16.0363V30.6012L21.2108 38.0384L33.0622 30.6012V16.0363L21.2108 8.75391Z" fill="white"/>
<path d="M21.0643 34.8477L11.8672 29.0764V17.7734L21.0643 23.4841V34.8477Z" fill="#1D74BA"/>
<path d="M21.21 35.1131L11.7266 29.1627V17.5078L21.21 23.3975V35.1131ZM12.0129 28.9898L20.9236 34.5821V23.5704L12.0129 18.0388V28.9898Z" fill="#1D74BA"/>
<path d="M12.0078 17.5085L21.2078 11.8555L30.4048 17.5085L21.2078 23.2221L12.0078 17.5085Z" fill="#69BD47"/>
<path d="M21.21 23.3983L11.7266 17.5087L21.21 11.6797L30.6905 17.5087L21.21 23.3983ZM12.2935 17.5087L21.21 23.0464L30.1236 17.5087L21.21 12.0317L12.2935 17.5087Z" fill="#69BD47"/>
<path d="M30.5486 29.0764L21.3516 34.8477V23.4841L30.5486 17.7734V29.0764Z" fill="#01A69E"/>
<path d="M21.2109 35.1131V23.3975L30.6943 17.5078V29.1627L21.2109 35.1131ZM21.4973 23.5704V34.5821L30.408 28.9898V18.0388L21.4973 23.5704Z" fill="#01A69E"/>
<path d="M174.625 47.2237V39.1429H177.292C177.912 39.1429 178.418 39.2573 178.811 39.4862C179.207 39.7124 179.5 40.0189 179.69 40.4055C179.88 40.7922 179.975 41.2236 179.975 41.6997C179.975 42.1758 179.88 42.6086 179.69 42.9979C179.502 43.3872 179.212 43.6976 178.819 43.9291C178.426 44.1579 177.922 44.2723 177.308 44.2723H175.396V43.4043H177.277C177.701 43.4043 178.041 43.3293 178.298 43.1794C178.555 43.0294 178.742 42.8269 178.857 42.5717C178.975 42.3139 179.035 42.0233 179.035 41.6997C179.035 41.3762 178.975 41.0868 178.857 40.8317C178.742 40.5765 178.554 40.3766 178.295 40.2319C178.035 40.0846 177.691 40.011 177.261 40.011H175.581V47.2237H174.625Z" fill="#1D74BA"/>
<path d="M182.301 43.5779V47.2237H181.392V39.1429H182.301V42.1101H182.378C182.517 41.7971 182.725 41.5485 183.003 41.3644C183.283 41.1776 183.656 41.0842 184.121 41.0842C184.524 41.0842 184.877 41.1671 185.181 41.3328C185.484 41.4959 185.719 41.7471 185.886 42.0864C186.056 42.4231 186.14 42.8519 186.14 43.3727V47.2237H185.231V43.4358C185.231 42.9545 185.109 42.5823 184.865 42.3192C184.623 42.0535 184.288 41.9207 183.859 41.9207C183.56 41.9207 183.293 41.9851 183.057 42.114C182.823 42.2429 182.638 42.431 182.502 42.6783C182.368 42.9255 182.301 43.2254 182.301 43.5779Z" fill="#1D74BA"/>
<path d="M187.805 47.2237V41.1631H188.714V47.2237H187.805ZM188.267 40.153C188.09 40.153 187.937 40.0912 187.808 39.9676C187.683 39.8439 187.62 39.6953 187.62 39.5217C187.62 39.3481 187.683 39.1995 187.808 39.0758C187.937 38.9522 188.09 38.8904 188.267 38.8904C188.444 38.8904 188.596 38.9522 188.722 39.0758C188.85 39.1995 188.915 39.3481 188.915 39.5217C188.915 39.6953 188.85 39.8439 188.722 39.9676C188.596 40.0912 188.444 40.153 188.267 40.153Z" fill="#1D74BA"/>
<path d="M191.29 39.1429V47.2237H190.38V39.1429H191.29Z" fill="#1D74BA"/>
<path d="M192.956 47.2237V41.1631H193.866V47.2237H192.956ZM193.419 40.153C193.241 40.153 193.088 40.0912 192.96 39.9676C192.834 39.8439 192.771 39.6953 192.771 39.5217C192.771 39.3481 192.834 39.1995 192.96 39.0758C193.088 38.9522 193.241 38.8904 193.419 38.8904C193.596 38.8904 193.748 38.9522 193.874 39.0758C194.002 39.1995 194.066 39.3481 194.066 39.5217C194.066 39.6953 194.002 39.8439 193.874 39.9676C193.748 40.0912 193.596 40.153 193.419 40.153Z" fill="#1D74BA"/>
<path d="M195.532 49.4965V41.1631H196.411V42.1259H196.519C196.586 42.0207 196.678 41.8865 196.796 41.7234C196.917 41.5577 197.089 41.4104 197.313 41.2815C197.539 41.15 197.845 41.0842 198.23 41.0842C198.729 41.0842 199.168 41.2118 199.548 41.4669C199.929 41.7221 200.225 42.0838 200.439 42.552C200.652 43.0202 200.759 43.5726 200.759 44.2092C200.759 44.851 200.652 45.4074 200.439 45.8782C200.225 46.3465 199.93 46.7095 199.552 46.9673C199.174 47.2224 198.739 47.35 198.246 47.35C197.865 47.35 197.561 47.2855 197.332 47.1566C197.103 47.0251 196.927 46.8765 196.804 46.7108C196.681 46.5424 196.586 46.403 196.519 46.2925H196.442V49.4965H195.532ZM196.426 44.1934C196.426 44.6511 196.492 45.0549 196.623 45.4048C196.754 45.752 196.945 46.0242 197.197 46.2215C197.449 46.4162 197.757 46.5135 198.122 46.5135C198.502 46.5135 198.82 46.4109 199.074 46.2057C199.331 45.9979 199.524 45.7191 199.652 45.3692C199.783 45.0168 199.849 44.6248 199.849 44.1934C199.849 43.7673 199.785 43.3832 199.656 43.0413C199.53 42.6967 199.339 42.4244 199.082 42.2245C198.828 42.022 198.508 41.9207 198.122 41.9207C197.752 41.9207 197.441 42.0167 197.189 42.2087C196.938 42.3981 196.747 42.6638 196.619 43.0058C196.49 43.3451 196.426 43.741 196.426 44.1934Z" fill="#1D74BA"/>
<path d="M202.146 49.4965V41.1631H203.025V42.1259H203.133C203.2 42.0207 203.292 41.8865 203.411 41.7234C203.531 41.5577 203.704 41.4104 203.927 41.2815C204.153 41.15 204.459 41.0842 204.844 41.0842C205.343 41.0842 205.782 41.2118 206.163 41.4669C206.543 41.7221 206.84 42.0838 207.053 42.552C207.266 43.0202 207.373 43.5726 207.373 44.2092C207.373 44.851 207.266 45.4074 207.053 45.8782C206.84 46.3465 206.544 46.7095 206.167 46.9673C205.789 47.2224 205.353 47.35 204.86 47.35C204.48 47.35 204.175 47.2855 203.946 47.1566C203.718 47.0251 203.542 46.8765 203.418 46.7108C203.295 46.5424 203.2 46.403 203.133 46.2925H203.056V49.4965H202.146ZM203.041 44.1934C203.041 44.6511 203.106 45.0549 203.237 45.4048C203.368 45.752 203.56 46.0242 203.811 46.2215C204.063 46.4162 204.372 46.5135 204.737 46.5135C205.117 46.5135 205.434 46.4109 205.689 46.2057C205.946 45.9979 206.138 45.7191 206.267 45.3692C206.398 45.0168 206.463 44.6248 206.463 44.1934C206.463 43.7673 206.399 43.3832 206.271 43.0413C206.145 42.6967 205.953 42.4244 205.696 42.2245C205.442 42.022 205.122 41.9207 204.737 41.9207C204.367 41.9207 204.056 42.0167 203.804 42.2087C203.552 42.3981 203.362 42.6638 203.233 43.0058C203.105 43.3451 203.041 43.741 203.041 44.1934Z" fill="#1D74BA"/>
<path d="M208.761 47.2237V41.1631H209.67V47.2237H208.761ZM209.223 40.153C209.046 40.153 208.893 40.0912 208.765 39.9676C208.639 39.8439 208.576 39.6953 208.576 39.5217C208.576 39.3481 208.639 39.1995 208.765 39.0758C208.893 38.9522 209.046 38.8904 209.223 38.8904C209.401 38.8904 209.552 38.9522 209.678 39.0758C209.807 39.1995 209.871 39.3481 209.871 39.5217C209.871 39.6953 209.807 39.8439 209.678 39.9676C209.552 40.0912 209.401 40.153 209.223 40.153Z" fill="#1D74BA"/>
<path d="M212.246 43.5779V47.2237H211.336V41.1631H212.215V42.1101H212.292C212.431 41.8023 212.642 41.5551 212.925 41.3683C213.207 41.1789 213.572 41.0842 214.019 41.0842C214.42 41.0842 214.771 41.1684 215.071 41.3367C215.372 41.5024 215.606 41.755 215.773 42.0943C215.94 42.431 216.024 42.8571 216.024 43.3727V47.2237H215.114V43.4358C215.114 42.9597 214.993 42.5888 214.752 42.3232C214.51 42.0548 214.179 41.9207 213.757 41.9207C213.467 41.9207 213.207 41.9851 212.978 42.114C212.752 42.2429 212.574 42.431 212.443 42.6783C212.312 42.9255 212.246 43.2254 212.246 43.5779Z" fill="#1D74BA"/>
<path d="M220.168 47.35C219.598 47.35 219.106 47.2211 218.692 46.9633C218.281 46.7029 217.963 46.3399 217.74 45.8743C217.519 45.4061 217.408 44.8616 217.408 44.2408C217.408 43.62 217.519 43.0728 217.74 42.5994C217.963 42.1232 218.274 41.7523 218.673 41.4867C219.073 41.2184 219.541 41.0842 220.076 41.0842C220.384 41.0842 220.689 41.1368 220.989 41.242C221.29 41.3473 221.563 41.5182 221.81 41.755C222.057 41.9891 222.253 42.2995 222.4 42.6862C222.546 43.0728 222.62 43.549 222.62 44.1145V44.5091H218.056V43.7042H221.695C221.695 43.3622 221.628 43.0571 221.494 42.7887C221.363 42.5204 221.175 42.3087 220.931 42.1535C220.69 41.9983 220.405 41.9207 220.076 41.9207C219.713 41.9207 219.4 42.0128 219.135 42.1969C218.873 42.3784 218.671 42.6151 218.53 42.9071C218.389 43.1991 218.318 43.5121 218.318 43.8462V44.3828C218.318 44.8405 218.395 45.2285 218.549 45.5468C218.706 45.8625 218.923 46.1031 219.201 46.2689C219.478 46.432 219.801 46.5135 220.168 46.5135C220.407 46.5135 220.623 46.4793 220.816 46.4109C221.011 46.3399 221.179 46.2347 221.321 46.0953C221.462 45.9532 221.571 45.777 221.648 45.5665L222.527 45.8191C222.435 46.1242 222.279 46.3925 222.061 46.624C221.842 46.8528 221.572 47.0317 221.251 47.1606C220.93 47.2869 220.569 47.35 220.168 47.35Z" fill="#1D74BA"/>
<path d="M228.197 42.5204L227.38 42.7572C227.329 42.6178 227.253 42.4823 227.153 42.3508C227.055 42.2166 226.921 42.1061 226.752 42.0193C226.582 41.9325 226.365 41.8891 226.1 41.8891C225.738 41.8891 225.436 41.9746 225.194 42.1456C224.955 42.314 224.836 42.5283 224.836 42.7887C224.836 43.0202 224.918 43.2031 225.083 43.3372C225.247 43.4714 225.504 43.5832 225.854 43.6726L226.732 43.8935C227.262 44.0251 227.656 44.2263 227.916 44.4972C228.175 44.7656 228.305 45.1115 228.305 45.535C228.305 45.8822 228.207 46.1926 228.012 46.4662C227.819 46.7397 227.55 46.9554 227.203 47.1132C226.856 47.2711 226.452 47.35 225.992 47.35C225.388 47.35 224.889 47.2158 224.493 46.9475C224.097 46.6792 223.847 46.2873 223.741 45.7717L224.605 45.5507C224.687 45.8769 224.842 46.1216 225.071 46.2846C225.302 46.4477 225.604 46.5293 225.977 46.5293C226.401 46.5293 226.738 46.4372 226.987 46.2531C227.239 46.0663 227.365 45.8427 227.365 45.5823C227.365 45.3719 227.293 45.1956 227.149 45.0536C227.005 44.9089 226.784 44.8011 226.486 44.73L225.499 44.4933C224.957 44.3618 224.558 44.1579 224.304 43.8817C224.052 43.6029 223.926 43.2543 223.926 42.8361C223.926 42.4941 224.02 42.1916 224.208 41.9286C224.398 41.6655 224.656 41.459 224.982 41.3091C225.311 41.1592 225.684 41.0842 226.1 41.0842C226.686 41.0842 227.146 41.2157 227.48 41.4788C227.817 41.7418 228.056 42.089 228.197 42.5204Z" fill="#1D74BA"/>
<path d="M181.538 24.4172C181.538 23.2209 181.807 22.1478 182.345 21.1978C182.895 20.2478 183.634 19.5089 184.562 18.9811C185.502 18.4416 186.527 18.1719 187.639 18.1719C188.91 18.1719 190.039 18.4944 191.024 19.1395C192.021 19.7728 192.743 20.6759 193.19 21.8487H190.835C190.526 21.2037 190.096 20.7228 189.546 20.4061C188.996 20.0895 188.361 19.9311 187.639 19.9311C186.848 19.9311 186.144 20.1129 185.525 20.4765C184.906 20.8401 184.419 21.362 184.064 22.0422C183.72 22.7225 183.548 23.5142 183.548 24.4172C183.548 25.3203 183.72 26.112 184.064 26.7922C184.419 27.4725 184.906 28.0003 185.525 28.3756C186.144 28.7392 186.848 28.9209 187.639 28.9209C188.361 28.9209 188.996 28.7626 189.546 28.4459C190.096 28.1293 190.526 27.6484 190.835 27.0034H193.19C192.743 28.1762 192.021 29.0793 191.024 29.7126C190.039 30.3459 188.91 30.6626 187.639 30.6626C186.516 30.6626 185.49 30.3987 184.562 29.8709C183.634 29.3314 182.895 28.5867 182.345 27.6367C181.807 26.6867 181.538 25.6135 181.538 24.4172Z" fill="#1D74BA"/>
<path d="M200.931 30.6802C199.82 30.6802 198.794 30.4163 197.855 29.8885C196.927 29.349 196.188 28.6043 195.638 27.6543C195.099 26.6926 194.83 25.6135 194.83 24.4172C194.83 23.2209 195.099 22.1478 195.638 21.1978C196.188 20.2478 196.927 19.5089 197.855 18.9811C198.794 18.4416 199.82 18.1719 200.931 18.1719C202.054 18.1719 203.079 18.4416 204.007 18.9811C204.947 19.5089 205.686 20.2478 206.224 21.1978C206.763 22.1478 207.032 23.2209 207.032 24.4172C207.032 25.6135 206.763 26.6926 206.224 27.6543C205.686 28.6043 204.947 29.349 204.007 29.8885C203.079 30.4163 202.054 30.6802 200.931 30.6802ZM200.931 28.9385C201.722 28.9385 202.426 28.7568 203.045 28.3932C203.664 28.0179 204.145 27.4901 204.489 26.8098C204.844 26.1179 205.021 25.3203 205.021 24.4172C205.021 23.5142 204.844 22.7225 204.489 22.0422C204.145 21.362 203.664 20.8401 203.045 20.4765C202.426 20.1129 201.722 19.9311 200.931 19.9311C200.14 19.9311 199.436 20.1129 198.817 20.4765C198.198 20.8401 197.712 21.362 197.356 22.0422C197.013 22.7225 196.841 23.5142 196.841 24.4172C196.841 25.3203 197.013 26.1179 197.356 26.8098C197.712 27.4901 198.198 28.0179 198.817 28.3932C199.436 28.7568 200.14 28.9385 200.931 28.9385Z" fill="#1D74BA"/>
<path d="M215.164 30.5571L212.414 25.6663H210.919V30.5571H208.96V18.3302H213.085C214.001 18.3302 214.775 18.4944 215.405 18.8228C216.046 19.1512 216.522 19.591 216.831 20.1422C217.152 20.6935 217.312 21.3092 217.312 21.9895C217.312 22.787 217.083 23.5142 216.625 24.1709C216.178 24.816 215.485 25.2558 214.545 25.4904L217.501 30.5571H215.164ZM210.919 24.0654H213.085C213.818 24.0654 214.368 23.8777 214.735 23.5024C215.113 23.1271 215.302 22.6228 215.302 21.9895C215.302 21.3561 215.118 20.8635 214.752 20.5117C214.385 20.1481 213.829 19.9663 213.085 19.9663H210.919V24.0654Z" fill="#1D74BA"/>
<path d="M228.171 21.9719C228.171 22.5935 228.028 23.1799 227.742 23.7311C227.455 24.2824 226.997 24.7339 226.367 25.0858C225.736 25.4259 224.929 25.5959 223.943 25.5959H221.778V30.5571H219.819V18.3302H223.943C224.86 18.3302 225.633 18.4944 226.264 18.8228C226.905 19.1395 227.381 19.5734 227.69 20.1247C228.011 20.6759 228.171 21.2916 228.171 21.9719ZM223.943 23.9598C224.688 23.9598 225.244 23.7898 225.61 23.4497C225.977 23.0978 226.16 22.6052 226.16 21.9719C226.16 20.6348 225.421 19.9663 223.943 19.9663H221.778V23.9598H223.943Z" fill="#1D74BA"/>
</g>
<defs>
<linearGradient id="paint0_linear_824_111599" x1="21.2088" y1="50.0012" x2="21.2088" y2="1.64275" gradientUnits="userSpaceOnUse">
<stop stop-color="#08AFEF"/>
<stop offset="1" stop-color="#2671A8"/>
</linearGradient>
<clipPath id="clip0_824_111599">
<rect width="227.941" height="50" fill="white"/>
</clipPath>
</defs>
</svg>
