<svg width="244" height="50" viewBox="0 0 244 50" fill="none" xmlns="http://www.w3.org/2000/svg">
<g clip-path="url(#clip0_824_111629)">
<path d="M55.1465 30.5841V16.8294H49.4297V14.7266H64.8686V16.8294H59.1518V30.5841H55.1436H55.1465Z" fill="#1D74BA"/>
<path d="M69.0166 30.5841C67.5233 30.5841 66.9062 30.0136 66.9062 28.6117V16.6989C66.9062 15.297 67.5233 14.7266 69.0166 14.7266H81.2536V16.8294H71.6247C71.1502 16.8294 70.9144 17.0478 70.9144 17.4878V21.1897H80.7559V23.1621H70.9144V27.8258C70.9144 28.2628 71.1502 28.4843 71.6247 28.4843H81.2536V30.5871H69.0166V30.5841Z" fill="#1D74BA"/>
<path d="M98.4297 30.4073C88.1837 31.8092 83.2266 29.5304 83.2266 22.6758C83.2266 19.2379 84.4375 16.8954 86.8796 15.6907C89.3218 14.4861 93.1641 14.2009 98.4064 14.8381V16.9621C89.5372 15.9972 87.1649 17.5963 87.1649 22.6788C87.1649 27.7614 89.8225 29.3362 98.4297 28.2863V30.4103V30.4073Z" fill="#1D74BA"/>
<path d="M100.922 30.581V14.7266H104.953V21.0562H113.919V14.7266H117.95V30.581H113.919V23.2015H104.953V30.581H100.922Z" fill="#1D74BA"/>
<path d="M121.508 30.581V14.7266H123.857C125.018 14.7266 125.921 15.121 126.584 15.8887L136.001 26.7304V14.7296H138.492V30.5841H136.193C135.031 30.5841 134.129 30.1896 133.489 29.4219L124.002 18.4285V30.5841H121.511L121.508 30.581Z" fill="#1D74BA"/>
<path d="M140.047 30.581L147.423 22.4126L140.687 14.7266H145.359L150.436 20.5738L155.369 14.7266H158.618L152.002 22.2609L159.331 30.5841H154.586L149.035 24.1907L143.391 30.5841H140.047V30.581Z" fill="#1D74BA"/>
<path d="M164.904 30.5841V16.8294H159.188V14.7266H174.626V16.8294H168.91V30.5841H164.901H164.904Z" fill="#1D74BA"/>
<path d="M51.2838 2.3655C51.1499 2.29571 51.016 2.19254 50.917 2.05296C50.8501 1.91338 50.818 1.74043 50.818 1.60085C51.0509 1.53105 51.2838 1.56747 51.5166 1.63422C51.7495 1.70098 51.9503 1.87697 52.0842 2.04993C52.0173 2.18951 51.8834 2.29268 51.7175 2.36247C51.5836 2.43226 51.4177 2.43226 51.2517 2.36247H51.2838V2.3655ZM51.6505 1.32168C51.3158 1.1821 50.9519 1.1821 50.6172 1.32168C50.7162 1.04252 50.885 0.836189 51.1178 0.729987C51.3507 0.623784 51.6185 0.590406 51.8514 0.696609C52.0842 0.799777 52.2851 0.975769 52.3841 1.21852C52.483 1.46126 52.5179 1.74043 52.4161 1.98317C52.2152 1.70401 51.9503 1.46126 51.6156 1.32168H51.6476H51.6505ZM52.7159 1.07894C52.6169 0.869567 52.483 0.729987 52.3171 0.593441C52.1512 0.456895 51.9503 0.384071 51.7495 0.350693C51.5486 0.317315 51.3507 0.350693 51.1499 0.384071C50.949 0.453861 50.7831 0.557029 50.6172 0.733021C50.7162 0.490273 50.917 0.317315 51.1499 0.211113C51.3827 0.10491 51.6156 0.0715326 51.8834 0.107945C52.1163 0.177735 52.3491 0.317315 52.5179 0.490273C52.6839 0.699643 52.7508 0.942391 52.7857 1.21852C52.7857 1.18514 52.7857 1.14873 52.7537 1.11535L52.7217 1.08197L52.7159 1.07894Z" fill="#1D74BA"/>
<path fill-rule="evenodd" clip-rule="evenodd" d="M67.6504 10.0788C67.3506 10.0788 66.9518 10.009 66.6841 9.6267C66.3493 9.17458 66.3173 8.37655 66.6171 7.36914L67.5165 4.34693C66.9169 5.00842 66.1485 5.35433 65.7497 5.28454C64.8823 5.14496 65.0162 4.20735 65.4819 3.79165C65.316 3.61869 65.1151 3.47911 64.9143 3.47911C64.2797 3.47911 63.6801 4.38334 63.0485 5.32096C63.0164 5.39075 62.9495 5.46054 62.9146 5.53033L62.8476 5.70329L61.5814 10.0485H59.8466L61.9453 2.89044C60.9789 3.34256 60.1784 3.96764 59.5788 4.55934V4.94166C59.5468 5.22082 59.4798 5.53336 59.4449 5.80949C58.8773 8.62536 56.9125 10.0485 55.2766 10.0485C54.9768 10.0485 54.677 9.97868 54.4092 9.87551C53.8096 9.63277 53.4079 9.25044 53.175 8.69515C52.9742 8.17324 52.9421 7.54817 53.0411 6.8533V6.75014C51.8419 7.82733 51.3063 9.00769 50.9075 10.0515H49.1406L50.3079 3.69151C50.008 4.21342 49.5743 4.55934 49.1406 4.87187V4.76871C49.8392 4.07384 50.2729 3.34256 50.5087 2.58094L52.0747 3.3456L51.2422 8.0367C51.8768 7.30846 52.4415 6.85634 53.143 6.33443C53.5418 5.01449 54.4761 3.79771 55.6434 3.13623C56.243 2.78728 56.9445 2.58094 57.5441 2.58094C58.1437 2.58094 59.0781 2.7539 59.4449 3.8675C60.3123 3.27581 61.0778 2.96327 62.0122 2.58094L63.5113 3.27581L62.9437 5.25724C63.3104 4.59575 63.8111 3.83109 64.9114 2.82369C65.1442 2.68411 65.3771 2.61432 65.5779 2.61432C66.0437 2.61432 66.4104 3.03002 66.6782 3.86447C67.077 3.93426 67.5107 3.86447 67.9124 2.96023L68.7129 0.0078125L70.212 0.632888L69.5454 3.23939H70.7126L70.4128 3.83109H69.4115L68.0783 8.4524C67.9444 8.90452 67.9794 9.18065 68.1104 9.39002C68.1773 9.49319 68.3112 9.59939 68.5441 9.59939C69.1786 9.59939 70.177 8.76494 70.7097 7.82733C70.7097 7.75754 70.7097 7.65437 70.7417 7.58458C70.9076 6.64697 71.2744 5.29061 72.1098 4.21342C72.8753 3.20602 73.8767 2.68411 75.0759 2.65073H78.6096L78.5107 2.99968C78.1759 4.14666 77.911 5.0509 77.6782 5.91872V6.0583H77.6462C77.4133 6.89275 77.1804 7.65741 76.9476 8.52523C76.8486 8.94094 76.8486 9.2201 76.9796 9.39305C77.0465 9.49622 77.1804 9.60242 77.4133 9.60242C78.0799 9.60242 79.2122 8.66481 79.6459 7.7272H79.8118C79.0463 9.22009 77.5792 10.091 76.5779 10.091C75.5766 10.091 75.9113 9.98779 75.7105 9.77842C75.4776 9.53567 75.3757 9.18672 75.3757 8.7346V8.17931L75.041 8.63143C74.3744 9.56905 73.408 10.1243 72.4736 10.1243C71.906 10.1243 71.4403 9.91496 71.1056 9.53263C70.8378 9.18368 70.7068 8.7346 70.7068 8.17628C70.372 8.66178 70.0082 9.08052 69.5396 9.39305C68.905 9.84517 68.2384 10.1213 67.6737 10.1213L67.6417 10.0879L67.6504 10.0788ZM75.4485 2.92079C74.4821 2.92079 73.2829 4.38031 72.7473 6.22216C72.3485 7.57851 72.3485 8.61929 72.7152 9.10782C72.8491 9.31719 73.05 9.42036 73.3149 9.42036C73.8475 9.42036 74.5811 8.86508 75.4485 7.78788L76.5138 3.79165V3.72186C76.1791 3.06037 75.7483 2.92382 75.4485 2.92382V2.92079ZM55.7831 3.75523C56.1178 3.33953 56.4497 3.13016 56.7844 3.13016C57.483 3.13016 57.9167 3.9646 58.0186 4.76264C58.0855 5.14496 58.0506 5.52729 58.0186 5.90962C58.0186 5.90962 58.0186 5.943 57.9866 6.11899V6.18878V6.25857C57.6198 7.75147 56.8863 9.38698 55.8529 9.38698C54.8196 9.38698 55.5182 9.35361 55.3872 9.2474C55.0525 9.03803 54.8545 8.69212 54.7527 8.17021C54.4849 6.74407 55.2533 4.5563 55.885 3.72186L55.786 3.75523H55.7831Z" fill="#1D74BA"/>
<path d="M43.0305 8.4761C40.108 6.44005 32.799 1.93708 22.518 1.65792C11.0465 1.34841 2.8555 6.4886 0 8.4761C0.0203757 13.7741 0.698595 33.2728 14.4929 45.1219C16.9002 47.1883 19.4209 48.7783 21.9242 50.0012C24.8147 48.6782 27.8943 46.7969 30.8051 44.0933C44.0085 31.8345 43.2575 12.4086 43.0305 8.4761Z" fill="url(#paint0_linear_824_111629)"/>
<path d="M21.5635 8.75391L9.51562 16.0363V30.6012L21.5635 38.0384L33.6113 30.6012V16.0363L21.5635 8.75391Z" fill="white"/>
<path d="M21.4198 34.8477L12.0703 29.0764V17.7734L21.4198 23.4841V34.8477Z" fill="#1D74BA"/>
<path d="M21.5625 35.1131L11.9219 29.1627V17.5078L21.5625 23.3975V35.1131ZM12.213 28.9898L21.2714 34.5821V23.5704L12.213 18.0388V28.9898Z" fill="#1D74BA"/>
<path d="M12.2109 17.5085L21.5634 11.8555L30.9129 17.5085L21.5634 23.2221L12.2109 17.5085Z" fill="#69BD47"/>
<path d="M21.5625 23.3983L11.9219 17.5087L21.5625 11.6797L31.2002 17.5087L21.5625 23.3983ZM12.4982 17.5087L21.5625 23.0464L30.6238 17.5087L21.5625 12.0317L12.4982 17.5087Z" fill="#69BD47"/>
<path d="M31.0605 29.0764L21.7109 34.8477V23.4841L31.0605 17.7734V29.0764Z" fill="#01A69E"/>
<path d="M21.5625 35.1131V23.3975L31.2031 17.5078V29.1627L21.5625 35.1131ZM21.8536 23.5704V34.5821L30.912 28.9898V18.0388L21.8536 23.5704Z" fill="#01A69E"/>
<path d="M182.555 24.3653C182.555 23.1827 182.826 22.1218 183.369 21.1827C183.923 20.2436 184.668 19.5131 185.604 18.9914C186.551 18.4581 187.585 18.1914 188.705 18.1914C189.987 18.1914 191.125 18.5102 192.118 19.1479C193.123 19.774 193.85 20.6668 194.301 21.8262H191.927C191.616 21.1885 191.182 20.7131 190.628 20.4001C190.074 20.0871 189.433 19.9305 188.705 19.9305C187.908 19.9305 187.198 20.1102 186.574 20.4697C185.95 20.8291 185.459 21.345 185.101 22.0175C184.755 22.69 184.582 23.4726 184.582 24.3653C184.582 25.2581 184.755 26.0407 185.101 26.7131C185.459 27.3856 185.95 27.9073 186.574 28.2784C187.198 28.6378 187.908 28.8175 188.705 28.8175C189.433 28.8175 190.074 28.661 190.628 28.3479C191.182 28.0349 191.616 27.5595 191.927 26.9218H194.301C193.85 28.0813 193.123 28.974 192.118 29.6001C191.125 30.2262 189.987 30.5392 188.705 30.5392C187.573 30.5392 186.539 30.2784 185.604 29.7566C184.668 29.2233 183.923 28.4871 183.369 27.5479C182.826 26.6088 182.555 25.5479 182.555 24.3653Z" fill="#1D74BA"/>
<path d="M202.105 30.5566C200.984 30.5566 199.951 30.2958 199.004 29.774C198.068 29.2407 197.323 28.5045 196.769 27.5653C196.226 26.6146 195.954 25.5479 195.954 24.3653C195.954 23.1827 196.226 22.1218 196.769 21.1827C197.323 20.2436 198.068 19.5131 199.004 18.9914C199.951 18.4581 200.984 18.1914 202.105 18.1914C203.237 18.1914 204.27 18.4581 205.206 18.9914C206.153 19.5131 206.898 20.2436 207.441 21.1827C207.984 22.1218 208.255 23.1827 208.255 24.3653C208.255 25.5479 207.984 26.6146 207.441 27.5653C206.898 28.5045 206.153 29.2407 205.206 29.774C204.27 30.2958 203.237 30.5566 202.105 30.5566ZM202.105 28.8349C202.902 28.8349 203.612 28.6552 204.236 28.2958C204.859 27.9247 205.344 27.403 205.691 26.7305C206.049 26.0465 206.228 25.2581 206.228 24.3653C206.228 23.4726 206.049 22.69 205.691 22.0175C205.344 21.345 204.859 20.8291 204.236 20.4697C203.612 20.1102 202.902 19.9305 202.105 19.9305C201.308 19.9305 200.597 20.1102 199.974 20.4697C199.35 20.8291 198.859 21.345 198.501 22.0175C198.155 22.69 197.981 23.4726 197.981 24.3653C197.981 25.2581 198.155 26.0465 198.501 26.7305C198.859 27.403 199.35 27.9247 199.974 28.2958C200.597 28.6552 201.308 28.8349 202.105 28.8349Z" fill="#1D74BA"/>
<path d="M216.674 28.8349H220.745V30.4349H214.699V18.3479H216.674V28.8349Z" fill="#1D74BA"/>
<path d="M230.176 18.3479V19.9653H226.971V30.4349H224.996V19.9653H221.773V18.3479H230.176Z" fill="#1D74BA"/>
<path d="M236.109 18.3479C237.391 18.3479 238.511 18.5972 239.47 19.0958C240.44 19.5827 241.185 20.29 241.705 21.2175C242.236 22.1334 242.502 23.2059 242.502 24.4349C242.502 25.6639 242.236 26.7305 241.705 27.6349C241.185 28.5392 240.44 29.2349 239.47 29.7218C238.511 30.1972 237.391 30.4349 236.109 30.4349H232.176V18.3479H236.109ZM236.109 28.8175C237.518 28.8175 238.598 28.4349 239.348 27.6697C240.099 26.9045 240.475 25.8262 240.475 24.4349C240.475 23.032 240.099 21.9363 239.348 21.1479C238.598 20.3595 237.518 19.9653 236.109 19.9653H234.151V28.8175H236.109Z" fill="#1D74BA"/>
<path d="M204.731 42.6805V43.4313H202.811V49.7515H201.891V43.4313H199.961V42.6805H204.731Z" fill="#1D74BA"/>
<path d="M208.612 44.0907C209.03 44.0907 209.407 44.182 209.744 44.3646C210.081 44.5404 210.343 44.8076 210.532 45.166C210.728 45.5245 210.825 45.9607 210.825 46.4747V49.7515H209.916V46.6066C209.916 46.052 209.778 45.6293 209.501 45.3385C209.225 45.0409 208.848 44.8921 208.369 44.8921C207.884 44.8921 207.497 45.0443 207.207 45.3486C206.924 45.653 206.783 46.096 206.783 46.6776V49.7515H205.863V42.2443H206.783V44.9834C206.965 44.6994 207.214 44.4796 207.531 44.324C207.854 44.1684 208.214 44.0907 208.612 44.0907Z" fill="#1D74BA"/>
<path d="M211.984 46.9515C211.984 46.3834 212.098 45.8863 212.327 45.4602C212.557 45.0274 212.87 44.6926 213.267 44.4559C213.672 44.2192 214.12 44.1008 214.611 44.1008C215.097 44.1008 215.518 44.2056 215.875 44.4153C216.232 44.625 216.498 44.8887 216.673 45.2066V44.1921H217.603V49.7515H216.673V48.7168C216.491 49.0414 216.218 49.3119 215.854 49.5284C215.497 49.738 215.08 49.8428 214.601 49.8428C214.11 49.8428 213.665 49.7211 213.267 49.4776C212.87 49.2341 212.557 48.8926 212.327 48.453C212.098 48.0134 211.984 47.5129 211.984 46.9515ZM216.673 46.9617C216.673 46.5424 216.589 46.1771 216.42 45.866C216.252 45.5549 216.023 45.3182 215.733 45.1559C215.45 44.9868 215.137 44.9023 214.793 44.9023C214.45 44.9023 214.136 44.9834 213.853 45.1457C213.571 45.3081 213.345 45.5448 213.176 45.8559C213.008 46.167 212.924 46.5322 212.924 46.9515C212.924 47.3776 213.008 47.7496 213.176 48.0675C213.345 48.3786 213.571 48.6187 213.853 48.7878C214.136 48.9501 214.45 49.0313 214.793 49.0313C215.137 49.0313 215.45 48.9501 215.733 48.7878C216.023 48.6187 216.252 48.3786 216.42 48.0675C216.589 47.7496 216.673 47.381 216.673 46.9617Z" fill="#1D74BA"/>
<path d="M219.632 43.2892C219.457 43.2892 219.309 43.2284 219.187 43.1066C219.066 42.9849 219.005 42.8361 219.005 42.6602C219.005 42.4844 219.066 42.3356 219.187 42.2139C219.309 42.0921 219.457 42.0312 219.632 42.0312C219.8 42.0312 219.942 42.0921 220.056 42.2139C220.178 42.3356 220.238 42.4844 220.238 42.6602C220.238 42.8361 220.178 42.9849 220.056 43.1066C219.942 43.2284 219.8 43.2892 219.632 43.2892ZM220.077 44.1921V49.7515H219.157V44.1921H220.077Z" fill="#1D74BA"/>
<path d="M222.564 42.2443V49.7515H221.644V42.2443H222.564Z" fill="#1D74BA"/>
<path d="M223.788 46.9515C223.788 46.3834 223.902 45.8863 224.131 45.4602C224.36 45.0274 224.673 44.6926 225.071 44.4559C225.475 44.2192 225.923 44.1008 226.415 44.1008C226.9 44.1008 227.321 44.2056 227.678 44.4153C228.035 44.625 228.302 44.8887 228.477 45.2066V44.1921H229.407V49.7515H228.477V48.7168C228.295 49.0414 228.022 49.3119 227.658 49.5284C227.301 49.738 226.883 49.8428 226.405 49.8428C225.913 49.8428 225.468 49.7211 225.071 49.4776C224.673 49.2341 224.36 48.8926 224.131 48.453C223.902 48.0134 223.788 47.5129 223.788 46.9515ZM228.477 46.9617C228.477 46.5424 228.393 46.1771 228.224 45.866C228.056 45.5549 227.827 45.3182 227.537 45.1559C227.254 44.9868 226.941 44.9023 226.597 44.9023C226.253 44.9023 225.94 44.9834 225.657 45.1457C225.374 45.3081 225.148 45.5448 224.98 45.8559C224.812 46.167 224.727 46.5322 224.727 46.9515C224.727 47.3776 224.812 47.7496 224.98 48.0675C225.148 48.3786 225.374 48.6187 225.657 48.7878C225.94 48.9501 226.253 49.0313 226.597 49.0313C226.941 49.0313 227.254 48.9501 227.537 48.7878C227.827 48.6187 228.056 48.3786 228.224 48.0675C228.393 47.7496 228.477 47.381 228.477 46.9617Z" fill="#1D74BA"/>
<path d="M233.659 44.0907C234.333 44.0907 234.878 44.297 235.296 44.7095C235.714 45.1153 235.923 45.7037 235.923 46.4747V49.7515H235.013V46.6066C235.013 46.052 234.875 45.6293 234.599 45.3385C234.323 45.0409 233.945 44.8921 233.467 44.8921C232.982 44.8921 232.594 45.0443 232.305 45.3486C232.022 45.653 231.88 46.096 231.88 46.6776V49.7515H230.961V44.1921H231.88V44.9834C232.062 44.6994 232.308 44.4796 232.618 44.324C232.935 44.1684 233.282 44.0907 233.659 44.0907Z" fill="#1D74BA"/>
<path d="M237.081 46.9515C237.081 46.3834 237.196 45.8863 237.425 45.4602C237.654 45.0274 237.967 44.6926 238.365 44.4559C238.769 44.2192 239.221 44.1008 239.719 44.1008C240.15 44.1008 240.551 44.2023 240.922 44.4052C241.292 44.6013 241.575 44.8617 241.771 45.1863V42.2443H242.7V49.7515H241.771V48.7066C241.589 49.038 241.319 49.3119 240.962 49.5284C240.605 49.738 240.187 49.8428 239.709 49.8428C239.217 49.8428 238.769 49.7211 238.365 49.4776C237.967 49.2341 237.654 48.8926 237.425 48.453C237.196 48.0134 237.081 47.5129 237.081 46.9515ZM241.771 46.9617C241.771 46.5424 241.686 46.1771 241.518 45.866C241.35 45.5549 241.121 45.3182 240.831 45.1559C240.548 44.9868 240.235 44.9023 239.891 44.9023C239.547 44.9023 239.234 44.9834 238.951 45.1457C238.668 45.3081 238.442 45.5448 238.274 45.8559C238.106 46.167 238.021 46.5322 238.021 46.9515C238.021 47.3776 238.106 47.7496 238.274 48.0675C238.442 48.3786 238.668 48.6187 238.951 48.7878C239.234 48.9501 239.547 49.0313 239.891 49.0313C240.235 49.0313 240.548 48.9501 240.831 48.7878C241.121 48.6187 241.35 48.3786 241.518 48.0675C241.686 47.7496 241.771 47.381 241.771 46.9617Z" fill="#1D74BA"/>
</g>
<defs>
<linearGradient id="paint0_linear_824_111629" x1="21.5604" y1="50.0012" x2="21.5604" y2="1.64275" gradientUnits="userSpaceOnUse">
<stop stop-color="#08AFEF"/>
<stop offset="1" stop-color="#2671A8"/>
</linearGradient>
<clipPath id="clip0_824_111629">
<rect width="243.269" height="50" fill="white"/>
</clipPath>
</defs>
</svg>
