<svg width="259" height="50" viewBox="0 0 259 50" fill="none" xmlns="http://www.w3.org/2000/svg">
<g clip-path="url(#clip0_824_111692)">
<path d="M54.7456 30.5841V16.8294H49.0703V14.7266H64.397V16.8294H58.7218V30.5841H54.7427H54.7456Z" fill="#1D74BA"/>
<path d="M68.5169 30.5841C67.0345 30.5841 66.4219 30.0136 66.4219 28.6117V16.6989C66.4219 15.297 67.0345 14.7266 68.5169 14.7266H80.665V16.8294H71.106C70.635 16.8294 70.4009 17.0478 70.4009 17.4878V21.1897H80.1709V23.1621H70.4009V27.8258C70.4009 28.2628 70.635 28.4843 71.106 28.4843H80.665V30.5871H68.5169V30.5841Z" fill="#1D74BA"/>
<path d="M97.7177 30.4073C87.5461 31.8092 82.625 29.5304 82.625 22.6758C82.625 19.2379 83.8271 16.8954 86.2515 15.6907C88.6759 14.4861 92.4903 14.2009 97.6946 14.8381V16.9621C88.8898 15.9972 86.5347 17.5963 86.5347 22.6788C86.5347 27.7614 89.173 29.3362 97.7177 28.2863V30.4103V30.4073Z" fill="#1D74BA"/>
<path d="M100.188 30.581V14.7266H104.19V21.0562H113.09V14.7266H117.092V30.581H113.09V23.2015H104.19V30.581H100.188Z" fill="#1D74BA"/>
<path d="M120.617 30.581V14.7266H122.949C124.102 14.7266 124.998 15.121 125.657 15.8887L135.005 26.7304V14.7296H137.478V30.5841H135.195C134.043 30.5841 133.147 30.1896 132.511 29.4219L123.094 18.4285V30.5841H120.62L120.617 30.581Z" fill="#1D74BA"/>
<path d="M139.031 30.581L146.354 22.4126L139.667 14.7266H144.305L149.344 20.5738L154.242 14.7266H157.467L150.899 22.2609L158.175 30.5841H153.465L147.955 24.1907L142.351 30.5841H139.031V30.581Z" fill="#1D74BA"/>
<path d="M163.707 30.5841V16.8294H158.031V14.7266H173.358V16.8294H167.683V30.5841H163.704H163.707Z" fill="#1D74BA"/>
<path d="M50.9117 2.3655C50.7788 2.29571 50.6459 2.19254 50.5476 2.05296C50.4812 1.91338 50.4494 1.74043 50.4494 1.60085C50.6806 1.53105 50.9117 1.56747 51.1429 1.63422C51.3741 1.70098 51.5735 1.87697 51.7064 2.04993C51.6399 2.18951 51.507 2.29268 51.3423 2.36247C51.2094 2.43226 51.0447 2.43226 50.8799 2.36247H50.9117V2.3655ZM51.2758 1.32168C50.9435 1.1821 50.5823 1.1821 50.25 1.32168C50.3482 1.04252 50.5158 0.836189 50.747 0.729987C50.9782 0.623784 51.244 0.590406 51.4752 0.696609C51.7064 0.799777 51.9058 0.975769 52.004 1.21852C52.1023 1.46126 52.1369 1.74043 52.0358 1.98317C51.8364 1.70401 51.5735 1.46126 51.2412 1.32168H51.2729H51.2758ZM52.3334 1.07894C52.2352 0.869567 52.1023 0.729987 51.9376 0.593441C51.7728 0.456895 51.5735 0.384071 51.3741 0.350693C51.1747 0.317315 50.9782 0.350693 50.7788 0.384071C50.5794 0.453861 50.4147 0.557029 50.25 0.733021C50.3482 0.490273 50.5476 0.317315 50.7788 0.211113C51.01 0.10491 51.2412 0.0715326 51.507 0.107945C51.7382 0.177735 51.9693 0.317315 52.1369 0.490273C52.3017 0.699643 52.3681 0.942391 52.4028 1.21852C52.4028 1.18514 52.4028 1.14873 52.371 1.11535L52.3392 1.08197L52.3334 1.07894Z" fill="#1D74BA"/>
<path fill-rule="evenodd" clip-rule="evenodd" d="M67.1565 10.0788C66.8589 10.0788 66.463 10.009 66.1972 9.6267C65.8649 9.17458 65.8331 8.37655 66.1307 7.36914L67.0236 4.34693C66.4284 5.00842 65.6655 5.35433 65.2696 5.28454C64.4085 5.14496 64.5414 4.20735 65.0038 3.79165C64.839 3.61869 64.6397 3.47911 64.4403 3.47911C63.8103 3.47911 63.2151 4.38334 62.588 5.32096C62.5562 5.39075 62.4898 5.46054 62.4551 5.53033L62.3886 5.70329L61.1316 10.0485H59.4094L61.4928 2.89044C60.5335 3.34256 59.7388 3.96764 59.1435 4.55934V4.94166C59.1118 5.22082 59.0453 5.53336 59.0106 5.80949C58.4471 8.62536 56.4966 10.0485 54.8726 10.0485C54.575 10.0485 54.2774 9.97868 54.0115 9.87551C53.4163 9.63277 53.0175 9.25044 52.7863 8.69515C52.5869 8.17324 52.5551 7.54817 52.6534 6.8533V6.75014C51.4628 7.82733 50.9311 9.00769 50.5353 10.0515H48.7812L49.94 3.69151C49.6424 4.21342 49.2118 4.55934 48.7812 4.87187V4.76871C49.4748 4.07384 49.9053 3.34256 50.1394 2.58094L51.694 3.3456L50.8676 8.0367C51.4975 7.30846 52.0581 6.85634 52.7545 6.33443C53.1504 5.01449 54.078 3.79771 55.2367 3.13623C55.832 2.78728 56.5284 2.58094 57.1237 2.58094C57.7189 2.58094 58.6465 2.7539 59.0106 3.8675C59.8717 3.27581 60.6317 2.96327 61.5593 2.58094L63.0475 3.27581L62.484 5.25724C62.8481 4.59575 63.3451 3.83109 64.4374 2.82369C64.6686 2.68411 64.8997 2.61432 65.0991 2.61432C65.5615 2.61432 65.9256 3.03002 66.1914 3.86447C66.5873 3.93426 67.0178 3.86447 67.4166 2.96023L68.2113 0.0078125L69.6994 0.632888L69.0377 3.23939H70.1965L69.8988 3.83109H68.9048L67.5813 8.4524C67.4484 8.90452 67.4831 9.18065 67.6131 9.39002C67.6796 9.49319 67.8125 9.59939 68.0437 9.59939C68.6736 9.59939 69.6648 8.76494 70.1936 7.82733C70.1936 7.75754 70.1936 7.65437 70.2254 7.58458C70.3901 6.64697 70.7542 5.29061 71.5835 4.21342C72.3435 3.20602 73.3375 2.68411 74.5281 2.65073H78.0361L77.9378 2.99968C77.6055 4.14666 77.3426 5.0509 77.1114 5.91872V6.0583H77.0796C76.8484 6.89275 76.6173 7.65741 76.3861 8.52523C76.2879 8.94094 76.2878 9.2201 76.4179 9.39305C76.4843 9.49622 76.6173 9.60242 76.8484 9.60242C77.5102 9.60242 78.6342 8.66481 79.0648 7.7272H79.2295C78.4695 9.22009 77.0131 10.091 76.0191 10.091C75.0251 10.091 75.3574 9.98779 75.158 9.77842C74.9268 9.53567 74.8257 9.18672 74.8257 8.7346V8.17931L74.4934 8.63143C73.8316 9.56905 72.8723 10.1243 71.9447 10.1243C71.3812 10.1243 70.9189 9.91496 70.5866 9.53263C70.3207 9.18368 70.1907 8.7346 70.1907 8.17628C69.8584 8.66178 69.4972 9.08052 69.0319 9.39305C68.402 9.84517 67.7403 10.1213 67.1797 10.1213L67.1479 10.0879L67.1565 10.0788ZM74.8979 2.92079C73.9386 2.92079 72.748 4.38031 72.2163 6.22216C71.8204 7.57851 71.8204 8.61929 72.1845 9.10782C72.3175 9.31719 72.5169 9.42036 72.7798 9.42036C73.3086 9.42036 74.0368 8.86508 74.8979 7.78788L75.9555 3.79165V3.72186C75.6232 3.06037 75.1956 2.92382 74.8979 2.92382V2.92079ZM55.3754 3.75523C55.7077 3.33953 56.0372 3.13016 56.3695 3.13016C57.063 3.13016 57.4936 3.9646 57.5947 4.76264C57.6612 5.14496 57.6265 5.52729 57.5947 5.90962C57.5947 5.90962 57.5947 5.943 57.5629 6.11899V6.18878V6.25857C57.1988 7.75147 56.4706 9.38698 55.4448 9.38698C54.419 9.38698 55.1125 9.35361 54.9824 9.2474C54.6501 9.03803 54.4536 8.69212 54.3525 8.17021C54.0867 6.74407 54.8495 4.5563 55.4766 3.72186L55.3783 3.75523H55.3754Z" fill="#1D74BA"/>
<path d="M42.7178 8.4761C39.8166 6.44005 32.5606 1.93708 22.3544 1.65792C10.9662 1.34841 2.83475 6.4886 0 8.4761C0.0202276 13.7741 0.693518 33.2728 14.3876 45.1219C16.7773 47.1883 19.2798 48.7783 21.7649 50.0012C24.6343 48.6782 27.6916 46.7969 30.5812 44.0933C43.6887 31.8345 42.9432 12.4086 42.7178 8.4761Z" fill="url(#paint0_linear_824_111692)"/>
<path d="M21.4056 8.75391L9.44531 16.0363V30.6012L21.4056 38.0384L33.3659 30.6012V16.0363L21.4056 8.75391Z" fill="white"/>
<path d="M21.2581 34.8477L11.9766 29.0764V17.7734L21.2581 23.4841V34.8477Z" fill="#1D74BA"/>
<path d="M21.4065 35.1131L11.8359 29.1627V17.5078L21.4065 23.3975V35.1131ZM12.1249 28.9898L21.1175 34.5821V23.5704L12.1249 18.0388V28.9898Z" fill="#1D74BA"/>
<path d="M12.125 17.5085L21.4095 11.8555L30.691 17.5085L21.4095 23.2221L12.125 17.5085Z" fill="#69BD47"/>
<path d="M21.4065 23.3983L11.8359 17.5087L21.4065 11.6797L30.9741 17.5087L21.4065 23.3983ZM12.4081 17.5087L21.4065 23.0464L30.402 17.5087L21.4065 12.0317L12.4081 17.5087Z" fill="#69BD47"/>
<path d="M30.8284 29.0764L21.5469 34.8477V23.4841L30.8284 17.7734V29.0764Z" fill="#01A69E"/>
<path d="M21.4062 35.1131V23.3975L30.9768 17.5078V29.1627L21.4062 35.1131ZM21.6952 23.5704V34.5821L30.6878 28.9898V18.0388L21.6952 23.5704Z" fill="#01A69E"/>
<path d="M229.307 47.2237H228.296L231.221 39.1429H232.217L235.142 47.2237H234.131L231.75 40.4213H231.688L229.307 47.2237ZM229.681 44.0672H233.757V44.9352H229.681V44.0672Z" fill="#1D74BA"/>
<path d="M238.919 41.1631V41.9523H235.698V41.1631H238.919ZM236.663 47.2237V40.3266C236.663 39.9794 236.743 39.6901 236.904 39.4586C237.065 39.2271 237.274 39.0535 237.531 38.9377C237.787 38.822 238.058 38.7641 238.344 38.7641C238.569 38.7641 238.753 38.7825 238.896 38.8194C239.039 38.8562 239.145 38.8904 239.215 38.922L238.95 39.7269C238.904 39.7111 238.839 39.6914 238.756 39.6677C238.676 39.644 238.569 39.6322 238.437 39.6322C238.134 39.6322 237.914 39.7098 237.78 39.865C237.647 40.0202 237.581 40.2477 237.581 40.5476V47.2237H236.663Z" fill="#1D74BA"/>
<path d="M240.206 47.2237V41.1631H241.093V42.0785H241.155C241.264 41.7787 241.461 41.5353 241.746 41.3486C242.032 41.1618 242.353 41.0684 242.711 41.0684C242.778 41.0684 242.863 41.0697 242.964 41.0724C243.065 41.075 243.141 41.0789 243.193 41.0842V42.0312C243.162 42.0233 243.091 42.0114 242.979 41.9957C242.87 41.9773 242.755 41.968 242.633 41.968C242.343 41.968 242.083 42.0299 241.855 42.1535C241.63 42.2745 241.451 42.4428 241.318 42.6585C241.189 42.8716 241.124 43.1149 241.124 43.3885V47.2237H240.206Z" fill="#1D74BA"/>
<path d="M244.282 47.2237V41.1631H245.2V47.2237H244.282ZM244.748 40.153C244.569 40.153 244.415 40.0912 244.285 39.9676C244.158 39.8439 244.095 39.6953 244.095 39.5217C244.095 39.3481 244.158 39.1995 244.285 39.0758C244.415 38.9522 244.569 38.8904 244.748 38.8904C244.927 38.8904 245.08 38.9522 245.207 39.0758C245.337 39.1995 245.402 39.3481 245.402 39.5217C245.402 39.6953 245.337 39.8439 245.207 39.9676C245.08 40.0912 244.927 40.153 244.748 40.153Z" fill="#1D74BA"/>
<path d="M249.308 47.35C248.748 47.35 248.266 47.2158 247.861 46.9475C247.457 46.6792 247.146 46.3096 246.928 45.8388C246.71 45.3679 246.601 44.83 246.601 44.225C246.601 43.6095 246.712 43.0663 246.935 42.5954C247.161 42.1219 247.475 41.7523 247.877 41.4867C248.281 41.2184 248.753 41.0842 249.293 41.0842C249.713 41.0842 250.091 41.1631 250.429 41.3209C250.766 41.4788 251.042 41.6997 251.257 41.9838C251.472 42.2679 251.606 42.5994 251.658 42.9781H250.74C250.67 42.7019 250.514 42.4573 250.273 42.2442C250.034 42.0285 249.713 41.9207 249.308 41.9207C248.95 41.9207 248.637 42.0154 248.367 42.2048C248.1 42.3916 247.891 42.6559 247.741 42.9979C247.593 43.3372 247.519 43.7357 247.519 44.1934C247.519 44.6616 247.592 45.0694 247.737 45.4166C247.885 45.7638 248.092 46.0334 248.359 46.2255C248.629 46.4175 248.945 46.5135 249.308 46.5135C249.547 46.5135 249.763 46.4714 249.958 46.3872C250.152 46.3031 250.317 46.1821 250.452 46.0242C250.587 45.8664 250.683 45.677 250.74 45.4561H251.658C251.606 45.8138 251.478 46.136 251.273 46.4227C251.07 46.7068 250.802 46.9331 250.468 47.1014C250.136 47.2671 249.749 47.35 249.308 47.35Z" fill="#1D74BA"/>
<path d="M254.758 47.3658C254.38 47.3658 254.036 47.2934 253.727 47.1488C253.419 47.0015 253.174 46.7897 252.992 46.5135C252.811 46.2347 252.72 45.898 252.72 45.5034C252.72 45.1562 252.787 44.8747 252.922 44.659C253.057 44.4407 253.237 44.2697 253.463 44.1461C253.688 44.0224 253.937 43.9304 254.21 43.8699C254.485 43.8067 254.761 43.7568 255.038 43.7199C255.401 43.6726 255.696 43.6371 255.921 43.6134C256.149 43.5871 256.315 43.5437 256.419 43.4832C256.525 43.4227 256.579 43.3175 256.579 43.1675V43.136C256.579 42.7467 256.474 42.4442 256.264 42.2285C256.056 42.0128 255.741 41.9049 255.318 41.9049C254.88 41.9049 254.536 42.0022 254.287 42.1969C254.038 42.3916 253.863 42.5994 253.762 42.8203L252.891 42.5047C253.047 42.1364 253.254 41.8497 253.513 41.6445C253.775 41.4367 254.061 41.292 254.369 41.2105C254.68 41.1263 254.986 41.0842 255.287 41.0842C255.479 41.0842 255.699 41.1079 255.948 41.1552C256.2 41.1999 256.442 41.2933 256.676 41.4354C256.912 41.5774 257.108 41.7918 257.263 42.0785C257.419 42.3652 257.497 42.7493 257.497 43.2307V47.2237H256.579V46.403H256.532C256.47 46.5345 256.366 46.6753 256.221 46.8252C256.076 46.9751 255.882 47.1027 255.641 47.2079C255.4 47.3132 255.106 47.3658 254.758 47.3658ZM254.898 46.5293C255.261 46.5293 255.567 46.4569 255.816 46.3123C256.068 46.1676 256.257 45.9808 256.384 45.752C256.514 45.5231 256.579 45.2824 256.579 45.0299V44.1776C256.54 44.225 256.454 44.2684 256.322 44.3078C256.192 44.3447 256.042 44.3776 255.871 44.4065C255.702 44.4328 255.537 44.4565 255.377 44.4775C255.218 44.4959 255.09 44.5117 254.992 44.5249C254.753 44.5564 254.53 44.6077 254.322 44.6787C254.118 44.7471 253.952 44.851 253.825 44.9905C253.7 45.1272 253.638 45.314 253.638 45.5507C253.638 45.8743 253.756 46.1189 253.992 46.2846C254.23 46.4477 254.533 46.5293 254.898 46.5293Z" fill="#1D74BA"/>
<path d="M185.844 19.9487V23.5376H190.007V25.1737H185.844V28.9209H190.527V30.5571H183.867V18.3126H190.527V19.9487H185.844Z" fill="#1D74BA"/>
<path d="M200.75 18.3302V19.9663H197.541V30.5571H195.564V19.9663H192.338V18.3302H200.75Z" fill="#1D74BA"/>
<path d="M212.378 18.3302V30.5571H210.401V25.2089H204.73V30.5571H202.752V18.3302H204.73V23.5728H210.401V18.3302H212.378Z" fill="#1D74BA"/>
<path d="M216.958 18.3302V30.5571H214.981V18.3302H216.958Z" fill="#1D74BA"/>
<path d="M225.052 30.6802C223.931 30.6802 222.896 30.4163 221.948 29.8885C221.011 29.349 220.265 28.6043 219.71 27.6543C219.167 26.6926 218.895 25.6135 218.895 24.4172C218.895 23.2209 219.167 22.1478 219.71 21.1978C220.265 20.2478 221.011 19.5089 221.948 18.9811C222.896 18.4416 223.931 18.1719 225.052 18.1719C226.186 18.1719 227.22 18.4416 228.157 18.9811C229.105 19.5089 229.851 20.2478 230.394 21.1978C230.938 22.1478 231.209 23.2209 231.209 24.4172C231.209 25.6135 230.938 26.6926 230.394 27.6543C229.851 28.6043 229.105 29.349 228.157 29.8885C227.22 30.4163 226.186 30.6802 225.052 30.6802ZM225.052 28.9385C225.85 28.9385 226.561 28.7568 227.186 28.3932C227.81 28.0179 228.296 27.4901 228.643 26.8098C229.001 26.1179 229.18 25.3203 229.18 24.4172C229.18 23.5142 229.001 22.7225 228.643 22.0422C228.296 21.362 227.81 20.8401 227.186 20.4765C226.561 20.1129 225.85 19.9311 225.052 19.9311C224.255 19.9311 223.543 20.1129 222.919 20.4765C222.295 20.8401 221.803 21.362 221.445 22.0422C221.098 22.7225 220.925 23.5142 220.925 24.4172C220.925 25.3203 221.098 26.1179 221.445 26.8098C221.803 27.4901 222.295 28.0179 222.919 28.3932C223.543 28.7568 224.255 28.9385 225.052 28.9385Z" fill="#1D74BA"/>
<path d="M241.584 21.9719C241.584 22.5935 241.44 23.1799 241.151 23.7311C240.862 24.2824 240.399 24.7339 239.763 25.0858C239.127 25.4259 238.312 25.5959 237.318 25.5959H235.132V30.5571H233.155V18.3302H237.318C238.243 18.3302 239.023 18.4944 239.659 18.8228C240.307 19.1395 240.786 19.5734 241.099 20.1247C241.422 20.6759 241.584 21.2916 241.584 21.9719ZM237.318 23.9598C238.069 23.9598 238.63 23.7898 239 23.4497C239.37 23.0978 239.555 22.6052 239.555 21.9719C239.555 20.6348 238.809 19.9663 237.318 19.9663H235.132V23.9598H237.318Z" fill="#1D74BA"/>
<path d="M245.447 18.3302V30.5571H243.47V18.3302H245.447Z" fill="#1D74BA"/>
<path d="M255.31 28.0589H250.263L249.396 30.5571H247.332L251.651 18.3126H253.94L258.259 30.5571H256.177L255.31 28.0589ZM254.755 26.4228L252.795 20.7404L250.818 26.4228H254.755Z" fill="#1D74BA"/>
</g>
<defs>
<linearGradient id="paint0_linear_824_111692" x1="21.4037" y1="50.0012" x2="21.4037" y2="1.64275" gradientUnits="userSpaceOnUse">
<stop stop-color="#08AFEF"/>
<stop offset="1" stop-color="#2671A8"/>
</linearGradient>
<clipPath id="clip0_824_111692">
<rect width="258.333" height="50" fill="white"/>
</clipPath>
</defs>
</svg>
