<svg width="177" height="50" viewBox="0 0 177 50" fill="none" xmlns="http://www.w3.org/2000/svg">
<g clip-path="url(#clip0_824_111662)">
<path d="M51.727 2.3655C51.592 2.29571 51.4569 2.19254 51.3571 2.05296C51.2896 1.91338 51.2573 1.74043 51.2573 1.60085C51.4921 1.53106 51.727 1.56747 51.9619 1.63422C52.1968 1.70098 52.3993 1.87697 52.5344 2.04993C52.4669 2.18951 52.3318 2.29268 52.1645 2.36247C52.0294 2.43226 51.8621 2.43226 51.6947 2.36247H51.727V2.3655ZM52.0969 1.32168C51.7593 1.1821 51.3923 1.1821 51.0547 1.32168C51.1545 1.04252 51.3248 0.836189 51.5597 0.729987C51.7945 0.623784 52.0646 0.590407 52.2995 0.696609C52.5344 0.799777 52.737 0.975769 52.8368 1.21852C52.9366 1.46127 52.9718 1.74043 52.8691 1.98317C52.6665 1.70401 52.3993 1.46127 52.0617 1.32168H52.094H52.0969ZM53.1715 1.07894C53.0717 0.869567 52.9366 0.729987 52.7693 0.593441C52.6019 0.456895 52.3993 0.384071 52.1968 0.350693C51.9942 0.317315 51.7945 0.350693 51.592 0.384071C51.3894 0.453861 51.222 0.557029 51.0547 0.733021C51.1545 0.490273 51.3571 0.317315 51.592 0.211113C51.8268 0.10491 52.0617 0.0715326 52.3318 0.107945C52.5667 0.177735 52.8015 0.317315 52.9718 0.490273C53.1392 0.699643 53.2067 0.942391 53.2419 1.21852C53.2419 1.18514 53.2419 1.14873 53.2096 1.11535L53.1773 1.08197L53.1715 1.07894Z" fill="#1D74BA"/>
<path fill-rule="evenodd" clip-rule="evenodd" d="M68.2319 10.0788C67.9295 10.0788 67.5273 10.009 67.2572 9.6267C66.9195 9.17458 66.8872 8.37655 67.1896 7.36914L68.0968 4.34693C67.492 5.00842 66.717 5.35433 66.3147 5.28454C65.4398 5.14496 65.5749 4.20735 66.0446 3.79165C65.8773 3.61869 65.6747 3.47911 65.4721 3.47911C64.8321 3.47911 64.2273 4.38334 63.5902 5.32096C63.5579 5.39075 63.4904 5.46054 63.4552 5.53033L63.3876 5.70329L62.1105 10.0485H60.3607L62.4775 2.89044C61.5028 3.34256 60.6954 3.96764 60.0906 4.55934V4.94166C60.0583 5.22082 59.9908 5.53336 59.9556 5.80949C59.3831 8.62536 57.4013 10.0485 55.7514 10.0485C55.449 10.0485 55.1466 9.97868 54.8765 9.87551C54.2717 9.63277 53.8665 9.25044 53.6317 8.69515C53.4291 8.17324 53.3968 7.54817 53.4966 6.8533V6.75014C52.287 7.82733 51.7468 9.00769 51.3446 10.0515H49.5625L50.7398 3.69151C50.4374 4.21342 49.9999 4.55934 49.5625 4.87187V4.76871C50.2671 4.07384 50.7046 3.34256 50.9424 2.58094L52.5219 3.3456L51.6822 8.0367C52.3222 7.30846 52.8918 6.85634 53.5994 6.33443C54.0016 5.01449 54.944 3.79771 56.1213 3.13623C56.7261 2.78728 57.4336 2.58094 58.0384 2.58094C58.6432 2.58094 59.5857 2.7539 59.9556 3.8675C60.8305 3.27581 61.6026 2.96327 62.545 2.58094L64.057 3.27581L63.4845 5.25724C63.8545 4.59575 64.3594 3.83109 65.4692 2.82369C65.7041 2.68411 65.9389 2.61432 66.1415 2.61432C66.6113 2.61432 66.9812 3.03002 67.2513 3.86447C67.6535 3.93426 68.091 3.86447 68.4961 2.96023L69.3035 0.0078125L70.8155 0.632888L70.1431 3.23939H71.3204L71.018 3.83109H70.0081L68.6635 8.4524C68.5284 8.90452 68.5636 9.18065 68.6957 9.39002C68.7633 9.49319 68.8983 9.59939 69.1332 9.59939C69.7732 9.59939 70.7802 8.76494 71.3175 7.82733C71.3175 7.75754 71.3175 7.65437 71.3498 7.58458C71.5171 6.64697 71.8871 5.29061 72.7297 4.21342C73.5018 3.20602 74.5118 2.68411 75.7214 2.65073H79.2855L79.1857 2.99968C78.8481 4.14666 78.5809 5.0509 78.346 5.91872V6.0583H78.3137C78.0789 6.89275 77.844 7.65741 77.6091 8.52523C77.5093 8.94094 77.5093 9.2201 77.6414 9.39305C77.709 9.49622 77.844 9.60242 78.0789 9.60242C78.7512 9.60242 79.8933 8.66481 80.3307 7.7272H80.4981C79.7259 9.22009 78.2462 10.091 77.2363 10.091C76.2263 10.091 76.564 9.98779 76.3614 9.77842C76.1265 9.53567 76.0238 9.18672 76.0238 8.7346V8.17931L75.6861 8.63143C75.0138 9.56905 74.0391 10.1243 73.0967 10.1243C72.5242 10.1243 72.0544 9.91496 71.7168 9.53263C71.4467 9.18368 71.3146 8.7346 71.3146 8.17628C70.9769 8.66178 70.6099 9.08052 70.1373 9.39305C69.4972 9.84517 68.8249 10.1213 68.2554 10.1213L68.2231 10.0879L68.2319 10.0788ZM76.0971 2.92079C75.1224 2.92079 73.9128 4.38031 73.3726 6.22216C72.9704 7.57851 72.9704 8.61929 73.3403 9.10782C73.4754 9.31719 73.678 9.42036 73.9451 9.42036C74.4824 9.42036 75.2222 8.86508 76.0971 7.78788L77.1717 3.79165V3.72186C76.834 3.06037 76.3995 2.92382 76.0971 2.92382V2.92079ZM56.2622 3.75523C56.5998 3.33953 56.9345 3.13016 57.2722 3.13016C57.9768 3.13016 58.4142 3.9646 58.517 4.76264C58.5845 5.14496 58.5493 5.52729 58.517 5.90962C58.517 5.90962 58.517 5.943 58.4847 6.11899V6.18878V6.25857C58.1148 7.75147 57.3749 9.38698 56.3327 9.38698C55.2904 9.38698 55.995 9.35361 55.8629 9.2474C55.5253 9.03803 55.3257 8.69212 55.2229 8.17021C54.9528 6.74407 55.7279 4.5563 56.365 3.72186L56.2652 3.75523H56.2622Z" fill="#1D74BA"/>
<path d="M55.6255 30.5841V16.8294H49.8594V14.7266H65.4314V16.8294H59.6653V30.5841H55.6225H55.6255Z" fill="#1D74BA"/>
<path d="M69.6207 30.5841C68.1146 30.5841 67.4922 30.0136 67.4922 28.6117V16.6989C67.4922 15.297 68.1146 14.7266 69.6207 14.7266H81.9632V16.8294H72.2513C71.7727 16.8294 71.5349 17.0478 71.5349 17.4878V21.1897H81.4612V23.1621H71.5349V27.8258C71.5349 28.2628 71.7727 28.4843 72.2513 28.4843H81.9632V30.5871H69.6207V30.5841Z" fill="#1D74BA"/>
<path d="M99.2795 30.4073C88.9452 31.8092 83.9453 29.5304 83.9453 22.6758C83.9453 19.2379 85.1667 16.8954 87.6299 15.6907C90.0931 14.4861 93.9685 14.2009 99.256 14.8381V16.9621C90.3103 15.9972 87.9176 17.5963 87.9176 22.6788C87.9176 27.7614 90.5981 29.3362 99.2795 28.2863V30.4103V30.4073Z" fill="#1D74BA"/>
<path d="M101.789 30.581V14.7266H105.855V21.0562H114.898V14.7266H118.964V30.581H114.898V23.2015H105.855V30.581H101.789Z" fill="#1D74BA"/>
<path d="M122.555 30.581V14.7266H124.924C126.095 14.7266 127.006 15.121 127.675 15.8887L137.173 26.7304V14.7296H139.686V30.5841H137.366C136.195 30.5841 135.285 30.1896 134.639 29.4219L125.071 18.4285V30.5841H122.558L122.555 30.581Z" fill="#1D74BA"/>
<path d="M141.258 30.581L148.697 22.4126L141.904 14.7266H146.616L151.736 20.5738L156.712 14.7266H159.989L153.316 22.2609L160.708 30.5841H155.923L150.324 24.1907L144.631 30.5841H141.258V30.581Z" fill="#1D74BA"/>
<path d="M166.329 30.5841V16.8294H160.562V14.7266H176.134V16.8294H170.368V30.5841H166.326H166.329Z" fill="#1D74BA"/>
<path d="M43.4014 8.4761C40.4538 6.44005 33.0817 1.93708 22.7121 1.65792C11.1417 1.34841 2.88012 6.4886 0 8.4761C0.0205513 13.7741 0.704617 33.2728 14.6179 45.1219C17.0458 47.1883 19.5883 48.7783 22.1132 50.0012C25.0286 48.6782 28.1347 46.7969 31.0706 44.0933C44.3879 31.8345 43.6304 12.4086 43.4014 8.4761Z" fill="url(#paint0_linear_824_111662)"/>
<path d="M21.7454 8.75391L9.59375 16.0363V30.6012L21.7454 38.0384L33.8971 30.6012V16.0363L21.7454 8.75391Z" fill="white"/>
<path d="M21.602 34.8477L12.1719 29.0764V17.7734L21.602 23.4841V34.8477Z" fill="#1D74BA"/>
<path d="M21.7471 35.1131L12.0234 29.1627V17.5078L21.7471 23.3975V35.1131ZM12.317 28.9898L21.4535 34.5821V23.5704L12.317 18.0388V28.9898Z" fill="#1D74BA"/>
<path d="M12.3125 17.5085L21.7455 11.8555L31.1757 17.5085L21.7455 23.2221L12.3125 17.5085Z" fill="#69BD47"/>
<path d="M21.7471 23.3983L12.0234 17.5087L21.7471 11.6797L31.4679 17.5087L21.7471 23.3983ZM12.6047 17.5087L21.7471 23.0464L30.8866 17.5087L21.7471 12.0317L12.6047 17.5087Z" fill="#69BD47"/>
<path d="M31.3285 29.0764L21.8984 34.8477V23.4841L31.3285 17.7734V29.0764Z" fill="#01A69E"/>
<path d="M21.75 35.1131V23.3975L31.4737 17.5078V29.1627L21.75 35.1131ZM22.0436 23.5704V34.5821L31.1801 28.9898V18.0388L22.0436 23.5704Z" fill="#01A69E"/>
<path d="M134.387 39.1432L136.79 45.9455H136.885L139.288 39.1432H140.315L137.343 47.224H136.331L133.359 39.1432H134.387Z" fill="#1D74BA"/>
<path d="M141.45 47.224V41.1634H142.382V47.224H141.45ZM141.924 40.1533C141.742 40.1533 141.585 40.0914 141.453 39.9678C141.324 39.8442 141.26 39.6955 141.26 39.5219C141.26 39.3483 141.324 39.1997 141.453 39.0761C141.585 38.9524 141.742 38.8906 141.924 38.8906C142.106 38.8906 142.261 38.9524 142.39 39.0761C142.522 39.1997 142.588 39.3483 142.588 39.5219C142.588 39.6955 142.522 39.8442 142.39 39.9678C142.261 40.0914 142.106 40.1533 141.924 40.1533Z" fill="#1D74BA"/>
<path d="M146.636 47.3502C146.051 47.3502 145.546 47.2213 145.122 46.9635C144.701 46.7031 144.375 46.3401 144.146 45.8745C143.919 45.4063 143.806 44.8618 143.806 44.241C143.806 43.6202 143.919 43.0731 144.146 42.5996C144.375 42.1235 144.694 41.7526 145.102 41.4869C145.513 41.2186 145.993 41.0844 146.541 41.0844C146.857 41.0844 147.169 41.137 147.478 41.2423C147.786 41.3475 148.066 41.5185 148.319 41.7552C148.572 41.9893 148.774 42.2997 148.924 42.6864C149.074 43.0731 149.149 43.5492 149.149 44.1147V44.5093H144.47V43.7044H148.201C148.201 43.3624 148.132 43.0573 147.995 42.789C147.861 42.5207 147.669 42.3089 147.418 42.1537C147.171 41.9985 146.878 41.9209 146.541 41.9209C146.169 41.9209 145.848 42.013 145.577 42.1971C145.308 42.3786 145.101 42.6154 144.956 42.9074C144.811 43.1993 144.739 43.5124 144.739 43.8464V44.383C144.739 44.8408 144.818 45.2287 144.976 45.547C145.137 45.8627 145.359 46.1034 145.644 46.2691C145.928 46.4322 146.259 46.5137 146.636 46.5137C146.881 46.5137 147.102 46.4795 147.3 46.4111C147.5 46.3401 147.673 46.2349 147.817 46.0955C147.962 45.9534 148.074 45.7772 148.153 45.5668L149.055 45.8193C148.96 46.1244 148.8 46.3927 148.576 46.6242C148.352 46.8531 148.076 47.0319 147.746 47.1608C147.417 47.2871 147.047 47.3502 146.636 47.3502Z" fill="#1D74BA"/>
<path d="M153.208 41.1634V41.9525H150.062V41.1634H153.208ZM150.979 39.7113H151.912V45.4878C151.912 45.7509 151.95 45.9482 152.027 46.0797C152.106 46.2086 152.206 46.2954 152.327 46.3401C152.451 46.3822 152.581 46.4033 152.718 46.4033C152.821 46.4033 152.905 46.398 152.971 46.3875C153.037 46.3743 153.09 46.3638 153.129 46.3559L153.319 47.1924C153.256 47.2161 153.167 47.2397 153.054 47.2634C152.941 47.2897 152.797 47.3029 152.623 47.3029C152.36 47.3029 152.102 47.2463 151.849 47.1332C151.598 47.0201 151.39 46.8478 151.224 46.6163C151.061 46.3848 150.979 46.0929 150.979 45.7404V39.7113Z" fill="#1D74BA"/>
<path d="M155.544 43.5781V47.224H154.611V41.1634H155.512V42.1103H155.591C155.734 41.8026 155.95 41.5553 156.24 41.3685C156.529 41.1791 156.904 41.0844 157.362 41.0844C157.773 41.0844 158.133 41.1686 158.441 41.337C158.749 41.5027 158.989 41.7552 159.16 42.0945C159.332 42.4312 159.417 42.8574 159.417 43.3729V47.224H158.484V43.4361C158.484 42.96 158.361 42.5891 158.113 42.3234C157.865 42.0551 157.525 41.9209 157.093 41.9209C156.796 41.9209 156.529 41.9854 156.295 42.1143C156.063 42.2432 155.88 42.4312 155.746 42.6785C155.611 42.9258 155.544 43.2256 155.544 43.5781Z" fill="#1D74BA"/>
<path d="M162.908 47.366C162.523 47.366 162.174 47.2937 161.861 47.149C161.547 47.0017 161.298 46.7899 161.114 46.5137C160.929 46.2349 160.837 45.8982 160.837 45.5036C160.837 45.1564 160.905 44.8749 161.042 44.6592C161.18 44.4409 161.363 44.2699 161.592 44.1463C161.821 44.0227 162.074 43.9306 162.351 43.8701C162.63 43.807 162.911 43.757 163.192 43.7202C163.561 43.6728 163.86 43.6373 164.09 43.6136C164.321 43.5873 164.49 43.5439 164.596 43.4834C164.704 43.4229 164.758 43.3177 164.758 43.1678V43.1362C164.758 42.7469 164.651 42.4444 164.437 42.2287C164.227 42.013 163.907 41.9051 163.477 41.9051C163.032 41.9051 162.683 42.0025 162.43 42.1971C162.177 42.3918 161.999 42.5996 161.896 42.8205L161.011 42.5049C161.169 42.1366 161.38 41.8499 161.643 41.6447C161.909 41.4369 162.199 41.2922 162.513 41.2107C162.829 41.1265 163.14 41.0844 163.445 41.0844C163.64 41.0844 163.864 41.1081 164.117 41.1555C164.373 41.2002 164.619 41.2936 164.856 41.4356C165.096 41.5777 165.295 41.792 165.453 42.0788C165.611 42.3655 165.69 42.7495 165.69 43.2309V47.224H164.758V46.4033H164.71C164.647 46.5348 164.542 46.6755 164.394 46.8254C164.246 46.9754 164.05 47.103 163.805 47.2082C163.56 47.3134 163.261 47.366 162.908 47.366ZM163.05 46.5295C163.419 46.5295 163.73 46.4572 163.983 46.3125C164.239 46.1678 164.431 45.9811 164.56 45.7522C164.692 45.5234 164.758 45.2827 164.758 45.0301V44.1779C164.718 44.2252 164.631 44.2686 164.497 44.3081C164.365 44.3449 164.212 44.3778 164.038 44.4067C163.867 44.433 163.7 44.4567 163.536 44.4777C163.376 44.4962 163.245 44.5119 163.145 44.5251C162.903 44.5567 162.676 44.608 162.465 44.679C162.257 44.7474 162.089 44.8513 161.959 44.9907C161.833 45.1275 161.77 45.3142 161.77 45.551C161.77 45.8745 161.89 46.1192 162.129 46.2849C162.372 46.448 162.679 46.5295 163.05 46.5295Z" fill="#1D74BA"/>
<path d="M167.393 47.224V41.1634H168.294V42.1103H168.373C168.499 41.7868 168.703 41.5356 168.985 41.3567C169.267 41.1752 169.606 41.0844 170.001 41.0844C170.402 41.0844 170.735 41.1752 171.001 41.3567C171.27 41.5356 171.479 41.7868 171.629 42.1103H171.693C171.848 41.7973 172.081 41.5487 172.392 41.3646C172.703 41.1778 173.076 41.0844 173.511 41.0844C174.053 41.0844 174.497 41.2541 174.843 41.5934C175.188 41.9301 175.36 42.4549 175.36 43.1678V47.224H174.428V43.1678C174.428 42.7206 174.305 42.401 174.06 42.209C173.815 42.0169 173.526 41.9209 173.194 41.9209C172.768 41.9209 172.437 42.0498 172.202 42.3076C171.968 42.5628 171.851 42.8863 171.851 43.2783V47.224H170.902V43.0731C170.902 42.7285 170.79 42.451 170.566 42.2405C170.342 42.0275 170.054 41.9209 169.701 41.9209C169.458 41.9209 169.232 41.9854 169.021 42.1143C168.813 42.2432 168.644 42.422 168.515 42.6509C168.389 42.8771 168.325 43.1388 168.325 43.4361V47.224H167.393Z" fill="#1D74BA"/>
</g>
<defs>
<linearGradient id="paint0_linear_824_111662" x1="21.7462" y1="50.0012" x2="21.7462" y2="1.64275" gradientUnits="userSpaceOnUse">
<stop stop-color="#08AFEF"/>
<stop offset="1" stop-color="#2671A8"/>
</linearGradient>
<clipPath id="clip0_824_111662">
<rect width="176.136" height="50" fill="white"/>
</clipPath>
</defs>
</svg>
