<svg width="40" height="40" viewBox="0 0 40 40" fill="none" xmlns="http://www.w3.org/2000/svg">
<g clip-path="url(#clip0_1565_8871)">
<path d="M0 19.9999C0 23.4648 0.881484 26.7237 2.4318 29.5652L20 31.3043L37.5682 29.5652C39.1185 26.7237 40 23.4648 40 19.9999C40 16.5351 39.1185 13.2762 37.5682 10.4347L20 8.69556L2.4318 10.4347C0.881484 13.2762 0 16.5351 0 19.9999Z" fill="#D80027"/>
<path d="M2.43179 10.4348H37.5681C34.1761 4.21789 27.5809 0 20 0C12.4191 0 5.8239 4.21789 2.43179 10.4348Z" fill="#0052B4"/>
<path d="M20 40C27.5809 40 34.1761 35.7821 37.5682 29.5652H2.43179C5.8239 35.7821 12.4191 40 20 40Z" fill="#0052B4"/>
<path d="M26.9565 23.913V21.3043H25.2174V17.8261L23.4783 16.0869L21.7391 17.8261V14.3478L20 12.6086L18.2609 14.3478V17.8261L16.5217 16.0869L14.7826 17.8261V21.3043H13.0435V23.913H11.3044V26.5217H28.6956V23.913H26.9565Z" fill="#F0F0F0"/>
</g>
<defs>
<clipPath id="clip0_1565_8871">
<rect width="40" height="40" fill="white"/>
</clipPath>
</defs>
</svg>
