<svg width="335" height="34" viewBox="0 0 335 34" fill="none" xmlns="http://www.w3.org/2000/svg">
<g clip-path="url(#clip0_1565_9568)">
<path d="M71.0573 13.6868V0.0307617H64.675V33.4636H71.0573V19.5627H105.114V33.4636H111.496V0.0307617H105.114V13.6868H71.0573ZM46.0785 5.98827V0.0307617H8.63785C2.88833 0.0307617 -0.000183105 2.94151 -0.000183105 7.67488V25.8194C-0.000183105 30.5528 2.88833 33.4636 8.63785 33.4636H46.0785V27.506H6.51961V5.98827H46.0785Z" fill="black"/>
<path d="M173.42 0.0307617V27.506H139.858V0.0307617H133.476V25.8194C133.476 30.5528 136.365 33.4636 142.114 33.4636H171.137C176.886 33.4636 179.775 30.5528 179.775 25.8194V0.0307617H173.42Z" fill="black"/>
<path d="M312.235 27.7781H276.747V19.4267H312.235V27.7781ZM276.747 5.71624H312.235V13.8228H276.747V5.71624ZM309.594 33.4636C315.866 33.4636 318.782 30.8792 318.782 26.4451V22.5279C318.782 21.2765 318.342 20.7052 317.434 19.9435L313.363 16.5159L317.434 13.0883C318.342 12.3266 318.782 11.7554 318.782 10.504V7.0492C318.782 2.61507 315.893 0.0307617 309.594 0.0307617H270.365V33.4636H309.594ZM243.653 27.7781H208.138V19.4267H243.653V27.7781ZM208.138 5.71624H243.653V13.8228H208.138V5.71624ZM240.985 33.4636C247.257 33.4636 250.173 30.8792 250.173 26.4451V22.5279C250.173 21.2765 249.733 20.7052 248.825 19.9435L244.781 16.5159L248.825 13.0611C249.733 12.2994 250.173 11.7282 250.173 10.4768V7.0492C250.173 2.61507 247.284 0.0307617 240.985 0.0307617H201.783V33.4636H240.985Z" fill="black"/>
<path d="M331.821 0.355595C332.371 0.573221 332.866 0.89966 333.279 1.33491C333.692 1.74296 334.022 2.23262 334.242 2.77668C334.462 3.32075 334.6 3.91922 334.6 4.5721C334.6 5.22498 334.49 5.82345 334.242 6.36751C333.994 6.91158 333.692 7.40124 333.279 7.80929C332.866 8.21733 332.371 8.54377 331.821 8.7614C331.271 8.97903 330.638 9.11504 330.005 9.11504C329.345 9.11504 328.74 9.00623 328.19 8.7614C327.64 8.51657 327.144 8.21733 326.732 7.80929C326.319 7.40124 325.989 6.91158 325.769 6.36751C325.549 5.82345 325.411 5.22498 325.411 4.5721C325.411 3.94642 325.521 3.34795 325.769 2.77668C326.017 2.23262 326.319 1.74296 326.732 1.33491C327.144 0.926864 327.64 0.600425 328.19 0.355595C328.74 0.110766 329.373 0.00195312 330.005 0.00195312C330.638 0.00195312 331.243 0.110766 331.821 0.355595ZM328.437 0.954067C327.97 1.17169 327.557 1.44373 327.2 1.79737C326.842 2.15101 326.594 2.55906 326.374 3.02151C326.182 3.48397 326.072 4.00083 326.072 4.5449C326.072 5.08896 326.154 5.60582 326.374 6.06828C326.567 6.53073 326.842 6.96598 327.2 7.29242C327.557 7.64607 327.942 7.9181 328.437 8.13573C328.905 8.32615 329.428 8.43496 330.005 8.43496C330.556 8.43496 331.078 8.32615 331.546 8.13573C332.014 7.9181 332.426 7.64607 332.784 7.29242C333.142 6.93878 333.389 6.53073 333.609 6.06828C333.802 5.60582 333.912 5.08896 333.912 4.5449C333.912 4.00083 333.802 3.48397 333.609 3.02151C333.417 2.55906 333.142 2.12381 332.784 1.79737C332.426 1.44373 332.014 1.17169 331.546 0.954067C331.078 0.763644 330.556 0.654831 330.005 0.654831C329.428 0.654831 328.905 0.763644 328.437 0.954067ZM328.327 7.18361V1.93338H330.363C330.968 1.93338 331.408 2.0694 331.684 2.31423C331.959 2.55906 332.096 2.9127 332.096 3.40236C332.096 3.61999 332.069 3.83761 331.986 4.00083C331.904 4.16405 331.821 4.32727 331.684 4.43608C331.574 4.5449 331.408 4.65371 331.243 4.70812C331.078 4.78972 330.913 4.84413 330.721 4.87133L332.316 7.21081H331.546L330.061 4.87133H328.96V7.21081H328.327V7.18361ZM330.418 4.27286C330.611 4.24566 330.776 4.21846 330.941 4.16405C331.106 4.10964 331.216 4.02803 331.298 3.89202C331.381 3.756 331.436 3.59278 331.436 3.37516C331.436 3.18473 331.408 3.04872 331.326 2.9127C331.243 2.80389 331.161 2.69507 331.051 2.64067C330.941 2.55906 330.803 2.53186 330.638 2.50465C330.501 2.47745 330.336 2.47745 330.171 2.47745H328.96V4.30007H329.813C330.033 4.30007 330.226 4.30007 330.418 4.27286Z" fill="black"/>
</g>
<defs>
<clipPath id="clip0_1565_9568">
<rect width="334.6" height="33.46" fill="white"/>
</clipPath>
</defs>
</svg>
