<svg width="40" height="40" viewBox="0 0 40 40" fill="none" xmlns="http://www.w3.org/2000/svg">
<path fill-rule="evenodd" clip-rule="evenodd" d="M19.9908 2.5C10.33 2.50498 2.5 10.3381 2.5 20C2.5 29.665 10.335 37.5 20 37.5C29.665 37.5 37.5 29.665 37.5 20C37.5 10.3381 29.67 2.50498 20.0092 2.5H19.9908Z" fill="#FFE70E"/>
<path fill-rule="evenodd" clip-rule="evenodd" d="M36.3974 26.1248H3.60107C6.08386 32.769 12.4891 37.4998 19.9993 37.4998C27.5094 37.4998 33.9147 32.769 36.3974 26.1248Z" fill="#E92B2B"/>
<path fill-rule="evenodd" clip-rule="evenodd" d="M20.0658 2.5H19.9328C12.4513 2.52784 6.0765 7.25038 3.60107 13.875H36.3976C33.9221 7.25038 27.5473 2.52784 20.0658 2.5Z" fill="#32AB45"/>
<path d="M28.75 20C28.75 24.8325 24.8325 28.75 20 28.75C15.1675 28.75 11.25 24.8325 11.25 20C11.25 15.1675 15.1675 11.25 20 11.25C24.8325 11.25 28.75 15.1675 28.75 20Z" fill="#2A2FAF"/>
<path fill-rule="evenodd" clip-rule="evenodd" d="M20.0002 12.8027L21.4059 17.3518L23.7763 14.4048L24.3009 14.8266L21.9738 17.7195H26.3797L22.7544 20.489L26.1705 21.7024L25.9452 22.3366L22.5765 21.1401L23.9604 25.6184L20.3367 22.8502V26.058H19.6636V22.8502L16.0399 25.6184L17.4238 21.1401L14.0551 22.3366L13.8298 21.7024L17.2459 20.489L13.6206 17.7195H18.0264L15.6995 14.8266L16.2239 14.4048L18.5944 17.3518L20.0002 12.8027ZM18.2727 18.3927L17.7643 20.038L15.6104 18.3927H18.2727ZM18.3342 20.4734L18.9773 18.3927H21.0231L21.666 20.4734L20.0002 21.7461L18.3342 20.4734ZM18.1225 21.1587L19.4458 22.1695L17.3047 23.8052L18.1225 21.1587ZM20.5545 22.1695L21.8778 21.1587L22.6956 23.8052L20.5545 22.1695ZM22.2359 20.038L21.7275 18.3927H24.3899L22.2359 20.038ZM20.815 17.7195H19.1852L20.0002 15.0825L20.815 17.7195Z" fill="#FFE70E"/>
</svg>
