<svg width="40" height="40" viewBox="0 0 40 40" fill="none" xmlns="http://www.w3.org/2000/svg">
<g clip-path="url(#clip0_1565_8862)">
<path d="M20 40C31.0457 40 40 31.0457 40 20C40 8.9543 31.0457 0 20 0C8.9543 0 0 8.9543 0 20C0 31.0457 8.9543 40 20 40Z" fill="#D80027"/>
<path d="M22.0648 15.1302C21.6103 17.0208 20.8027 16.6602 20.4064 18.309C18.0718 17.7476 16.634 15.4 17.1953 13.0652C17.7564 10.7306 20.1043 9.29279 22.439 9.85412C21.6463 13.1515 22.4715 13.4394 22.0648 15.1302Z" fill="#F0F0F0"/>
<path d="M16.0068 16.5313C17.6644 17.5477 17.0719 18.2045 18.5173 19.0909C17.262 21.1379 14.5851 21.7797 12.538 20.5245C10.4911 19.2692 9.84914 16.5921 11.1045 14.5452C13.9955 16.318 14.5241 15.6221 16.0068 16.5313Z" fill="#F0F0F0"/>
<path d="M15.467 22.7259C16.946 21.4635 17.3874 22.2299 18.6771 21.1292C20.2361 22.9555 20.0192 25.6999 18.193 27.2588C16.3666 28.8178 13.6222 28.6007 12.0634 26.7745C14.6427 24.5727 14.1441 23.8549 15.467 22.7259Z" fill="#F0F0F0"/>
<path d="M21.1917 25.1534C20.448 23.3567 21.3133 23.1736 20.6649 21.607C22.8836 20.6888 25.4267 21.743 26.345 23.9617C27.2632 26.1803 26.2088 28.7234 23.9902 29.6417C22.6935 26.5081 21.8569 26.7604 21.1917 25.1534Z" fill="#F0F0F0"/>
<path d="M25.2695 20.459C23.331 20.6112 23.4241 19.7315 21.7338 19.8641C21.5461 17.4704 23.3347 15.3774 25.7285 15.1895C28.1223 15.0021 30.2152 16.7905 30.4029 19.1844C27.0219 19.4495 27.0032 20.3232 25.2695 20.459Z" fill="#F0F0F0"/>
</g>
<defs>
<clipPath id="clip0_1565_8862">
<rect width="40" height="40" fill="white"/>
</clipPath>
</defs>
</svg>
