<svg width="231" height="59" viewBox="0 0 231 59" fill="none" xmlns="http://www.w3.org/2000/svg">
<g clip-path="url(#clip0_1565_9520)">
<path d="M51.9036 32.3398C51.9036 33.8238 52.541 34.2478 54.7264 34.2478C56.9118 34.2478 57.9438 33.6118 59.34 30.674H59.856L59.34 35.2776H45.7421V34.7627C47.806 34.2478 47.9882 33.7935 47.9882 31.8854V20.4672C47.9882 18.862 47.5936 18.4077 45.7421 17.9836V17.4688H54.1497V17.9836C52.3589 18.4379 51.9036 18.8014 51.9036 20.346V32.3398Z" fill="#1A1446"/>
<path d="M65.5903 32.7653C65.5903 33.9162 66.167 34.5522 67.4418 34.6734V35.1883H60.1875V34.734C61.7355 34.4008 62.0997 34.0374 62.0997 32.5533V26.4353C62.0997 25.0118 61.7052 24.6483 60.0358 24.3152V23.8003L65.0439 23.346H65.5599V32.7653H65.5903ZM63.8602 16.2588C64.9529 16.2588 65.8635 17.1674 65.8635 18.2577C65.8635 19.3481 64.9529 20.2567 63.8602 20.2567C62.7675 20.2567 61.8569 19.3481 61.8569 18.2577C61.8569 17.1674 62.7675 16.2588 63.8602 16.2588Z" fill="#1A1446"/>
<path d="M73.086 26.2536C74.2394 25.1632 74.8768 24.9209 75.7874 24.9209C77.8514 24.9209 79.1869 26.829 79.1869 29.6457C79.1869 33.371 77.4568 34.8854 74.9376 34.8854C73.602 34.8854 73.1468 34.3099 73.1468 32.9773V26.2536H73.086ZM73.086 16.2588H72.5701L67.8958 16.5919V17.1068C68.9884 17.2886 69.6258 17.8034 69.6258 18.8332V35.2791C71.3559 35.6123 73.086 35.7334 75.2107 35.7334C80.7956 35.7334 82.981 32.7956 82.981 29.252C82.981 25.9204 80.6135 23.2854 77.5175 23.2854C75.8481 23.2854 74.5126 23.9214 73.086 25.4055V16.2588Z" fill="#1A1446"/>
<path d="M88.0505 27.858C88.1112 25.6773 89.0825 24.2235 90.4787 24.2235C91.9053 24.2235 92.9069 25.7682 93.0587 27.858H88.0505ZM96.7617 28.5546C96.3064 25.4047 93.9996 23.3755 90.7215 23.3755C87.1399 23.3755 84.3171 26.071 84.3171 29.6449C84.3171 33.1582 87.0185 35.7327 90.6001 35.7327C93.3622 35.7327 95.7297 34.188 96.7617 31.765H96.2457C95.153 33.4308 93.8175 34.2486 92.1481 34.2486C90.0234 34.2486 87.8988 32.3405 88.0505 28.5546H96.7617Z" fill="#1A1446"/>
<path d="M107.75 27.7661C106.718 26.7969 105.959 26.2821 105.17 26.2821C104.138 26.2821 103.5 26.7364 102.59 27.9479V32.6121C102.59 33.9447 102.833 34.399 104.502 34.7322V35.2471H97.1871V34.7322C98.7351 34.3385 99.0993 33.9144 99.0993 32.6121V26.6152C99.0993 25.1312 98.4619 24.4951 96.9746 24.374V23.8591L101.983 23.4048H102.499V27.0392H102.559C103.713 24.5557 104.927 23.4048 106.354 23.4048C107.112 23.4048 107.841 23.7379 108.418 24.374L107.75 27.7661Z" fill="#1A1446"/>
<path d="M127.176 23.8013V24.3162C128.663 24.6494 128.967 25.5277 127.935 27.9507L126.326 31.5851L123.898 26.5877C123.2 25.1037 123.2 24.4676 124.475 24.2859V23.771H117.797H117.615H114.276V19.4097H113.76C112.152 21.4692 110.239 23.3167 108.813 24.2253V24.8008H110.877V32.1606C110.877 34.7956 112.607 35.795 114.792 35.795C116.522 35.795 117.615 35.2196 118.435 33.7355L118.04 33.4023C117.463 34.0384 116.947 34.311 116.371 34.311C114.762 34.311 114.246 33.2206 114.246 31.3731V24.7099H117.312C118.981 24.7099 119.497 25.2854 120.195 26.8906L124.353 35.7345C122.927 39.5204 121.713 41.0347 119.618 41.0347C119.163 41.0347 118.799 41.0347 118.07 40.7924L117.372 44.2452C117.828 44.3057 118.01 44.3057 118.344 44.3057C120.711 44.3057 121.986 43.276 123.23 40.5198L128.997 27.3449C129.969 25.2248 130.272 24.7705 131.759 24.4071V23.8922H127.176V23.8013Z" fill="#1A1446"/>
<path d="M160.412 32.0657C160.594 33.6103 161.383 34.4887 163.114 34.8218V35.3367H154.311V34.8218C156.223 34.3069 156.618 33.2166 156.223 30.9148L154.736 20.7383H154.675L148.908 35.3367H148.271L142.565 20.7383H142.504L140.956 31.1873C140.622 33.2469 141.017 34.6401 143.081 34.7612V35.2761H136.585V34.7612C138.498 34.7007 139.347 33.6103 139.742 30.8542L141.533 19.2542C140.835 18.5576 139.863 18.0427 138.953 18.0427V17.5278H145.388L150.062 29.249L154.797 17.5278H160.867V18.1033C159.077 18.4364 158.621 19.3754 158.864 20.9806L160.412 32.0657Z" fill="#1A1446"/>
<path d="M164.51 26.4315C164.51 25.1595 164.055 24.7052 162.719 24.4326V23.9177L167.454 23.4634H167.97V31.9135C167.97 33.2461 168.881 33.9125 170.095 33.9125C171.248 33.9125 171.947 33.3976 172.979 31.8529V26.1892C172.979 25.22 172.341 24.7052 171.188 24.4629V23.948L175.923 23.4937H176.439V32.5798C176.439 34.1245 176.773 34.4273 178.29 34.8816V35.3965L173.039 35.8508V33.0341H172.979C171.704 34.9422 170.277 35.8508 168.426 35.8508C166.058 35.8508 164.632 34.5788 164.632 32.3375V26.4315H164.51Z" fill="#1A1446"/>
<path d="M180.869 24.8345H178.805V24.259C180.231 23.3504 182.144 21.5635 183.752 19.4434H184.329V23.8653H188.123V24.7739H184.329V31.3765C184.329 33.224 184.845 34.3144 186.454 34.3144C187.03 34.3144 187.607 34.0721 188.123 33.4057L188.518 33.7389C187.698 35.1624 186.514 35.7984 184.875 35.7984C182.69 35.7984 180.96 34.7687 180.96 32.164V24.8345H180.869Z" fill="#1A1446"/>
<path d="M190.308 26.4315C190.308 25.1595 189.853 24.7052 188.517 24.4326V23.9177L193.252 23.4634H193.768V31.9135C193.768 33.2461 194.679 33.9125 195.893 33.9125C197.046 33.9125 197.745 33.3976 198.777 31.8529V26.1892C198.777 25.22 198.2 24.7052 196.986 24.4629V23.948L201.721 23.4937H202.237V32.5798C202.237 34.1245 202.571 34.4273 204.028 34.8816V35.3965L198.777 35.8508V33.0341H198.716C197.441 34.9422 196.014 35.8508 194.163 35.8508C191.795 35.8508 190.369 34.5788 190.369 32.3375V26.4315H190.308Z" fill="#1A1446"/>
<path d="M211.858 33.3996C211.099 34.1567 210.371 34.611 209.673 34.611C208.701 34.611 208.064 33.7933 208.064 32.5515C208.064 31.0069 208.974 30.3103 211.797 29.0988V33.3996H211.858ZM215.349 27.7056C215.349 24.5557 212.769 23.4048 210.28 23.4048C207.578 23.4048 205.727 24.8283 205.15 27.3118H205.605C206.303 26.0398 207.457 25.4037 209.066 25.4037C211.13 25.4037 211.949 26.3729 211.949 28.4022C209.126 29.4319 204.573 29.6742 204.573 32.7635C204.573 34.4293 206.121 35.762 208.034 35.762C209.46 35.762 210.462 35.4288 211.615 34.4293L211.858 34.187C212.435 35.3379 213.193 35.7922 214.62 35.7922C216.289 35.7922 217.321 35.0351 217.443 33.551H216.927C216.805 34.2476 216.472 34.6413 216.016 34.6413C215.5 34.6413 215.318 34.187 215.318 33.0967V27.7056H215.349Z" fill="#1A1446"/>
<path d="M219.843 19.4716C219.843 17.8664 219.327 17.291 217.657 17.1698V16.6549L222.726 16.3218H223.242V32.586C223.242 34.1306 223.576 34.4335 225.306 34.8878V35.4027H217.657V34.8878C219.327 34.6455 219.843 34.0701 219.843 32.586V19.4716Z" fill="#1A1446"/>
<path d="M41.5815 23.1677C41.4601 22.986 41.1262 23.1072 41.1262 23.1072L35.8145 25.1667C35.4199 24.1369 34.9039 23.1678 34.388 22.35L36.118 17.6252C36.118 17.6252 36.3002 17.1709 36.118 17.0497C35.9359 16.9286 35.6021 17.2315 35.6021 17.2315L32.4757 19.7756C31.2616 18.5035 29.7744 17.4132 28.1657 16.6257C27.5283 16.3834 26.8909 16.1108 26.2535 15.9291L25.2822 12.2038C25.2822 12.2038 25.2215 11.8101 24.9483 11.8101C24.7055 11.8101 24.6144 12.2038 24.6144 12.2038L23.977 15.5354C23.2789 15.4748 22.5504 15.4142 21.8523 15.4142C19.4848 15.4142 17.4209 15.8685 15.5693 16.6863C14.8105 17.0195 14.0214 17.4435 13.384 17.9584C13.2625 18.0189 13.2018 18.1401 13.0501 18.2007C12.4127 16.5349 11.8967 15.2022 11.7753 14.7479C12.1699 14.4148 12.868 13.2033 13.0501 12.4461C13.2929 11.2952 13.2322 10.7803 12.9894 9.96254C12.8073 9.32651 12.4127 8.75105 12.4127 8.35732C12.4127 8.02416 12.5948 7.84244 12.7466 7.72129C12.6858 7.32756 12.4127 7.14583 12.1091 7.08526C11.8056 7.02469 11.5932 7.14583 11.3503 7.14583C11.2896 7.02469 11.1682 7.02469 11.2289 6.63095C11.3503 5.99492 12.6555 5.66176 13.5964 5.29832C14.8712 4.78343 15.5997 3.87482 15.6604 2.42103C15.6604 1.3307 15.0837 0.573517 14.3249 0.179784C14.2035 0.634091 13.5661 1.20955 13.1108 1.45185C12.6555 1.69414 12.0788 1.785 11.6235 1.69414C11.6842 0.936963 11.3807 0.210071 10.804 -0.0322266C10.6219 0.300932 9.89341 0.785527 8.89177 0.724953C7.85978 0.724953 7.79908 0.482655 6.3118 0.482655C4.18712 0.482655 2.45702 1.75472 2.2749 3.63252C2.15349 4.84401 2.60878 5.87377 2.97301 6.38866C2.73019 6.57038 2.06244 7.14583 2.00173 7.35784C1.88032 7.17612 1.42503 6.96411 0.909038 7.29727C1.03045 7.53957 1.03045 7.87273 0.969743 8.20589C0.909038 8.50876 0.150223 9.99283 -0.00153969 11.2043C-0.12295 13.2638 1.03045 14.5965 2.00173 14.9902C1.81962 15.3234 1.75891 15.6868 1.88032 15.9594C2.00173 16.1411 2.2142 16.3531 2.57843 16.3531C2.33561 16.5954 2.24455 16.9892 2.39632 17.3829C2.57843 17.8372 3.09442 18.4732 3.48901 18.4732C3.48901 18.867 3.61042 19.6847 3.73183 20.0785C3.61042 20.3208 3.39795 20.5933 3.48901 21.1082C3.48901 21.6231 3.88359 22.0774 4.30853 22.1986C4.42994 22.4409 4.49064 22.774 4.64241 22.8952C4.76382 23.0769 4.88523 23.2889 5.27981 23.4706C5.61369 23.6523 5.97792 23.8644 6.43321 23.8644C6.8885 23.8644 7.25273 23.8644 7.4652 23.8038C7.4652 23.9249 7.5259 25.0758 7.58661 26.3782C6.49392 29.4372 5.91722 32.9808 5.91722 36.7364C5.91722 43.5207 7.82943 49.6085 11.5628 53.5155C11.5628 53.5155 11.7449 53.7578 12.3823 54.1515C12.3823 54.1515 13.5357 52.1526 15.3265 49.9113C15.7818 49.3359 16.2978 48.7604 16.8745 48.2455C17.7851 47.4884 18.6046 46.822 19.3634 46.2466C21.6702 44.7019 24.3109 43.4904 26.7391 42.9756C23.9163 44.4596 22.3683 45.2168 19.758 47.4581C18.0886 48.8816 15.4479 51.4257 13.5964 54.8179C13.991 55.151 14.507 55.3933 15.0837 55.4539C15.4783 54.9996 17.4512 51.4257 20.4865 48.4878C26.648 42.7938 33.8416 41.4309 37.6053 41.5218C37.7874 39.9771 37.9392 38.3113 37.9392 36.6455C37.9392 33.8894 37.6964 31.3453 37.1197 28.892L41.5815 23.8644C41.3994 23.6826 41.7029 23.3798 41.5815 23.1677Z" fill="#1A1446"/>
<path d="M8.04031 20.9202C7.79749 20.7991 7.06902 20.4054 6.49232 20.4659C5.91562 20.4659 5.39963 20.5871 4.94434 20.9202C4.76223 20.7991 4.70152 20.5265 4.82293 20.2236C4.94434 19.8905 5.15681 19.8905 5.15681 19.8905L4.97469 17.0132C4.97469 17.0132 5.79421 16.4377 6.00668 16.3772C6.1888 16.3166 6.34056 16.1349 6.34056 15.9229C6.73514 16.1651 7.25114 16.68 7.49396 17.0738C7.73678 17.4675 7.88854 17.8309 7.94925 18.2853C7.94925 18.7396 7.94925 19.315 7.88854 19.8905C8.07066 20.0116 8.22242 20.1328 8.28313 20.4054C8.22242 20.6779 8.16172 20.7385 8.04031 20.9202Z" fill="white"/>
<path d="M34.1458 29.8286C34.1458 29.2531 33.4477 27.7691 33.0531 27.4662L39.8521 24.4678L34.1458 29.8286Z" fill="white"/>
<path d="M15.4763 18.5654L21.2433 23.7445C20.6666 24.0777 19.8167 24.8954 19.6346 25.5921L15.4763 18.5654Z" fill="white"/>
<path d="M18.8758 28.8579C18.6937 29.191 18.633 29.3728 18.5419 29.6756C18.4812 30.0694 18.5419 30.2511 18.5419 30.5843L16.8118 29.3728C16.8118 28.979 16.7511 28.2824 16.6904 27.9493C16.6904 27.8887 16.6904 27.8281 16.6904 27.8281L18.8758 28.8579Z" fill="white"/>
<path d="M9.1044 29.3759C8.98299 29.1941 8.46699 18.6239 8.46699 18.2302L9.04369 17.8364V17.7153C8.64911 17.7153 8.13312 17.5336 8.01171 17.261L7.89029 14.0808C7.3136 14.0203 6.7369 13.8385 6.55478 13.6265C6.31196 13.3842 6.03879 13.0511 6.37266 12.415C6.61549 12.5968 7.46536 12.8693 8.22417 12.8693C8.34558 12.8693 8.67946 13.2025 8.86158 13.2631C9.04369 13.3237 9.43828 13.5054 9.55969 13.5962C9.6811 13.6568 9.80251 13.99 9.80251 14.1111C9.86321 14.2323 15.1142 27.8615 15.2053 28.0129C15.2963 28.1644 15.5999 30.4359 15.5999 30.6479C15.5999 30.8296 16.4194 32.6469 16.5711 32.8286C15.873 32.8286 14.7196 33.2223 13.8091 34.1007C12.8985 35.0093 12.079 36.9779 11.8968 37.8866C11.8058 37.4625 9.25616 29.5879 9.1044 29.3759Z" fill="white"/>
<path d="M15.7814 42.4597C15.5386 44.5798 15.0833 46.3667 14.2941 47.6388C13.7781 48.4565 12.4426 50.2132 11.9266 50.7887C12.4426 49.7589 12.8372 47.2148 12.8372 45.2764C12.8372 44.0043 12.4426 41.1876 12.7765 39.3098C13.1711 37.3109 13.7478 36.16 15.0226 34.9485C15.7207 34.3124 17.0866 33.525 19.1202 34.0399L20.7289 37.0383C19.9094 36.8566 18.7256 37.0383 17.9668 37.6137C16.5706 38.7949 16.0546 40.279 15.7814 42.4597Z" fill="white"/>
<path d="M15.993 46.5471C16.3876 45.6385 16.9036 43.1549 17.025 42.3069C17.2071 41.2166 17.4196 39.6719 18.6944 38.5816C19.3318 38.0667 20.3638 38.0061 20.8191 38.1273L22.6099 41.8526C22.792 42.2463 23.308 42.3675 23.7026 42.3675C21.9422 42.8824 17.6624 44.9419 15.993 46.5471Z" fill="white"/>
<path d="M31.5051 34.7062C31.1713 35.1605 31.323 35.6148 31.5051 35.9177C31.6872 36.2508 32.6585 38.0378 32.6585 38.0378C32.9924 38.8555 33.1745 39.2492 33.4781 39.7641C33.994 39.7641 34.5707 39.7641 35.1474 39.7641C34.51 38.3406 33.0228 35.6148 33.0228 35.6148L32.9014 33.3735C32.5371 33.6158 31.839 34.2519 31.5051 34.7062Z" fill="white"/>
<path d="M23.7333 22.8591C24.4314 22.738 26.1008 22.8591 26.6168 23.1014L24.9474 13.7427L23.7333 22.8591Z" fill="white"/>
<path d="M9.834 14.1404C9.7733 14.0193 9.71259 13.6861 9.59118 13.6255C9.40907 13.565 9.07519 13.3832 8.89307 13.2924C8.71096 13.2318 8.37708 12.8986 8.25567 12.8986C7.55756 12.8986 6.70768 12.6563 6.40416 12.4443C6.07028 13.0198 6.34345 13.353 6.58627 13.6558C6.76839 13.8375 7.40579 14.0496 7.92179 14.1101L8.0432 17.3811C8.16461 17.6234 8.6806 17.7749 9.07519 17.7749V17.896L8.49849 18.2898C8.49849 18.6835 9.01448 29.2234 9.13589 29.4354C9.2573 29.6172 11.8373 37.4918 11.898 37.9461C12.0801 37.0375 12.93 35.0689 13.8102 34.1602C14.7815 33.2516 15.8742 32.8276 16.5723 32.8882C16.4509 32.7065 15.601 30.8892 15.601 30.7075C15.601 30.5258 15.2671 28.2845 15.2064 28.0725C15.1457 27.9211 9.89471 14.3524 9.834 14.1404Z" fill="white"/>
<path d="M6.49449 11.5937C7.98177 11.5937 8.67988 12.2297 9.07446 12.5629C9.13517 12.048 9.01376 11.5937 8.55847 11.2302C8.16389 10.8971 7.46578 10.6548 6.43379 10.6548C5.73568 10.6548 5.00722 10.8365 4.58228 11.2302C4.1877 11.5634 4.12699 11.9268 4.1877 12.5023C4.30911 12.1086 5.28039 11.5937 6.49449 11.5937Z" fill="white"/>
<path d="M3.7927 3.84139C3.732 4.41685 3.91411 4.9923 4.18729 5.38604C4.3087 5.56776 4.70328 5.96149 4.9461 5.96149C5.34069 5.96149 5.64421 5.26489 6.55479 5.26489C7.13149 5.26489 7.52607 6.08264 7.98136 6.08264C8.37595 6.08264 8.55806 5.74948 8.95265 5.68891C9.28652 5.62833 9.40793 5.81006 9.59005 6.02207C9.71146 5.68891 9.92393 5.50718 10.4096 5.11345C10.9863 4.65914 12.9895 4.2957 13.8698 3.50823C14.3251 3.1145 14.3858 2.41789 14.2644 1.96358C13.9305 2.41789 13.0502 2.93277 12.1397 2.93277C11.6844 2.93277 10.6524 2.75105 10.2882 2.53904C10.4703 2.20588 10.531 1.84244 10.3489 1.50928C10.106 1.691 8.80088 1.84244 8.34559 1.84244C7.8903 1.84244 6.91902 1.66071 6.22091 1.72129C4.64258 1.78186 3.85341 2.8722 3.7927 3.84139Z" fill="white"/>
<path d="M6.55444 8.77835C10.0146 8.83892 11.5626 10.4441 11.6233 11.7162C11.8054 11.3225 11.7447 10.959 11.7447 10.5047C11.7447 10.1716 11.2287 9.17208 11.168 8.83892C11.168 8.50576 11.2287 8.26346 11.2894 8.02117C11.1073 8.08174 10.3182 8.35433 10.0146 8.08174C9.68075 7.83944 9.89322 7.11255 9.43793 6.93083C8.98264 6.74911 8.28453 7.32456 7.76854 7.26399C7.31325 7.20341 6.94902 6.56738 6.43303 6.56738C5.91703 6.56738 5.73492 7.14284 5.15822 7.26399C4.70293 7.38514 4.12623 7.08226 3.88341 7.14284C3.54953 7.14284 3.42812 7.38514 3.30671 7.65772C3.1853 7.90002 3.06389 8.05145 2.73001 8.1726C2.48719 8.23318 2.0319 7.99088 1.81943 8.05145C1.94084 8.1726 2.06225 8.80863 1.88014 9.20237C1.69802 9.65667 1.30344 10.1716 1.30344 10.747C1.21238 11.2013 1.42485 11.383 1.54626 11.7768C1.48555 9.92926 3.54953 8.68748 6.55444 8.77835Z" fill="white"/>
<path d="M4.36747 15.3483C4.12465 15.4089 3.60866 15.8026 3.39619 16.166C3.45689 16.4083 3.79077 17.0747 4.03359 17.1958C4.0943 16.9535 4.42818 16.4386 4.54959 16.2872C4.7317 16.166 5.00488 16.0449 5.12629 15.954C5.3084 15.8935 5.36911 15.7723 5.36911 15.5603C5.36911 15.3786 5.36911 15.2271 5.2477 15.0454C5.42981 15.0454 5.76369 15.0454 5.8244 14.9243C5.94581 14.8031 6.00651 14.5911 6.00651 14.4094C6.00651 14.2277 5.94581 14.1671 5.76369 14.1671C5.58158 14.1671 5.00488 14.1065 4.7317 14.1671C4.7317 14.1671 5.18699 13.9248 5.3084 13.8339C5.42981 13.7734 5.49052 13.6522 5.49052 13.5008C5.49052 13.3493 5.49052 13.107 5.42981 12.8647C4.79241 12.8647 3.63901 13.4402 3.30513 13.7734L3.54795 14.3488H3.09266C3.03196 14.682 3.09266 15.106 3.21407 15.3786C3.66936 15.3483 4.12465 15.3483 4.36747 15.3483Z" fill="white"/>
<path d="M32.5972 29.0121C32.5365 28.5578 31.4438 27.3463 29.653 25.9531C28.2264 24.8628 26.1928 23.833 24.4627 23.833C21.5792 23.833 20.4258 25.832 20.1526 26.8314C20.0312 27.4675 20.0312 28.1035 20.1526 28.4972C19.6974 28.891 19.5152 29.1938 19.4545 29.6481C19.3938 29.9813 19.4545 30.4053 19.7884 30.7385C19.7884 30.2842 20.0312 29.8299 20.3044 29.527C20.5472 29.1333 21.0025 29.0121 21.3971 28.7698L21.4578 29.527C21.0632 29.7087 20.6383 30.163 20.6383 30.4356V31.7077L21.6096 31.1322L21.7917 31.526L21.3971 33.8278L21.9738 33.7066L23.0058 34.1004L22.0345 35.009V35.3421C22.0345 35.3421 22.1559 35.1604 22.5505 35.1604C22.8844 35.1604 23.7646 35.5541 23.7646 35.5541L23.7039 35.7359H23.3093H21.9738C21.9131 35.9782 22.0952 36.1296 22.2166 36.2508C22.4594 36.1902 22.6719 36.069 22.7933 36.069C22.9147 36.069 23.2486 36.1296 23.4914 36.1902L23.1576 36.6445C23.1576 36.6445 22.9754 36.7656 22.7023 36.7051C22.5202 36.6445 22.3684 36.8868 22.3684 37.0988C22.3684 37.2805 22.4898 37.7954 22.4898 37.7954C22.6719 38.492 23.4004 38.3709 23.5218 38.3709C23.9771 38.3103 25.5858 37.7954 25.5858 37.7954L24.0985 39.9155L24.7359 42.1567C25.7072 41.763 28.6514 40.6727 31.8687 40.1578C31.5349 39.5823 31.4742 39.34 31.0492 38.492L29.3798 34.7061L29.6227 34.1306C30.0172 34.2518 30.5332 34.0095 30.8975 33.6763C31.2617 33.3432 31.6563 32.8586 31.8687 32.5254C31.6259 32.4043 31.4135 32.4043 31.2313 32.586C31.0492 32.7072 30.8975 32.9797 30.5939 32.8283C30.2904 32.6769 30.4725 32.374 30.4725 32.0711C30.5332 31.738 30.1387 31.738 29.8958 32.0105C29.653 32.2528 29.0763 32.1317 28.7424 31.7682C28.3478 31.3745 26.6178 29.9813 26.0411 29.5876C25.1305 29.0727 23.9164 28.9515 23.0968 29.0727C22.5809 29.1333 22.1863 29.4058 22.0042 29.2544L21.3668 28.1641L21.4882 28.1035C21.731 28.2247 21.9435 28.3458 22.247 28.2852C22.5809 28.1641 23.4611 27.9521 24.3717 27.9521C25.6465 27.9521 27.2552 28.4064 27.9533 28.7092C27.9533 29.527 29.6834 30.6173 30.4422 30.7688C31.0796 30.8293 31.4742 30.7082 31.8687 30.4356L30.1994 28.9515L31.1099 27.8612C31.1099 27.8612 32.5365 29.1938 32.7186 29.4664C32.7186 29.4361 32.6579 29.1938 32.5972 29.0121ZM22.5809 30.7385C22.5809 30.7385 23.279 30.3448 24.0074 30.163C25.0394 29.9813 26.1321 30.5568 26.8909 31.1928L26.7695 31.4351L25.6161 31.6774C25.434 31.4957 24.9787 31.4351 24.5234 31.4351C24.1288 31.4351 23.8253 31.6168 23.8253 31.6168L24.0074 32.0105L23.4914 32.1317C23.2486 31.7985 22.9147 31.4957 22.5809 31.3745V30.7385ZM20.8508 28.1035C20.5169 27.1343 21.3668 26.1045 21.6703 25.8017L22.247 27.0737C21.822 27.2857 21.1846 27.7703 20.8508 28.1035ZM26.0714 27.0132C25.5554 26.6194 23.8253 26.68 23.1272 26.892L22.6112 25.3474C23.0058 25.0142 23.7646 24.8325 24.4627 24.8325C25.1608 24.8325 25.8893 25.0142 26.466 25.2868L26.0714 27.0132ZM29.4709 28.5578C28.7728 28.1035 27.3462 27.4069 26.8909 27.2857L27.5283 25.6805C28.0443 25.9228 29.9565 27.104 30.2904 27.4069L29.4709 28.5578Z" fill="white"/>
<path d="M29.1987 24.2594C29.8361 24.5017 31.202 25.6829 31.5662 25.9252L35.0264 18.5654L29.1987 24.2594Z" fill="white"/>
<path d="M228.734 31.3149C229.766 31.3149 230.738 32.1327 230.738 33.3745C230.738 34.586 229.766 35.434 228.734 35.434C227.702 35.434 226.731 34.6162 226.731 33.3745C226.731 32.1327 227.733 31.3149 228.734 31.3149ZM228.734 34.9494C229.554 34.9494 230.282 34.3134 230.282 33.3442C230.282 32.375 229.584 31.739 228.734 31.739C227.885 31.739 227.186 32.375 227.186 33.3442C227.278 34.3134 227.915 34.9494 228.734 34.9494ZM227.976 32.2538H228.795C229.372 32.2538 229.615 32.4356 229.615 32.8899C229.615 33.2836 229.372 33.4653 229.038 33.4653L229.615 34.4345H229.22L228.643 33.4653H228.31V34.4345H227.915V32.2538H227.976ZM228.431 33.223H228.826C229.068 33.223 229.281 33.1625 229.281 32.8899C229.281 32.6173 229.038 32.5567 228.826 32.5567H228.431V33.223Z" fill="#1A1446"/>
<path d="M115.642 41.6748H46.0131V42.3714H115.642V41.6748Z" fill="#1A1446"/>
<path d="M225.609 41.6748H125.203V42.3714H225.609V41.6748Z" fill="#1A1446"/>
<path d="M86.1078 48.4487H87.8986V58.1103H86.1078V48.4487Z" fill="#1A1446"/>
<path d="M93.2998 48.4487H94.9692L99.0061 55.2936V48.4487H100.675V58.1103H99.0061L94.9692 51.2654V58.1103H93.2998V48.4487Z" fill="#1A1446"/>
<path d="M106.442 55.2375C107.14 56.2673 108.172 56.7216 109.386 56.7216C110.297 56.7216 111.45 56.3884 111.45 55.5101C111.45 54.7529 110.752 54.5409 109.447 54.238L108.354 53.9957C106.806 53.602 105.471 53.0871 105.471 51.3002C105.471 49.2407 107.383 48.3018 109.204 48.3018C110.874 48.3018 112.209 48.9378 113.241 50.2099L111.693 51.3608C111.238 50.4521 110.358 49.9373 109.113 49.9373C108.081 49.9373 107.262 50.331 107.262 51.0276C107.262 51.8454 108.172 51.9968 109.265 52.2391L110.418 52.4814C111.845 52.8145 113.241 53.39 113.241 55.2375C113.241 57.5999 110.995 58.448 108.992 58.448C107.383 58.448 105.714 57.7514 104.833 56.3884L106.442 55.2375Z" fill="#1A1446"/>
<path d="M125.841 55.1705C125.841 57.1695 124.293 58.3809 121.925 58.3809C119.618 58.3809 118.01 57.1089 118.01 55.1705V48.5073H119.8V54.7162C119.8 55.8671 120.316 56.6243 121.864 56.6243C123.473 56.6243 123.928 55.8671 123.928 54.7162V48.5073H125.719V55.1705H125.841Z" fill="#1A1446"/>
<path d="M131.031 48.4487H135.067C137.131 48.4487 138.345 49.6602 138.345 51.3866C138.345 53.5673 136.858 54.0821 136.433 54.2639L138.619 58.1709H136.494L134.642 54.597H132.912V58.1709H131.122V48.4487H131.031ZM132.821 52.9918H134.825C135.735 52.9918 136.433 52.4769 136.433 51.5077C136.433 50.5991 135.857 50.0237 134.582 50.0237H132.852L132.821 52.9918Z" fill="#1A1446"/>
<path d="M145.384 48.4487H147.509L150.726 58.1103H148.814L148.238 56.2628H144.595L144.019 58.1103H142.106L145.384 48.4487ZM146.416 50.2357L145.081 54.6576H147.782L146.416 50.2357Z" fill="#1A1446"/>
<path d="M154.825 48.4487H156.494L160.531 55.2936V48.4487H162.2V58.1103H160.592L156.555 51.2654V58.1103H154.825V48.4487Z" fill="#1A1446"/>
<path d="M173.704 51.7218C173.582 50.6315 172.672 49.9348 171.579 49.9348C169.667 49.9348 168.817 51.6612 168.817 53.327C168.817 54.9928 169.636 56.7192 171.579 56.7192C172.854 56.7192 173.582 55.9014 173.886 54.7202L175.555 55.4774C174.796 57.3855 173.491 58.3547 171.579 58.3547C168.513 58.3547 166.965 55.9923 166.965 53.2967C166.965 50.5406 168.695 48.2388 171.579 48.2388C173.491 48.2388 174.978 49.2685 175.494 51.2372L173.704 51.7218Z" fill="#1A1446"/>
<path d="M179.474 48.4487H186.333V50.1145H181.325V52.2952H185.939V53.9004H181.325V56.384H186.728V58.0498H179.534V48.4487H179.474Z" fill="#1A1446"/>
</g>
<defs>
<clipPath id="clip0_1565_9520">
<rect width="230.609" height="58.4877" fill="white"/>
</clipPath>
</defs>
</svg>
