<svg width="40" height="40" viewBox="0 0 40 40" fill="none" xmlns="http://www.w3.org/2000/svg">
<g clip-path="url(#clip0_1565_8808)">
<mask id="mask0_1565_8808" style="mask-type:luminance" maskUnits="userSpaceOnUse" x="0" y="-1" width="40" height="41">
<path d="M20 39.9636C31.0457 39.9636 40 31.0093 40 19.9636C40 8.91793 31.0457 -0.036377 20 -0.036377C8.95431 -0.036377 0 8.91793 0 19.9636C0 31.0093 8.95431 39.9636 20 39.9636Z" fill="white"/>
</mask>
<g mask="url(#mask0_1565_8808)">
<path d="M0 0H40V40.08H0V0Z" fill="#CB2026"/>
<path d="M0 37.217H40V40.0799H0V37.217Z" fill="white"/>
<path d="M0 31.4915H40V34.3543H0V31.4915Z" fill="white"/>
<path d="M0 25.7656H40V28.6285H0V25.7656Z" fill="white"/>
<path d="M0 20.04H40V22.9029H0V20.04Z" fill="white"/>
<path d="M0 14.3142H40V17.1771H0V14.3142Z" fill="white"/>
<path d="M0 8.58862H40V11.4515H0V8.58862Z" fill="white"/>
<path d="M0 2.86279H40V5.72567H0V2.86279Z" fill="white"/>
<path d="M0 -0.036377H25.273V22.9028H0V-0.036377Z" fill="#21205F"/>
<path d="M11.8855 7.35669C8.58278 7.35669 5.9021 10.0284 5.9021 13.3202C5.9021 16.612 8.58278 19.2837 11.8855 19.2837C13.0787 19.2837 14.1904 18.9346 15.1242 18.3338C14.5804 18.5215 13.9969 18.6242 13.3894 18.6242C10.4608 18.6242 8.08398 16.2552 8.08398 13.3363C8.08398 10.4174 10.4608 8.04849 13.3894 8.04849C14.0366 8.04849 14.6565 8.16409 15.2302 8.37581C14.2752 7.73261 13.124 7.35669 11.8855 7.35669Z" fill="#FFCD05"/>
<path d="M21.8081 16.4247L19.2878 15.1096L20.0329 17.801L18.3472 15.5497L17.8213 18.2898L17.304 15.5481L15.6111 17.7943L16.3649 15.1053L13.8404 16.4127L15.7157 14.3089L12.8596 14.4185L15.4852 13.3167L12.8631 12.2069L15.7189 12.3251L13.8502 10.2157L16.3705 11.5307L15.6254 8.83943L17.3111 11.0907L17.837 8.35059L18.3542 11.0923L20.0472 8.84611L19.2934 11.5351L21.8179 10.2277L19.9426 12.3315L22.7988 12.2218L20.1731 13.3237L22.7952 14.4335L19.9394 14.3153L21.8081 16.4247Z" fill="#FFCD05"/>
</g>
</g>
<defs>
<clipPath id="clip0_1565_8808">
<rect width="40" height="40" fill="white"/>
</clipPath>
</defs>
</svg>
