<svg width="40" height="40" viewBox="0 0 40 40" fill="none" xmlns="http://www.w3.org/2000/svg">
<g clip-path="url(#clip0_1565_8775)">
<mask id="mask0_1565_8775" style="mask-type:luminance" maskUnits="userSpaceOnUse" x="0" y="0" width="40" height="40">
<path d="M20 40C31.0457 40 40 31.0457 40 20C40 8.95431 31.0457 0 20 0C8.95431 0 0 8.95431 0 20C0 31.0457 8.95431 40 20 40Z" fill="white"/>
</mask>
<g mask="url(#mask0_1565_8775)">
<path d="M-10.72 0H69.28V40H-10.72V0Z" fill="#0038A8"/>
</g>
<mask id="mask1_1565_8775" style="mask-type:luminance" maskUnits="userSpaceOnUse" x="0" y="0" width="40" height="40">
<path d="M20 40C31.0457 40 40 31.0457 40 20C40 8.95431 31.0457 0 20 0C8.95431 0 0 8.95431 0 20C0 31.0457 8.95431 40 20 40Z" fill="white"/>
</mask>
<g mask="url(#mask1_1565_8775)">
<path d="M-10.72 20H69.28V40H-10.72V20Z" fill="#CE1126"/>
</g>
<mask id="mask2_1565_8775" style="mask-type:luminance" maskUnits="userSpaceOnUse" x="0" y="0" width="40" height="40">
<path d="M20 40C31.0457 40 40 31.0457 40 20C40 8.95431 31.0457 0 20 0C8.95431 0 0 8.95431 0 20C0 31.0457 8.95431 40 20 40Z" fill="white"/>
</mask>
<g mask="url(#mask2_1565_8775)">
<path d="M23.9211 20L-5.57886 40V0" fill="white"/>
</g>
<mask id="mask3_1565_8775" style="mask-type:luminance" maskUnits="userSpaceOnUse" x="0" y="0" width="40" height="40">
<path d="M20 40C31.0457 40 40 31.0457 40 20C40 8.95431 31.0457 0 20 0C8.95431 0 0 8.95431 0 20C0 31.0457 8.95431 40 20 40Z" fill="white"/>
</mask>
<g mask="url(#mask3_1565_8775)">
<path d="M15.3414 20.4539L15.7953 20L15.3414 19.546L11.9041 19.7714C11.8991 19.6948 11.8915 19.619 11.8817 19.5439L15.0187 19.1308L14.6483 18.7607L11.8453 19.3182C11.7547 18.8596 11.5745 18.4334 11.3234 18.0584L13.6999 16.4705V15.9468L11.1897 17.8728C11.1432 17.8124 11.0947 17.7536 11.0444 17.6962L13.6343 15.425V14.7834H12.9927L10.7214 17.3732C10.6641 17.323 10.6053 17.2744 10.5448 17.228L12.4709 14.7178H11.9472L10.3593 17.0942C9.9843 16.8432 9.55806 16.663 9.09942 16.5723L9.65694 13.7694L9.28682 13.3989L8.87378 16.5359C8.79866 16.5261 8.72282 16.5185 8.64626 16.5136L8.87162 13.0762L8.4177 12.6223L7.96378 13.0762L8.1891 16.5136C8.11258 16.5185 8.03674 16.5261 7.96158 16.5359L7.5485 13.3989L7.17838 13.7694L7.7359 16.5723C7.2773 16.663 6.85102 16.8432 6.47602 17.0942L4.8881 14.7178H4.36438L6.29054 17.228C6.23002 17.2745 6.17122 17.323 6.1139 17.3732L3.84262 14.7834H3.20102V15.425L5.79086 17.6962C5.74058 17.7536 5.69206 17.8124 5.64558 17.8728L3.13538 15.9468V16.4705L5.51182 18.0584C5.26078 18.4334 5.08058 18.8596 4.9899 19.3182L2.18698 18.7607L1.81654 19.1308L4.9535 19.5439C4.94374 19.619 4.9361 19.6948 4.93114 19.7714L1.49382 19.546L1.03998 20L1.4939 20.4539L4.93122 20.2285C4.93618 20.3051 4.94378 20.3809 4.95358 20.456L1.81662 20.8691L2.18706 21.2392L4.98998 20.6817C5.08066 21.1404 5.26086 21.5667 5.51194 21.9416L3.13542 23.5295V24.0532L5.64562 22.1271C5.6921 22.1876 5.74062 22.2464 5.7909 22.3038L3.20106 24.575V25.2166H3.84266L6.11398 22.6268C6.17122 22.677 6.23006 22.7256 6.29058 22.772L4.36442 25.2822H4.88814L6.47606 22.9058C6.85106 23.1568 7.2773 23.337 7.73586 23.4278L7.17838 26.2306L7.5485 26.6011L7.96158 23.4641C8.0367 23.4739 8.11254 23.4815 8.1891 23.4864L7.96378 26.9238L8.4177 27.3777L8.87162 26.9238L8.64626 23.4864C8.72282 23.4815 8.79866 23.474 8.87378 23.4641L9.28682 26.6011L9.65694 26.2306L9.09946 23.4278C9.55802 23.337 9.98426 23.1569 10.3592 22.9058L11.9472 25.2822H12.4709L10.5447 22.772C10.6052 22.7255 10.664 22.677 10.7213 22.6268L12.9927 25.2166H13.6342V24.575L11.0444 22.3037C11.0947 22.2464 11.1432 22.1876 11.1897 22.1271L13.6998 24.0532V23.5295L11.3233 21.9416C11.5744 21.5666 11.7546 21.1403 11.8453 20.6816L14.6483 21.2392L15.0187 20.869L11.8817 20.456C11.8915 20.3808 11.8991 20.3051 11.904 20.2285L15.3414 20.4539Z" fill="#FCD116"/>
</g>
<mask id="mask4_1565_8775" style="mask-type:luminance" maskUnits="userSpaceOnUse" x="0" y="0" width="40" height="40">
<path d="M20 40C31.0457 40 40 31.0457 40 20C40 8.95431 31.0457 0 20 0C8.95431 0 0 8.95431 0 20C0 31.0457 8.95431 40 20 40Z" fill="white"/>
</mask>
<g mask="url(#mask4_1565_8775)">
<path d="M19.5137 19.5285L19.4843 18.0938L18.6172 19.2373L17.2434 18.8219L18.0633 19.9999L17.2434 21.1779L18.6172 20.7625L19.4843 21.906L19.5137 20.4712L20.8694 19.9999L19.5137 19.5285Z" fill="#FCD116"/>
</g>
</g>
<defs>
<clipPath id="clip0_1565_8775">
<rect width="40" height="40" fill="white"/>
</clipPath>
</defs>
</svg>
