<svg width="40" height="40" viewBox="0 0 40 40" fill="none" xmlns="http://www.w3.org/2000/svg">
<g clip-path="url(#clip0_1565_8851)">
<path d="M20 40C31.0457 40 40 31.0457 40 20C40 8.9543 31.0457 0 20 0C8.9543 0 0 8.9543 0 20C0 31.0457 8.9543 40 20 40Z" fill="#F0F0F0"/>
<path d="M0 20.0001C0 8.95438 8.95437 0 20 0C31.0456 0 40 8.95438 40 20.0001" fill="#D80027"/>
<path d="M12.1739 10.4348C12.1739 7.52087 14.2218 5.08665 16.9565 4.48938C16.5362 4.39767 16.1002 4.3479 15.6521 4.3479C12.2903 4.3479 9.56516 7.07306 9.56516 10.4349C9.56516 13.7966 12.2903 16.5218 15.6521 16.5218C16.1 16.5218 16.5361 16.472 16.9565 16.3802C14.2218 15.783 12.1739 13.3488 12.1739 10.4348Z" fill="#F0F0F0"/>
<path d="M20 4.78271L20.4317 6.11123H21.8287L20.6984 6.9324L21.1302 8.26092L20 7.4399L18.8698 8.26092L19.3016 6.9324L18.1714 6.11123H19.5683L20 4.78271Z" fill="#F0F0F0"/>
<path d="M16.6113 7.39136L17.043 8.71995H18.4399L17.3098 9.54104L17.7415 10.8696L16.6113 10.0485L15.481 10.8696L15.9128 9.54104L14.7826 8.71995H16.1795L16.6113 7.39136Z" fill="#F0F0F0"/>
<path d="M23.3887 7.39136L23.8205 8.71995H25.2174L24.0872 9.54104L24.519 10.8696L23.3887 10.0485L22.2586 10.8696L22.6903 9.54104L21.5602 8.71995H22.957L23.3887 7.39136Z" fill="#F0F0F0"/>
<path d="M22.0845 11.3044L22.5162 12.633H23.913L22.7829 13.4541L23.2146 14.7826L22.0845 13.9616L20.9543 14.7826L21.386 13.4541L20.2559 12.633H21.6527L22.0845 11.3044Z" fill="#F0F0F0"/>
<path d="M17.9156 11.3044L18.3473 12.633H19.7443L18.6141 13.4541L19.0459 14.7826L17.9156 13.9616L16.7854 14.7826L17.2171 13.4541L16.0869 12.633H17.4839L17.9156 11.3044Z" fill="#F0F0F0"/>
</g>
<defs>
<clipPath id="clip0_1565_8851">
<rect width="40" height="40" fill="white"/>
</clipPath>
</defs>
</svg>
