<svg width="40" height="40" viewBox="0 0 40 40" fill="none" xmlns="http://www.w3.org/2000/svg">
<g clip-path="url(#clip0_1565_8832)">
<mask id="mask0_1565_8832" style="mask-type:luminance" maskUnits="userSpaceOnUse" x="0" y="0" width="40" height="40">
<path d="M20 40C31.0457 40 40 31.0457 40 20C40 8.95431 31.0457 0 20 0C8.95431 0 0 8.95431 0 20C0 31.0457 8.95431 40 20 40Z" fill="white"/>
</mask>
<g mask="url(#mask0_1565_8832)">
<path d="M-10 0H50V40H-10V0Z" fill="#ED1C24"/>
</g>
<mask id="mask1_1565_8832" style="mask-type:luminance" maskUnits="userSpaceOnUse" x="0" y="0" width="40" height="40">
<path d="M20 40C31.0457 40 40 31.0457 40 20C40 8.95431 31.0457 0 20 0C8.95431 0 0 8.95431 0 20C0 31.0457 8.95431 40 20 40Z" fill="white"/>
</mask>
<g mask="url(#mask1_1565_8832)">
<path d="M-10 6.66675H50V33.3334H-10V6.66675Z" fill="white"/>
</g>
<mask id="mask2_1565_8832" style="mask-type:luminance" maskUnits="userSpaceOnUse" x="0" y="0" width="40" height="40">
<path d="M20 40C31.0457 40 40 31.0457 40 20C40 8.95431 31.0457 0 20 0C8.95431 0 0 8.95431 0 20C0 31.0457 8.95431 40 20 40Z" fill="white"/>
</mask>
<g mask="url(#mask2_1565_8832)">
<path d="M-10 13.3333H50V26.6666H-10V13.3333Z" fill="#241D4F"/>
</g>
</g>
<defs>
<clipPath id="clip0_1565_8832">
<rect width="40" height="40" fill="white"/>
</clipPath>
</defs>
</svg>
